<svg width="39" height="39" viewBox="0 0 39 39" fill="none" xmlns="http://www.w3.org/2000/svg">
<circle cx="19.5" cy="19.5" r="19" stroke="white"/>
<path d="M18.8161 17.8593H30.7896V19.1404H29.7659V30.789H21.3009V19.1404H18.8161V17.8593Z" fill="white"/>
<path d="M12.6246 23.6759C12.6224 23.6759 12.6185 23.6773 12.6159 23.6773C11.0544 23.7228 10.1631 23.2574 10.0249 22.0203L9.39152 16.3243C9.27339 15.263 10.1196 14.4532 10.965 14.1434L10.9718 14.1412C10.9718 14.1412 11.2733 14.0432 11.549 14.0056C11.8363 13.9673 12.1191 14.0191 12.1191 14.0191C12.7795 14.0961 13.4319 14.563 13.4319 14.563C14.6464 15.4281 16.5293 15.615 19.0323 15.1179C19.662 14.9912 20.2741 15.4023 20.3992 16.0317C20.5243 16.6613 20.1152 17.2731 19.4854 17.3982C18.4361 17.6075 17.4601 17.711 16.5599 17.711C15.7417 17.711 15.0067 17.6204 14.3158 17.4481L14.3213 17.5284L14.725 21.1589C16.8394 21.2352 18.1714 21.6708 18.6935 22.4621C19.3997 23.5373 20.547 27.8722 20.8816 29.202C21.0545 29.8889 20.6371 30.586 19.95 30.7594C19.8455 30.7856 19.7401 30.7987 19.6362 30.7987C19.0621 30.7987 18.5385 30.4103 18.3924 29.8286C17.8027 27.4861 16.9881 25.0581 16.6161 24.2895C16.3079 23.6209 14.269 23.5854 12.6246 23.6759Z" fill="white"/>
<path d="M11.8559 13.861C10.4215 13.861 9.25872 12.6982 9.25872 11.2638C9.25872 9.82943 10.4215 8.66663 11.8559 8.66663C13.2903 8.66663 14.4531 9.82943 14.4531 11.2638C14.4531 12.6982 13.2903 13.861 11.8559 13.861Z" fill="white"/>
<path d="M7.61086 21.1565L7.26589 16.6844C7.26499 16.659 7.2745 16.6344 7.2921 16.6161C7.30975 16.5979 7.334 16.5875 7.35939 16.5875H8.77883C8.82923 16.5875 8.87056 16.6274 8.87237 16.6778L9.1931 21.1532C9.23533 22.5329 9.64185 24.2299 11.9594 24.2299C11.9922 24.2299 14.5221 24.2242 14.5221 24.2242C14.5222 24.2242 14.5222 24.2242 14.5222 24.2242C14.547 24.2242 14.5708 24.2341 14.5884 24.2516C14.6059 24.2691 14.6158 24.293 14.6158 24.3178V25.7007C14.6158 25.7524 14.5739 25.7943 14.5222 25.7943L12.1957 25.7942V28.9728H12.9261C13.8824 28.9728 14.6902 29.8122 14.6902 30.8057C14.6902 30.8574 14.6483 30.8992 14.5966 30.8992H13.6752C13.6235 30.8992 13.5816 30.8574 13.5816 30.8057C13.5816 30.4402 13.2817 30.1314 12.9265 30.1314H9.89714C9.5418 30.1314 9.24164 30.4402 9.24164 30.8057C9.24164 30.8574 9.1997 30.8992 9.14804 30.8992H8.22629C8.17464 30.8992 8.13274 30.8574 8.13274 30.8057C8.13274 29.8122 8.94077 28.9728 9.89719 28.9728H10.627V25.6237C8.34256 25.5619 7.8125 23.2982 7.61086 21.1565Z" fill="white"/>
<path d="M21.0552 16.4936H25.4417L26.9263 11.0532C26.9368 11.0149 26.9762 10.9923 27.0144 11.0028L27.806 11.2188C27.8244 11.2238 27.84 11.2359 27.8494 11.2524C27.8589 11.269 27.8614 11.2886 27.8563 11.3069L26.1924 17.4042C26.1839 17.4354 26.1556 17.457 26.1232 17.457H21.0552C21.0155 17.457 20.9834 17.425 20.9834 17.3853V16.5653C20.9835 16.5257 21.0156 16.4936 21.0552 16.4936Z" fill="white"/>
</svg>
