<svg width="39" height="39" viewBox="0 0 39 39" fill="none" xmlns="http://www.w3.org/2000/svg">
<circle cx="19.5" cy="19.5" r="19" stroke="white"/>
<path d="M23.5045 13.2073C22.3427 13.2073 21.4009 12.2655 21.4009 11.1036C21.4009 9.94183 22.3427 9 23.5045 9C24.6663 9 25.6082 9.94183 25.6082 11.1036C25.6082 12.2655 24.6663 13.2073 23.5045 13.2073Z" fill="white"/>
<path d="M10.2806 29.164C12.7875 25.4224 15.654 20.5487 16.1359 19.726C16.1795 19.5767 16.2371 19.4253 16.3166 19.2729C16.8892 18.157 17.488 17.0536 18.099 15.9577C17.4513 16.0084 16.8019 16.0586 16.1546 16.1088C15.7095 16.986 15.2665 17.8637 14.8222 18.7405C14.1069 20.1532 11.9897 18.9103 12.7033 17.5014C13.2759 16.3697 13.9545 13.8244 15.4328 13.7096C17.0057 13.5874 18.5782 13.4652 20.1507 13.3435C20.1891 13.3404 20.2218 13.3456 20.2585 13.3456C21.4473 13.0275 22.8409 13.8663 23.0932 15.0783C23.8971 16.8193 25.0515 18.1788 26.9884 18.7462C28.5046 19.1896 27.8587 21.5581 26.3359 21.113C24.4213 20.5526 23.046 19.4554 22.0034 18.0112C21.3718 19.1372 20.7552 20.2702 20.1642 21.4189C21.4635 22.3149 22.5987 23.3986 23.5933 24.649C23.8709 24.9977 23.9185 25.3565 23.8251 25.672C23.8286 25.7899 23.8211 25.9121 23.7875 26.0448C23.4048 27.5601 23.0225 29.0728 22.6393 30.5864C22.2329 32.1994 19.6793 31.7412 20.0891 30.1176C20.4536 28.6752 20.8184 27.2327 21.1829 25.7894C20.269 24.7119 19.1914 23.7744 17.9602 23.0743C17.6704 22.9094 17.488 22.682 17.3867 22.4315C15.7025 25.0126 14.0178 28.5835 12.3345 30.7478C11.3071 32.0685 9.25189 30.4873 10.2806 29.164Z" fill="white"/>
</svg>
