<svg width="39" height="39" viewBox="0 0 39 39" fill="none" xmlns="http://www.w3.org/2000/svg">
<path d="M23.4366 13.5511C22.1798 13.5511 21.161 12.5323 21.161 11.2756C21.161 10.0188 22.1798 9 23.4366 9C24.6934 9 25.7122 10.0188 25.7122 11.2756C25.7122 12.5323 24.6934 13.5511 23.4366 13.5511Z" fill="white"/>
<path d="M10.5509 23.3102C12.9367 24.7056 14.3676 22.6584 15.4456 20.6877C15.4926 20.498 15.5619 20.3055 15.6615 20.1112C16.4959 18.4883 17.3666 16.8816 18.2779 15.2999C16.4982 14.7321 14.8706 15.2507 13.5908 17.0429C12.55 18.5012 10.1153 17.1028 11.1683 15.6275C13.6454 12.1585 17.339 11.2976 21.0368 13.4929C21.1906 13.5841 21.314 13.6902 21.4129 13.8065C21.469 13.8284 21.5246 13.8527 21.5796 13.8784C21.7299 13.9087 21.8848 13.9667 22.0413 14.0595C24.3399 15.4241 26.4761 15.1654 28.0714 12.9308C29.113 11.4726 31.5469 12.8709 30.4936 14.3462C28.4582 17.1971 25.6004 18.2822 22.5939 17.3611C21.6504 18.9814 20.7546 20.6305 19.8941 22.2971C21.166 22.9474 22.3435 23.7564 23.4381 24.709C23.4855 24.7503 23.5275 24.7931 23.5673 24.8359C23.8055 24.9582 24.0157 25.1646 24.1638 25.4707C24.8994 26.9914 25.6357 28.5113 26.3712 30.032C27.1613 31.6652 24.6191 32.8492 23.832 31.2236C23.1328 29.779 22.4329 28.3325 21.7333 26.8887C21.6386 26.8353 21.5447 26.7717 21.4546 26.6925C20.185 25.5873 18.7309 24.6916 17.1383 24.1367C17.0599 24.1094 16.9883 24.0768 16.9208 24.0405C14.971 26.5149 12.2508 27.8777 8.99347 25.974C7.27732 24.9711 8.82947 22.3042 10.5509 23.3102Z" fill="white"/>
<circle cx="19.5" cy="19.5" r="19" stroke="white"/>
</svg>
