<svg width="39" height="39" viewBox="0 0 39 39" fill="none" xmlns="http://www.w3.org/2000/svg">
<path d="M26.8245 18.9611C27.796 18.9611 28.5836 18.1736 28.5836 17.2021C28.5836 16.2306 27.796 15.443 26.8245 15.443C25.853 15.443 25.0654 16.2306 25.0654 17.2021C25.0654 18.1736 25.853 18.9611 26.8245 18.9611Z" fill="white"/>
<path d="M31.553 18.6871C29.6533 19.1738 27.7393 19.5915 25.8119 19.9441C25.8043 19.8248 25.7854 19.7015 25.7509 19.5746C25.3641 18.1818 23.2548 17.734 22.7432 17.5312C23.0721 17.1734 23.401 16.8159 23.7299 16.4585C24.4657 15.6593 23.2753 14.4633 22.5371 15.2657C21.9343 15.9216 21.3307 16.5778 20.7275 17.2332C20.3837 17.6071 20.3893 18.3095 20.8986 18.5573C21.1813 18.6951 21.4705 18.8212 21.7616 18.9429C19.8331 19.5184 18.925 19.5931 18.8825 19.5963C15.088 19.924 11.7466 20.2192 7.95212 20.5473C6.60792 20.6634 6.72118 22.7554 8.07622 22.6385C10.3293 22.4446 12.5827 22.2482 14.8358 22.0546C12.7703 22.5727 10.7044 23.0912 8.63929 23.6084C7.32119 23.9386 7.88023 25.9719 9.19954 25.6414C11.8498 24.9776 22.0572 22.6755 23.9922 21.9546C26.6874 21.5357 29.3578 20.9911 32.0012 20.3128C33.0546 20.0425 32.6076 18.4168 31.553 18.6871Z" fill="white"/>
<path d="M20.1753 18.7393C20.0412 18.5702 19.9484 18.367 19.9059 18.1429C19.8882 18.0489 19.8866 17.9533 19.8866 17.8585L19.8661 17.8296L7.37549 15.8617L8.89118 19.8485L18.8299 18.9895C18.8568 18.9871 19.291 18.9485 20.1753 18.7393Z" fill="white"/>
<circle cx="19.5" cy="19.5" r="19" stroke="white"/>
</svg>
