<svg width="90" height="90" viewBox="0 0 90 90" fill="none" xmlns="http://www.w3.org/2000/svg">
<path d="M88.5 45C88.5 69.0242 69.0242 88.5 45 88.5C20.9758 88.5 1.5 69.0242 1.5 45C1.5 20.9758 20.9758 1.5 45 1.5C69.0242 1.5 88.5 20.9758 88.5 45Z" fill="#D53A2F"/>
<path d="M70.5 30C70.5 33.3135 67.8135 36 64.5 36C61.1865 36 58.5 33.3135 58.5 30C58.5 26.6865 61.1865 24 64.5 24C67.8135 24 70.5 26.6865 70.5 30Z" fill="#FFE0B2"/>
<path d="M47.4105 29.1343C46.2386 27.9624 44.3387 27.9624 43.1668 29.1343L33.0916 39.2102C32.212 40.0891 32.212 41.5144 33.0916 42.3933C33.9705 43.2715 35.3943 43.2715 36.2733 42.3933L45.2894 33.3765L52.2737 40.3608C53.1197 41.2097 54.4871 41.2324 55.3609 40.4114L55.4158 40.3586C55.8509 39.947 56.0999 39.3772 56.108 38.7781C56.1153 38.1797 55.8802 37.6033 55.4568 37.1807L47.4105 29.1343Z" fill="#FFE0B2"/>
<path d="M46.2709 49.6099C45.7054 49.0246 44.869 48.7903 44.0824 48.9961C43.2958 49.2019 42.6813 49.8164 42.4755 50.603C42.2696 51.3896 42.504 52.2261 43.0892 52.7908L52.1053 61.8076L45.2294 68.6821C44.3505 69.5603 44.3505 70.9856 45.2286 71.8645C46.1075 72.7434 47.5321 72.7434 48.411 71.8652L56.3475 63.9287C57.5194 62.7568 57.5194 60.8569 56.3475 59.6851L46.2709 49.6099Z" fill="#FFE0B2"/>
<path d="M57 51C57 52.6567 58.3433 54 60 54H71.25C72.4929 54 73.5 52.9929 73.5 51.75C73.5 50.5071 72.4929 49.5 71.25 49.5H61.5V43.5L57 46.5V51Z" fill="#FFE0B2"/>
<path d="M23.3102 75.0373C24.195 75.8848 25.5954 75.8679 26.4604 75L42.7502 58.7043C42.7502 58.7043 39.5685 55.5227 39.644 55.4458L23.2729 71.8169C22.8437 72.2454 22.6056 72.8291 22.613 73.4348C22.6195 74.0413 22.8715 74.6191 23.3102 75.0373Z" fill="#FFE0B2"/>
<path d="M45 0C44.1716 0 43.5 0.671631 43.5 1.5V7.5C43.5 8.32837 44.1716 9 45 9C45.8284 9 46.5 8.32837 46.5 7.5V3.03735C69.2952 3.84595 87.2776 22.7 87.0081 45.5076C86.7385 68.3152 68.3152 86.7385 45.5076 87.0081C22.7 87.2776 3.84595 69.2952 3.03735 46.5H7.5C8.32837 46.5 9 45.8284 9 45C9 44.1716 8.32837 43.5 7.5 43.5H1.5C0.671631 43.5 0 44.1716 0 45C0 69.8525 20.1475 90 45 90C69.8525 90 90 69.8525 90 45C90 20.1475 69.8525 0 45 0Z" fill="#231F20"/>
<path d="M65.1241 22.5257C60.9962 22.1807 57.37 25.2481 57.0257 29.376C56.6808 33.5039 59.7481 37.1302 63.8761 37.4744C64.0877 37.4927 64.2958 37.5 64.5045 37.5C68.4002 37.4927 71.6441 34.5074 71.973 30.6255C72.3136 26.4991 69.2498 22.8758 65.1241 22.5257ZM64.1251 34.4854C61.7176 34.2884 59.8954 32.2259 59.9957 29.8125C60.0968 27.3992 62.0846 25.4956 64.5001 25.5C64.6246 25.5 64.7506 25.5 64.878 25.5147C67.3551 25.722 69.1949 27.898 68.9884 30.375C68.7811 32.8521 66.6051 34.6919 64.128 34.4854H64.1251Z" fill="#231F20"/>
<path d="M48.4694 28.0737C46.6889 26.3745 43.8874 26.3745 42.1061 28.0737L32.031 38.1511C30.5778 39.6174 30.583 41.9832 32.0434 43.4429C33.5031 44.9026 35.8688 44.907 37.3352 43.4539L45.2849 35.5034L51.2102 41.4258C52.6516 42.8694 54.9872 42.8811 56.4433 41.4521C57.1713 40.7622 57.5895 39.8064 57.6027 38.8037C57.6166 37.8003 57.2233 36.8342 56.5136 36.1245L48.4694 28.0737ZM54.3332 39.3237C54.0497 39.5896 53.6066 39.5808 53.3342 39.3047L46.3498 32.3159C45.7639 31.7307 44.8146 31.7307 44.2287 32.3159L35.2155 41.3328C34.9226 41.6257 34.4472 41.6265 34.1542 41.3335C33.8613 41.0405 33.8605 40.5652 34.1535 40.2722L44.2287 30.1948C44.8146 29.6096 45.7639 29.6096 46.3498 30.1948L54.3976 38.2412C54.5361 38.3789 54.6122 38.5679 54.6071 38.7627C54.5983 38.9788 54.4987 39.1809 54.3332 39.3193V39.3237Z" fill="#231F20"/>
<path d="M46.8002 74.0237H46.8193C47.8139 74.0266 48.7675 73.6311 49.4684 72.9258L57.405 64.9893C59.1628 63.2314 59.1628 60.3816 57.405 58.6245L47.3312 48.5493C45.8474 47.1321 43.5117 47.1321 42.0285 48.5493C40.5644 50.0134 40.5644 52.3872 42.0285 53.8513L49.9782 61.8018L44.1628 67.6172C42.7177 69.0725 42.7045 71.4185 44.1342 72.8892C44.8337 73.6121 45.7946 74.0208 46.8002 74.0237ZM46.2883 69.75L53.1642 62.874C53.7502 62.2881 53.7502 61.3389 53.1642 60.7529L44.1511 51.7368C43.9562 51.5479 43.8779 51.2695 43.9467 51.0073C44.0148 50.7451 44.2199 50.54 44.4821 50.4712C44.7443 50.4031 45.0234 50.4807 45.2116 50.6763L55.2853 60.75C55.8713 61.3359 55.8713 62.2852 55.2853 62.8711L47.3474 70.8003C47.2082 70.9409 47.0185 71.02 46.8207 71.0193C46.6157 71.0317 46.4164 70.9475 46.2824 70.7922C46.0034 70.5 46.0056 70.0393 46.2883 69.75Z" fill="#231F20"/>
<path d="M71.25 55.5C73.3213 55.5 75 53.8213 75 51.75C75 49.6787 73.3213 48 71.25 48H63V43.5C63 42.947 62.6953 42.438 62.2075 42.1773C61.7197 41.9165 61.1279 41.9451 60.6672 42.252L56.1672 45.252C55.7505 45.5303 55.5 45.9983 55.5 46.5V51C55.5 53.4851 57.5149 55.5 60 55.5H71.25ZM58.5 51V47.3028L60 46.3037V49.5C60 50.3284 60.6716 51 61.5 51H71.25C71.6646 51 72 51.3355 72 51.75C72 52.1646 71.6646 52.5 71.25 52.5H60C59.1716 52.5 58.5 51.8284 58.5 51Z" fill="#231F20"/>
<path d="M43.8106 57.6438C42.6467 56.4778 41.2742 55.0723 40.9292 54.6738C40.8648 54.5676 40.7886 54.4702 40.7007 54.3823C40.1155 53.7986 39.1685 53.7986 38.5833 54.3823L22.2122 70.7563C20.7473 72.2212 20.7473 74.5957 22.2122 76.0605C23.677 77.5254 26.0515 77.5254 27.5164 76.0605L43.8106 59.7642C44.3958 59.179 44.3958 58.229 43.8106 57.6438ZM25.3953 73.938C25.1023 74.231 24.627 74.2317 24.334 73.9387C24.0403 73.6457 24.0403 73.1704 24.3333 72.8774L39.5823 57.6299C39.8818 57.9448 40.2297 58.3008 40.6318 58.7021L25.3953 73.938Z" fill="#231F20"/>
<path d="M38.4873 9.56987C38.5752 9.56987 38.6631 9.56254 38.7495 9.54789C39.5654 9.40361 40.1103 8.62504 39.966 7.80912L38.9157 1.90068C38.7546 1.10307 37.9863 0.58012 37.1858 0.721478C36.3845 0.862835 35.8418 1.6165 35.9626 2.4207L37.0122 8.33134C37.1389 9.04692 37.76 9.56913 38.4873 9.56987Z" fill="#231F20"/>
<path d="M30.7647 10.2752C30.9808 10.867 31.5433 11.2618 32.1739 11.2618C32.3489 11.2625 32.5225 11.2317 32.6866 11.1702C33.4659 10.889 33.8687 10.0284 33.5867 9.24906L31.5315 3.61088C31.2371 2.84842 30.3868 2.46171 29.6192 2.74149C28.8516 3.02054 28.4488 3.86356 28.7132 4.63627L30.7647 10.2752Z" fill="#231F20"/>
<path d="M24.9507 13.2737C25.2173 13.7417 25.7131 14.031 26.2514 14.0325C26.7898 14.0332 27.2878 13.7461 27.5559 13.2796C27.824 12.8123 27.821 12.2381 27.5493 11.7737L24.5493 6.57717C24.1318 5.86598 23.2192 5.62502 22.5051 6.03737C21.791 6.44972 21.5434 7.36086 21.9507 8.07717L24.9507 13.2737Z" fill="#231F20"/>
<path d="M19.7476 17.2383C20.2801 17.874 21.2263 17.9575 21.8628 17.4258C22.4986 16.8933 22.5821 15.9463 22.0503 15.3105L18.1875 10.7131C17.647 10.1126 16.7271 10.0481 16.1082 10.5674C15.4893 11.0874 15.3933 12.0037 15.8914 12.6401L19.7476 17.2383Z" fill="#231F20"/>
<path d="M15.3091 22.0503C15.9449 22.5615 16.8736 22.47 17.398 21.8445C17.9224 21.2197 17.8506 20.2896 17.2369 19.752L12.6424 15.8958C12.0059 15.3845 11.0779 15.4753 10.5528 16.1008C10.0284 16.7263 10.1002 17.6558 10.7147 18.1934L15.3091 22.0503Z" fill="#231F20"/>
<path d="M6.57928 24.5493L11.7751 27.5493C12.2394 27.821 12.8137 27.8239 13.2809 27.5559C13.7475 27.2878 14.0346 26.7898 14.0339 26.2514C14.0324 25.7131 13.7431 25.2173 13.2751 24.9507L8.07928 21.9507C7.36223 21.5434 6.4511 21.791 6.03875 22.5051C5.62639 23.2192 5.86736 24.1318 6.57928 24.5493Z" fill="#231F20"/>
<path d="M3.61075 31.5315L9.24893 33.5837C9.413 33.6445 9.58658 33.6753 9.76163 33.6753C10.4904 33.6753 11.1137 33.1531 11.2404 32.4353C11.3671 31.7183 10.9599 31.0137 10.2751 30.7646L4.63614 28.7131C3.86344 28.4487 3.02042 28.8516 2.74137 29.6191C2.46158 30.3867 2.8483 31.2371 3.61075 31.5315Z" fill="#231F20"/>
<path d="M1.90063 38.9238L7.80908 39.9661C7.89551 39.9807 7.9834 39.988 8.07129 39.9888C8.84985 39.9888 9.49878 39.394 9.56616 38.6184C9.63428 37.8435 9.09741 37.1455 8.3313 37.0107L2.42065 35.9612C1.60473 35.8176 0.826902 36.3625 0.683347 37.1785C0.539792 37.9944 1.08471 38.7722 1.90063 38.9158V38.9238Z" fill="#231F20"/>
</svg>
