<svg width="230" height="222" viewBox="0 0 230 222" fill="none" xmlns="http://www.w3.org/2000/svg">
<g filter="url(#filter0_d)">
<path d="M214.871 45.4506H219.245C220.479 45.4506 221.479 44.4507 221.479 43.2172V29.8781C221.479 28.6445 220.479 27.6447 219.245 27.6447H10.7541C9.52052 27.6447 8.52065 28.6445 8.52065 29.8781V43.2172C8.52065 44.4507 9.52052 45.4506 10.7541 45.4506H15.1382C8.00294 60.1087 4 76.554 4 93.9524C4 137.585 29.1749 175.337 65.7914 193.476C66.9526 194.051 68.2282 194.358 69.5238 194.357L160.653 194.276C161.949 194.275 163.224 193.966 164.384 193.389C200.905 175.217 226 137.515 226 93.9524C226 76.5614 222 60.1039 214.871 45.4506Z" fill="#C9EDF7"/>
<mask id="mask0" mask-type="alpha" maskUnits="userSpaceOnUse" x="4" y="27" width="222" height="168">
<path d="M214.871 45.4506H219.245C220.479 45.4506 221.479 44.4507 221.479 43.2172V29.8781C221.479 28.6445 220.479 27.6447 219.245 27.6447H10.7541C9.52052 27.6447 8.52065 28.6445 8.52065 29.8781V43.2172C8.52065 44.4507 9.52052 45.4506 10.7541 45.4506H15.1382C8.00294 60.1087 4 76.554 4 93.9524C4 137.585 29.1749 175.337 65.7914 193.476C66.9526 194.051 68.2282 194.358 69.5238 194.357L160.653 194.276C161.949 194.275 163.224 193.966 164.384 193.389C200.905 175.217 226 137.515 226 93.9524C226 76.5614 222 60.1039 214.871 45.4506Z" fill="#C9EDF7"/>
</mask>
<g mask="url(#mask0)">
<path d="M222.996 115.631C222.996 159.192 197.905 196.893 161.379 215.064C160.223 215.645 158.945 215.953 157.65 215.953L66.5204 216.034C65.2252 216.034 63.9517 215.73 62.7906 215.154C26.171 197.013 1 159.264 1 115.631C1 112.031 1.16954 108.475 1.50904 104.965C52.3202 95.3921 104.6 90.7509 154.594 105.201C172.18 110.28 197.677 115.962 222.996 115.631Z" fill="#68C4FB"/>
<path d="M225.998 93.9541C225.998 137.513 200.906 175.215 164.388 193.389C163.226 193.968 161.947 194.276 160.65 194.276H137.5C175.009 176.463 200.939 138.235 200.939 93.9545C200.939 76.7296 197.018 60.4247 190.015 45.8811C189.879 45.5984 189.805 45.2906 189.801 44.9767L189.578 27.6433H219.244C220.477 27.6433 221.477 28.6432 221.477 29.8768V43.2193C221.477 44.4529 220.477 45.4527 219.244 45.4527H214.871C222 60.1039 225.998 76.5601 225.998 93.9541Z" fill="#AEE1ED"/>
<path d="M222.938 121.275C214.14 163.934 181.951 195.795 142.512 206.214C141.257 206.548 139.943 206.592 138.67 206.33L116 201.654C156.333 191.784 189.451 159.581 198.395 116.214C198.491 115.746 198.583 115.276 198.67 114.811C206.482 117.426 214.651 119.68 222.938 121.275Z" fill="#42A7F9"/>
<path d="M226.108 113.423C230.256 156.782 206.92 196.892 169.458 218.729C168.266 219.427 166.925 219.865 165.53 219.998L140.689 222.374C179.245 200.791 203.432 160.075 199.215 115.996C199.17 115.52 199.119 115.044 199.065 114.574C207.936 114.713 217.063 114.401 226.108 113.423Z" fill="#42A7F9"/>
<path d="M164.646 164.504C161.568 156.933 160.983 150.707 162.999 146.969C163.853 145.391 163.263 143.418 161.685 142.564C160.107 141.71 158.134 142.299 157.28 143.878C153.486 150.898 155.914 160.302 158.624 166.958C161.937 175.096 160.484 184.185 154.83 190.667C154.34 191.226 153.919 191.668 153.625 191.968C152.402 191.1 144.467 184.618 148.413 165.124C150.815 153.469 152.714 142.958 151.578 132.374C151.309 129.907 150.706 127.184 150.065 124.305C147.801 114.103 146.609 106.576 151.938 102.587C153.377 101.511 153.672 99.4733 152.593 98.0338C151.517 96.5943 149.479 96.3037 148.044 97.3791C138.939 104.191 141.588 116.123 143.717 125.714C144.315 128.411 144.883 130.961 145.109 133.068C146.149 142.72 144.333 152.701 142.039 163.823C138.626 180.681 143.149 189.886 146.765 194.287L152.133 194.283H152.406L160.293 194.274C167.105 185.98 168.779 174.658 164.646 164.504Z" fill="#94E061"/>
<path d="M105.111 131.261L94.2921 129.542C94.2921 129.542 94.2921 129.542 78.9883 127.084C86.2087 118.915 97.5187 118.469 103.015 118.813C104.946 118.929 106.614 120.212 107.302 122.103L109.996 129.511L105.111 131.261Z" fill="#42A7F9"/>
<path d="M60.9407 139.639C64.6823 134.247 70.1036 130.328 76.3461 128.268C81.1982 126.667 86.3814 126.135 91.4788 126.378C92.6366 126.433 93.7923 126.529 94.9428 126.67C99.6816 127.248 104.404 128.199 108.877 129.934C115.165 132.373 120.979 136.261 124.945 141.763C125.082 141.953 126.508 144.057 126.457 144.088C127.341 143.551 128.415 143.31 129.52 143.487C131.977 143.882 133.652 146.181 133.259 148.621C133.047 149.943 132.27 151.031 131.214 151.693C132.01 152.651 132.407 153.928 132.195 155.25C131.803 157.691 129.493 159.35 127.036 158.955C125.931 158.777 124.986 158.213 124.315 157.425C111.175 169.045 91.9782 164.58 91.9782 164.58C91.9782 164.58 66.9817 162.325 60.7007 141.134C60.55 140.626 60.6387 140.074 60.9407 139.639Z" fill="#F5CA26"/>
<path d="M98.1021 144.659C96.9948 145.641 95.4596 146.406 94.7089 146.852C93.438 147.607 92.087 148.219 90.6904 148.683C87.2626 149.82 83.6209 150.003 80.0901 149.429C79.0569 149.261 78.4127 148.149 78.8468 147.172C79.4881 145.728 80.8083 144.471 81.9481 143.683C84.9251 141.623 89.4896 140.392 92.9857 140.197C94.6652 140.104 98.3405 139.753 99.2008 141.62C99.7237 142.755 99.0794 143.792 98.1021 144.659Z" fill="#42A7F9"/>
<path d="M65.155 142.089C62.8377 144.923 55.0148 153.546 45.6415 153.482C44.4026 153.474 43.4923 152.289 43.7437 151.047C44.3679 147.967 45.8988 142.517 49.2282 139.891C50.028 139.261 50.2171 138.083 49.655 137.234C47.3153 133.698 47.5683 128.042 47.94 124.922C48.09 123.664 49.3257 122.824 50.5049 123.203C59.4266 126.079 64.1562 136.717 65.4689 140.135C65.7229 140.794 65.6029 141.542 65.155 142.089Z" fill="#42A7F9"/>
<path d="M115.433 146.104C117.069 146.367 118.608 145.254 118.871 143.618C119.134 141.982 118.021 140.443 116.385 140.18C114.749 139.917 113.21 141.031 112.947 142.667C112.684 144.302 113.797 145.842 115.433 146.104Z" fill="#6D5050"/>
</g>
</g>
<defs>
<filter id="filter0_d" x="0" y="0" width="230" height="230" filterUnits="userSpaceOnUse" color-interpolation-filters="sRGB">
<feFlood flood-opacity="0" result="BackgroundImageFix"/>
<feColorMatrix in="SourceAlpha" type="matrix" values="0 0 0 0 0 0 0 0 0 0 0 0 0 0 0 0 0 0 127 0"/>
<feOffset dy="4"/>
<feGaussianBlur stdDeviation="2"/>
<feColorMatrix type="matrix" values="0 0 0 0 0 0 0 0 0 0 0 0 0 0 0 0 0 0 0.25 0"/>
<feBlend mode="normal" in2="BackgroundImageFix" result="effect1_dropShadow"/>
<feBlend mode="normal" in="SourceGraphic" in2="effect1_dropShadow" result="shape"/>
</filter>
</defs>
</svg>
