<svg width="230" height="222" viewBox="0 0 230 222" fill="none" xmlns="http://www.w3.org/2000/svg">
<g filter="url(#filter0_d)">
<path d="M214.871 45.4506H219.245C220.479 45.4506 221.479 44.4507 221.479 43.2172V29.8781C221.479 28.6445 220.479 27.6447 219.245 27.6447H10.7541C9.52052 27.6447 8.52065 28.6445 8.52065 29.8781V43.2172C8.52065 44.4507 9.52052 45.4506 10.7541 45.4506H15.1382C8.00294 60.1087 4 76.554 4 93.9524C4 137.585 29.1749 175.337 65.7914 193.476C66.9526 194.051 68.2282 194.358 69.5238 194.357L160.653 194.276C161.949 194.275 163.224 193.966 164.384 193.389C200.905 175.217 226 137.515 226 93.9524C226 76.5614 222 60.1039 214.871 45.4506Z" fill="#C9EDF7"/>
<mask id="mask0" mask-type="alpha" maskUnits="userSpaceOnUse" x="4" y="27" width="222" height="168">
<path d="M214.871 45.4506H219.245C220.479 45.4506 221.479 44.4507 221.479 43.2172V29.8781C221.479 28.6445 220.479 27.6447 219.245 27.6447H10.7541C9.52052 27.6447 8.52065 28.6445 8.52065 29.8781V43.2172C8.52065 44.4507 9.52052 45.4506 10.7541 45.4506H15.1382C8.00294 60.1087 4 76.554 4 93.9524C4 137.585 29.1749 175.337 65.7914 193.476C66.9526 194.051 68.2282 194.358 69.5238 194.357L160.653 194.276C161.949 194.275 163.224 193.966 164.384 193.389C200.905 175.217 226 137.515 226 93.9524C226 76.5614 222 60.1039 214.871 45.4506Z" fill="#C9EDF7"/>
</mask>
<g mask="url(#mask0)">
<path d="M225.998 93.9541C225.998 137.513 200.906 175.215 164.388 193.389C163.226 193.968 161.947 194.276 160.65 194.276H137.5C175.009 176.463 200.939 138.235 200.939 93.9545C200.939 76.7296 197.018 60.4247 190.015 45.8811C189.879 45.5984 189.805 45.2906 189.801 44.9767L189.578 27.6433H219.244C220.477 27.6433 221.477 28.6432 221.477 29.8768V43.2193C221.477 44.4529 220.477 45.4527 219.244 45.4527H214.871C222 60.1039 225.998 76.5601 225.998 93.9541Z" fill="#AEE1ED"/>
<path d="M191.996 181.631C191.996 225.192 166.905 262.893 130.379 281.064C129.223 281.645 127.945 281.953 126.65 281.953L35.5204 282.034C34.2252 282.034 32.9517 281.73 31.7906 281.154C-4.82902 263.013 -30 225.264 -30 181.631C-30 178.031 -29.8305 174.475 -29.491 170.965C21.3202 161.392 73.6003 156.751 123.594 171.201C141.18 176.28 166.677 181.962 191.996 181.631Z" fill="#68C4FB"/>
<path d="M225.998 93.9541C225.998 137.511 200.908 175.216 164.386 193.387C163.224 193.968 161.947 194.276 160.647 194.276H137.5C175.008 176.462 200.938 138.234 200.938 93.9541C200.938 93.4763 200.934 92.998 200.925 92.5245C209.104 93.5075 217.56 94.066 225.998 93.9541Z" fill="#42A7F9"/>
<path d="M248.498 79.3108C248.498 122.87 223.406 160.571 186.888 178.746C185.726 179.324 184.447 179.633 183.15 179.633H160C197.508 161.819 223.439 123.592 223.439 79.3112C223.439 62.0863 219.518 45.7814 212.515 31.2378C212.379 30.9551 212.305 30.6473 212.301 30.3333L212.078 13H241.744C242.977 13 243.977 13.9999 243.977 15.2334V28.576C243.977 29.8096 242.977 30.8094 241.744 30.8094H237.37C244.5 45.4606 248.498 61.9167 248.498 79.3108Z" fill="#AEE1ED"/>
<path d="M220.575 58.0803C231.777 100.174 217.225 143.061 186.61 170.016C185.636 170.874 184.48 171.501 183.226 171.834L160.855 177.788C192.52 150.927 207.747 107.316 196.359 64.5254C191.929 47.8799 183.947 33.1317 173.439 20.8785C173.234 20.6403 173.084 20.3617 173 20.0593L168.326 3.36641L196.994 -4.26301C198.186 -4.58026 199.41 -3.87117 199.727 -2.67909L203.158 10.2147C203.476 11.4067 202.766 12.6301 201.574 12.9474L197.348 14.0721C208.006 26.3968 216.101 41.2713 220.575 58.0803Z" fill="#AEE1ED"/>
<path d="M162.854 180.567C159.9 177.153 159.338 174.344 161.273 172.659C162.092 171.947 161.527 171.057 160.012 170.672C158.498 170.287 156.605 170.553 155.785 171.264C152.145 174.43 154.474 178.672 157.075 181.674C160.253 185.345 158.86 189.443 153.434 192.367C152.964 192.619 152.561 192.819 152.278 192.954C151.104 192.563 143.491 189.639 147.277 180.847C149.582 175.59 151.404 170.85 150.314 166.076C150.056 164.963 149.478 163.735 148.862 162.437C146.69 157.835 145.546 154.44 150.659 152.641C152.041 152.156 152.323 151.237 151.287 150.588C150.256 149.939 148.3 149.808 146.923 150.293C138.186 153.365 140.728 158.747 142.771 163.072C143.345 164.289 143.89 165.439 144.106 166.389C145.105 170.742 143.362 175.244 141.161 180.26C137.886 187.863 142.226 192.015 145.696 194L150.846 193.998H151.109L158.677 193.994C165.213 190.253 166.819 185.147 162.854 180.567Z" fill="#94E061"/>
<path d="M105.363 173.317L98.6504 173.172C98.6504 173.172 98.6504 173.172 89.1529 172.953C92.8341 168.466 99.659 167.514 103.024 167.327C104.205 167.26 105.328 167.783 105.907 168.669L108.177 172.14L105.363 173.317Z" fill="#42A7F9"/>
<path d="M79.0644 181.269C80.9251 178.22 83.9633 175.818 87.6772 174.324C90.5639 173.163 93.7511 172.532 96.953 172.309C97.6802 172.258 98.4097 172.228 99.1398 172.222C102.147 172.197 105.177 172.366 108.121 172.958C112.258 173.791 116.228 175.406 119.185 177.984C119.288 178.073 120.362 179.065 120.333 179.085C120.838 178.746 121.486 178.547 122.191 178.564C123.759 178.6 125.006 179.676 124.975 180.966C124.959 181.666 124.57 182.282 123.969 182.697C124.55 183.139 124.91 183.773 124.894 184.473C124.863 185.764 123.568 186.781 122 186.745C121.295 186.729 120.656 186.501 120.168 186.139C112.991 193.057 100.621 192.06 100.621 192.06C100.621 192.06 84.8267 192.604 79.0459 182.059C78.9073 181.807 78.9142 181.514 79.0644 181.269Z" fill="#F5CA26"/>
<path d="M102.878 181.1C102.279 181.686 101.395 182.189 100.969 182.472C100.248 182.951 99.4656 183.362 98.6417 183.699C96.6193 184.525 94.3815 184.871 92.1465 184.816C91.4924 184.799 90.997 184.267 91.1807 183.73C91.4518 182.936 92.1595 182.192 92.7962 181.705C94.4594 180.43 97.1771 179.477 99.3238 179.135C100.355 178.971 102.599 178.536 103.294 179.446C103.716 180 103.408 180.582 102.878 181.1Z" fill="#42A7F9"/>
<path d="M82.2649 182.033C81.0775 183.664 76.9865 188.679 71.1801 189.291C70.4127 189.372 69.7462 188.819 69.7938 188.158C69.912 186.515 70.3852 183.58 72.2172 181.988C72.6573 181.606 72.6719 180.982 72.2501 180.579C70.4944 178.905 70.1588 175.951 70.1174 174.305C70.1008 173.642 70.7924 173.12 71.5552 173.237C77.3267 174.115 81.1794 179.313 82.2892 180.997C82.5037 181.322 82.4945 181.718 82.2649 182.033Z" fill="#42A7F9"/>
<path d="M113.484 180.463C114.312 180.482 114.999 179.831 115.019 179.009C115.038 178.187 114.382 177.505 113.554 177.486C112.725 177.467 112.039 178.118 112.019 178.94C112 179.762 112.656 180.444 113.484 180.463Z" fill="#6D5050"/>
</g>
</g>
<defs>
<filter id="filter0_d" x="0" y="0" width="230" height="230" filterUnits="userSpaceOnUse" color-interpolation-filters="sRGB">
<feFlood flood-opacity="0" result="BackgroundImageFix"/>
<feColorMatrix in="SourceAlpha" type="matrix" values="0 0 0 0 0 0 0 0 0 0 0 0 0 0 0 0 0 0 127 0"/>
<feOffset dy="4"/>
<feGaussianBlur stdDeviation="2"/>
<feColorMatrix type="matrix" values="0 0 0 0 0 0 0 0 0 0 0 0 0 0 0 0 0 0 0.25 0"/>
<feBlend mode="normal" in2="BackgroundImageFix" result="effect1_dropShadow"/>
<feBlend mode="normal" in="SourceGraphic" in2="effect1_dropShadow" result="shape"/>
</filter>
</defs>
</svg>
