<svg width="230" height="222" viewBox="0 0 230 222" fill="none" xmlns="http://www.w3.org/2000/svg">
<g filter="url(#filter0_d)">
<path d="M214.871 45.4506H219.245C220.479 45.4506 221.479 44.4507 221.479 43.2172V29.8781C221.479 28.6445 220.479 27.6447 219.245 27.6447H10.7541C9.52052 27.6447 8.52065 28.6445 8.52065 29.8781V43.2172C8.52065 44.4507 9.52052 45.4506 10.7541 45.4506H15.1382C8.00294 60.1087 4 76.554 4 93.9524C4 137.585 29.1749 175.337 65.7914 193.476C66.9526 194.051 68.2282 194.358 69.5238 194.357L160.653 194.276C161.949 194.275 163.224 193.966 164.384 193.389C200.905 175.217 226 137.515 226 93.9524C226 76.5614 222 60.1039 214.871 45.4506Z" fill="#C9EDF7"/>
<mask id="mask0" mask-type="alpha" maskUnits="userSpaceOnUse" x="4" y="28" width="222" height="167">
<path d="M214.871 45.806H219.245C220.479 45.806 221.479 44.8061 221.479 43.5725V30.2334C221.479 28.9999 220.479 28 219.245 28H10.7541C9.52052 28 8.52065 28.9999 8.52065 30.2334V43.5725C8.52065 44.8061 9.52052 45.806 10.7541 45.806H15.1382C8.00294 60.464 4 76.9094 4 94.3078C4 137.94 29.1749 175.692 65.7914 193.832C66.9526 194.407 68.2282 194.713 69.5238 194.712L160.653 194.631C161.949 194.63 163.224 194.322 164.384 193.745C200.905 175.572 226 137.87 226 94.3078C226 76.9167 222 60.4593 214.871 45.806Z" fill="#C9EDF7"/>
</mask>
<g mask="url(#mask0)">
<path d="M225.998 93.9545C225.998 137.516 200.908 175.216 164.382 193.388C163.225 193.968 161.947 194.276 160.652 194.276L69.5226 194.357C68.2274 194.357 66.9539 194.053 65.7928 193.477C29.1732 175.337 4.0022 137.587 4.0022 93.9545C4.0022 90.3544 4.17173 86.7985 4.51124 83.2877C55.3224 73.7153 107.602 69.0741 157.596 83.5244C175.182 88.6031 200.679 94.2849 225.998 93.9545Z" fill="#68C4FB"/>
<path d="M218.996 58.6314C218.996 102.192 193.905 139.893 157.379 158.064C156.223 158.645 154.945 158.953 153.65 158.953L62.5204 159.034C61.2252 159.034 59.9517 158.73 58.7906 158.154C22.171 140.013 -3 102.264 -3 58.6314C-3 55.0313 -2.83046 51.4754 -2.49096 47.9646C48.3202 38.3921 100.6 33.7509 150.594 48.2013C168.18 53.28 193.677 58.9618 218.996 58.6314Z" fill="#68C4FB"/>
<path d="M225.998 93.9541C225.998 137.513 200.906 175.215 164.388 193.389C163.226 193.968 161.947 194.276 160.65 194.276H137.5C175.008 176.463 200.939 138.235 200.939 93.9545C200.939 76.7296 197.018 60.4247 190.015 45.8811C189.879 45.5984 189.805 45.2906 189.801 44.9767L189.578 27.6433H219.244C220.477 27.6433 221.477 28.6432 221.477 29.8768V43.2193C221.477 44.4529 220.477 45.4527 219.244 45.4527H214.87C222 60.1039 225.998 76.5601 225.998 93.9541Z" fill="#AEE1ED"/>
<path d="M252.312 58.4322C257.058 101.734 236.224 141.943 201.895 163.986C200.808 164.689 199.572 165.135 198.284 165.276L107.706 175.283C106.419 175.424 105.12 175.261 103.903 174.815C65.5249 160.772 36.3913 125.989 31.638 82.6161C31.2458 79.0374 31.027 75.4842 30.982 71.9573C80.4479 56.9066 131.911 46.5976 183.182 55.5157C201.216 58.6484 227.181 61.5188 252.312 58.4322Z" fill="#68C4FB"/>
<path d="M225.998 93.9541C225.998 137.511 200.908 175.216 164.386 193.387C163.224 193.968 161.947 194.276 160.647 194.276H137.5C175.008 176.462 200.938 138.234 200.938 93.9541C200.938 93.4763 200.934 92.998 200.925 92.5245C209.104 93.5075 217.56 94.066 225.998 93.9541Z" fill="#42A7F9"/>
<path d="M220.849 56.9597C233.025 99.9142 219.425 143.941 189.368 171.82C188.412 172.71 187.269 173.362 186.019 173.717L163.749 180.029C194.856 152.233 209.117 107.462 196.739 63.7937C196.606 63.3225 196.468 62.852 196.327 62.3875C204.471 61.1263 212.762 59.3712 220.849 56.9597Z" fill="#42A7F9"/>
<path d="M221.543 57.4099C233.719 100.364 220.12 144.391 190.062 172.271C189.107 173.16 187.964 173.812 186.713 174.167L164.443 180.479C195.55 152.683 209.812 107.912 197.434 64.2439C197.3 63.7727 197.162 63.3022 197.021 62.8377C205.165 61.5765 213.456 59.8214 221.543 57.4099Z" fill="#42A7F9"/>
<path d="M163.66 159.501C159.963 150.568 159.386 143.277 162.038 138.969C163.162 137.149 162.467 134.828 160.491 133.784C158.516 132.741 156.002 133.373 154.878 135.193C149.888 143.285 152.714 154.341 155.969 162.195C159.948 171.798 157.868 182.373 150.537 189.784C149.902 190.423 149.357 190.928 148.976 191.269C147.451 190.22 137.575 182.42 143.088 159.759C146.438 146.212 149.121 133.988 147.963 121.59C147.688 118.7 146.997 115.502 146.261 112.12C143.665 100.136 142.354 91.3084 149.208 86.8011C151.059 85.5862 151.486 83.2139 150.157 81.5012C148.834 79.7886 146.261 79.3907 144.415 80.6058C132.705 88.3022 135.743 102.318 138.185 113.584C138.871 116.752 139.523 119.747 139.753 122.215C140.815 133.521 138.25 145.129 135.051 158.056C130.283 177.653 135.766 188.537 140.229 193.782L147.026 193.931L147.372 193.939L157.359 194.155C166.205 184.66 168.624 171.482 163.66 159.501Z" fill="#94E061"/>
<path d="M118.081 172.425C120.515 165.845 120.5 160.681 118.039 157.88C116.996 156.697 117.41 155.01 118.96 154.112C120.51 153.214 122.613 153.446 123.655 154.629C128.287 159.888 126.71 167.885 124.566 173.669C121.946 180.742 124.358 187.989 130.863 192.574C131.427 192.97 131.907 193.278 132.242 193.485C133.422 192.622 140.996 186.318 134.963 170.878C131.311 161.653 128.294 153.3 128.415 144.502C128.447 142.451 128.8 140.149 129.177 137.714C130.504 129.086 130.988 122.781 125.069 120.193C123.47 119.496 122.961 117.867 123.936 116.554C124.907 115.241 126.989 114.745 128.583 115.443C138.697 119.861 137.143 129.952 135.895 138.063C135.544 140.344 135.21 142.5 135.186 144.252C135.072 152.275 137.95 160.206 141.436 169.009C146.654 182.361 142.888 190.459 139.58 194.514L134.018 195.19L133.735 195.224L125.563 196.215C117.678 190.294 114.814 181.25 118.081 172.425Z" fill="#94E061"/>
<path d="M92.0459 58.074L79.5838 65.071C79.5838 65.071 79.5838 65.071 61.9341 74.941C62.7439 60.4547 73.9637 50.7755 79.8683 46.6629C81.9391 45.2141 84.6808 45.2073 86.9087 46.6395L95.6371 52.2527L92.0459 58.074Z" fill="#42A7F9"/>
<path d="M53.7981 101.518C53.2993 92.8334 55.6982 84.3266 60.4283 77.1013C64.1047 71.485 68.9767 66.7193 74.3827 62.8352C75.6105 61.9529 76.8689 61.115 78.1575 60.3278C83.4654 57.0856 89.0557 54.2479 95.0205 52.433C103.404 49.8817 112.466 49.2331 120.933 51.7752C121.225 51.8632 124.37 52.9085 124.343 52.9831C124.816 51.702 125.72 50.5784 126.992 49.8671C129.821 48.2853 133.376 49.3333 134.932 52.2077C135.775 53.7642 135.853 55.5353 135.304 57.0853C136.886 57.4429 138.317 58.4578 139.16 60.0147C140.716 62.8892 139.685 66.5017 136.856 68.0835C135.584 68.7948 134.166 68.97 132.848 68.6907C128.734 91.5294 105.529 102.439 105.529 102.439C105.529 102.439 78.1665 120.373 54.7514 103.278C54.1904 102.869 53.8381 102.219 53.7981 101.518Z" fill="#F5CA26"/>
<path d="M95.5997 76.7765C95.2323 78.6766 94.2525 80.7028 93.83 81.7665C93.1146 83.5677 92.2044 85.2883 91.1296 86.894C88.4914 90.8349 84.8808 93.9767 80.7869 96.2555C79.5887 96.9222 78.048 96.3111 77.7254 94.9624C77.2481 92.9694 77.6179 90.6156 78.1717 88.887C79.6177 84.371 83.3539 79.4118 86.8056 76.3768C88.4638 74.9189 91.9772 71.5793 94.3364 72.7854C95.7708 73.5192 95.9238 75.0992 95.5997 76.7765Z" fill="#42A7F9"/>
<path d="M59.5981 100.886C59.4435 105.657 58.1753 120.799 48.4594 128.339C47.1752 129.335 45.3019 128.865 44.5824 127.395C42.7972 123.747 40.0783 116.946 41.4413 111.566C41.7689 110.274 41.0355 108.92 39.7863 108.51C34.5852 106.801 30.3864 100.827 28.3092 97.3428C27.4722 95.9384 28.0837 94.0785 29.5993 93.5094C41.0665 89.2035 54.3324 96.2175 58.3809 98.6382C59.1626 99.1046 59.6283 99.9646 59.5981 100.886Z" fill="#42A7F9"/>
<path d="M114.464 64.2525C116.213 63.2743 116.851 61.0403 115.889 59.2627C114.926 57.4851 112.728 56.8371 110.978 57.8153C109.229 58.7935 108.592 61.0274 109.554 62.805C110.517 64.5826 112.715 65.2307 114.464 64.2525Z" fill="#6D5050"/>
<path d="M197.435 66.1666L195.115 59.1666C206.511 61.347 213.277 61.0927 224.115 59.1666L197.435 66.1666Z" fill="#42A7F9"/>
<path d="M196.066 62.1942L194.562 56.9592C204.886 59.8594 211.157 60.4841 221.341 60.4089L196.066 62.1942Z" fill="#42A7F9"/>
<path d="M197.184 62.1202L195 57.1307C205.617 58.6367 211.916 58.4246 222 57L197.184 62.1202Z" fill="#42A7F9"/>
<path d="M200.79 65.0234L197.783 60.4819C208.501 60.1465 214.67 58.8583 224.361 55.7269L200.79 65.0234Z" fill="#42A7F9"/>
</g>
</g>
<defs>
<filter id="filter0_d" x="0" y="0" width="230" height="230" filterUnits="userSpaceOnUse" color-interpolation-filters="sRGB">
<feFlood flood-opacity="0" result="BackgroundImageFix"/>
<feColorMatrix in="SourceAlpha" type="matrix" values="0 0 0 0 0 0 0 0 0 0 0 0 0 0 0 0 0 0 127 0"/>
<feOffset dy="4"/>
<feGaussianBlur stdDeviation="2"/>
<feColorMatrix type="matrix" values="0 0 0 0 0 0 0 0 0 0 0 0 0 0 0 0 0 0 0.25 0"/>
<feBlend mode="normal" in2="BackgroundImageFix" result="effect1_dropShadow"/>
<feBlend mode="normal" in="SourceGraphic" in2="effect1_dropShadow" result="shape"/>
</filter>
</defs>
</svg>
