<svg width="230" height="222" viewBox="0 0 230 222" fill="none" xmlns="http://www.w3.org/2000/svg">
<g filter="url(#filter0_d)">
<path d="M214.871 45.4506H219.245C220.479 45.4506 221.479 44.4507 221.479 43.2172V29.8781C221.479 28.6445 220.479 27.6447 219.245 27.6447H10.7541C9.52052 27.6447 8.52065 28.6445 8.52065 29.8781V43.2172C8.52065 44.4507 9.52052 45.4506 10.7541 45.4506H15.1382C8.00294 60.1087 4 76.554 4 93.9524C4 137.585 29.1749 175.337 65.7914 193.476C66.9526 194.051 68.2282 194.358 69.5238 194.357L160.653 194.276C161.949 194.275 163.224 193.966 164.384 193.389C200.905 175.217 226 137.515 226 93.9524C226 76.5614 222 60.1039 214.871 45.4506Z" fill="#C9EDF7"/>
<path d="M214.871 45.4506H219.245C220.479 45.4506 221.479 44.4507 221.479 43.2172V29.8781C221.479 28.6445 220.479 27.6447 219.245 27.6447H10.7541C9.52052 27.6447 8.52065 28.6445 8.52065 29.8781V43.2172C8.52065 44.4507 9.52052 45.4506 10.7541 45.4506H15.1382C8.00294 60.1087 4 76.554 4 93.9524C4 137.585 29.1749 175.337 65.7914 193.476C66.9526 194.051 68.2282 194.358 69.5238 194.357L160.653 194.276C161.949 194.275 163.224 193.966 164.384 193.389C200.905 175.217 226 137.515 226 93.9524C226 76.5614 222 60.1039 214.871 45.4506Z" fill="#C9EDF7"/>
<path d="M225.998 93.9545C225.998 137.516 200.908 175.216 164.382 193.388C163.225 193.968 161.947 194.276 160.652 194.276L69.5226 194.357C68.2274 194.357 66.9539 194.053 65.7928 193.477C29.1732 175.337 4.0022 137.587 4.0022 93.9545C4.0022 90.3544 4.17173 86.7985 4.51124 83.2877C55.3224 73.7153 107.602 69.0741 157.596 83.5244C175.182 88.6031 200.679 94.2849 225.998 93.9545Z" fill="#68C4FB"/>
<path d="M225.998 93.9541C225.998 137.513 200.906 175.215 164.388 193.389C163.226 193.968 161.947 194.276 160.65 194.276H137.5C175.008 176.463 200.939 138.235 200.939 93.9545C200.939 76.7296 197.018 60.4247 190.015 45.8811C189.879 45.5984 189.805 45.2906 189.801 44.9767L189.578 27.6433H219.244C220.477 27.6433 221.477 28.6432 221.477 29.8768V43.2193C221.477 44.4529 220.477 45.4527 219.244 45.4527H214.87C222 60.1039 225.998 76.5601 225.998 93.9541Z" fill="#AEE1ED"/>
<path d="M225.998 93.9541C225.998 137.511 200.908 175.216 164.386 193.387C163.224 193.968 161.947 194.276 160.647 194.276H137.5C175.008 176.462 200.938 138.234 200.938 93.9541C200.938 93.4763 200.934 92.998 200.925 92.5245C209.104 93.5075 217.56 94.066 225.998 93.9541Z" fill="#42A7F9"/>
<path d="M164.646 164.504C161.568 156.933 160.983 150.707 162.999 146.969C163.853 145.391 163.263 143.418 161.685 142.564C160.107 141.71 158.134 142.299 157.28 143.878C153.486 150.898 155.914 160.302 158.624 166.958C161.937 175.096 160.484 184.185 154.83 190.667C154.34 191.226 153.919 191.668 153.625 191.968C152.402 191.1 144.467 184.618 148.413 165.124C150.815 153.469 152.714 142.958 151.578 132.374C151.309 129.907 150.706 127.184 150.065 124.305C147.801 114.103 146.609 106.576 151.938 102.587C153.377 101.511 153.672 99.4733 152.593 98.0338C151.517 96.5943 149.479 96.3037 148.044 97.3791C138.939 104.191 141.588 116.123 143.717 125.714C144.315 128.411 144.883 130.961 145.109 133.068C146.149 142.72 144.333 152.701 142.039 163.823C138.626 180.681 143.149 189.886 146.765 194.287L152.133 194.283H152.406L160.293 194.274C167.105 185.98 168.779 174.658 164.646 164.504Z" fill="#94E061"/>
<path d="M145.884 182.399C144.348 179.45 144.056 177.025 145.062 175.569C145.488 174.954 145.194 174.186 144.406 173.853C143.619 173.52 142.634 173.75 142.208 174.365C140.315 177.099 141.527 180.762 142.879 183.355C144.532 186.525 143.807 190.065 140.986 192.59C140.741 192.808 140.531 192.98 140.384 193.096C139.774 192.759 135.815 190.234 137.784 182.64C138.982 178.101 139.93 174.007 139.363 169.884C139.229 168.923 138.928 167.862 138.608 166.741C137.479 162.767 136.884 159.835 139.543 158.281C140.261 157.862 140.408 157.068 139.869 156.508C139.333 155.947 138.316 155.834 137.6 156.253C133.057 158.906 134.379 163.554 135.441 167.29C135.739 168.34 136.023 169.333 136.135 170.154C136.655 173.914 135.748 177.802 134.604 182.134C132.901 188.7 135.157 192.286 136.962 194L139.64 193.998H139.776L143.712 193.995C147.111 190.764 147.946 186.354 145.884 182.399Z" fill="#94E061"/>
<path d="M96.7167 98.7492L83.9092 98.7709C83.9092 98.7709 83.9092 98.7709 65.7871 98.7709C72.6075 87.8877 85.5807 85.2471 91.9892 84.6184C94.2395 84.3929 96.4032 85.5766 97.5479 87.6535L102.031 95.7921L96.7167 98.7492Z" fill="#42A7F9"/>
<path d="M48.0332 115.854C51.3463 108.902 56.8672 103.345 63.6785 99.7933C68.9727 97.0322 74.8462 95.4491 80.7643 94.7814C82.1084 94.6296 83.4578 94.5256 84.8093 94.474C90.3762 94.2615 95.993 94.4852 101.468 95.6646C109.164 97.3218 116.583 100.749 122.171 106.392C122.364 106.587 124.396 108.762 124.343 108.808C125.262 108.019 126.455 107.54 127.761 107.54C130.665 107.54 133.019 109.895 133.019 112.799C133.019 114.372 132.325 115.779 131.231 116.743C132.325 117.706 133.019 119.114 133.019 120.687C133.019 123.591 130.665 125.946 127.761 125.946C126.455 125.946 125.262 125.466 124.343 124.678C111.353 140.606 88.4094 139.003 88.4094 139.003C88.4094 139.003 59.1917 141.044 48.0332 117.632C47.7656 117.072 47.7656 116.414 48.0332 115.854Z" fill="#F5CA26"/>
<path d="M91.5361 114.795C90.4356 116.109 88.7988 117.256 88.0118 117.897C86.6794 118.984 85.2277 119.923 83.6954 120.703C79.9344 122.615 75.7481 123.485 71.5491 123.477C70.3203 123.475 69.3669 122.333 69.6881 121.147C70.1625 119.394 71.4585 117.729 72.6327 116.629C75.6995 113.753 80.7604 111.528 84.7759 110.671C86.705 110.26 90.8991 109.193 92.2437 111.152C93.061 112.343 92.5073 113.635 91.5361 114.795Z" fill="#42A7F9"/>
<path d="M52.8738 117.879C50.7158 121.512 43.2545 132.705 32.3795 134.339C30.9421 134.555 29.6665 133.377 29.7268 131.925C29.8768 128.322 30.6365 121.868 34.0064 118.287C34.8159 117.428 34.8159 116.059 34.0064 115.199C30.6365 111.619 29.8768 105.165 29.7268 101.562C29.6665 100.109 30.9421 98.9323 32.3795 99.1482C43.2545 100.782 50.7162 111.975 52.8738 115.608C53.2909 116.309 53.2909 117.177 52.8738 117.879Z" fill="#42A7F9"/>
<path d="M111.748 113.263C113.544 113.263 115 111.807 115 110.011C115 108.215 113.544 106.759 111.748 106.759C109.952 106.759 108.496 108.215 108.496 110.011C108.496 111.807 109.952 113.263 111.748 113.263Z" fill="#6D5050"/>
</g>
<defs>
<filter id="filter0_d" x="0" y="0" width="230" height="230" filterUnits="userSpaceOnUse" color-interpolation-filters="sRGB">
<feFlood flood-opacity="0" result="BackgroundImageFix"/>
<feColorMatrix in="SourceAlpha" type="matrix" values="0 0 0 0 0 0 0 0 0 0 0 0 0 0 0 0 0 0 127 0"/>
<feOffset dy="4"/>
<feGaussianBlur stdDeviation="2"/>
<feColorMatrix type="matrix" values="0 0 0 0 0 0 0 0 0 0 0 0 0 0 0 0 0 0 0.25 0"/>
<feBlend mode="normal" in2="BackgroundImageFix" result="effect1_dropShadow"/>
<feBlend mode="normal" in="SourceGraphic" in2="effect1_dropShadow" result="shape"/>
</filter>
</defs>
</svg>
