<svg width="234" height="222" viewBox="0 0 234 222" fill="none" xmlns="http://www.w3.org/2000/svg">
<g filter="url(#filter0_d)">
<path d="M216.871 45.4506H221.245C222.479 45.4506 223.479 44.4507 223.479 43.2171V29.8781C223.479 28.6445 222.479 27.6446 221.245 27.6446H12.7541C11.5205 27.6446 10.5206 28.6445 10.5206 29.8781V43.2171C10.5206 44.4507 11.5205 45.4506 12.7541 45.4506H17.1382C10.0029 60.1087 6 76.554 6 93.9524C6 137.584 31.1749 175.337 67.7914 193.476C68.9526 194.051 70.2282 194.358 71.5238 194.357L162.653 194.276C163.949 194.275 165.224 193.966 166.384 193.389C202.905 175.217 228 137.515 228 93.9524C228 76.5614 224 60.1039 216.871 45.4506Z" fill="#C9EDF7"/>
<path d="M216.871 45.4506H221.245C222.479 45.4506 223.479 44.4507 223.479 43.2171V29.8781C223.479 28.6445 222.479 27.6446 221.245 27.6446H12.7541C11.5205 27.6446 10.5206 28.6445 10.5206 29.8781V43.2171C10.5206 44.4507 11.5205 45.4506 12.7541 45.4506H17.1382C10.0029 60.1087 6 76.554 6 93.9524C6 137.584 31.1749 175.337 67.7914 193.476C68.9526 194.051 70.2282 194.358 71.5238 194.357L162.653 194.276C163.949 194.275 165.224 193.966 166.384 193.389C202.905 175.217 228 137.515 228 93.9524C228 76.5614 224 60.1039 216.871 45.4506Z" fill="#C9EDF7"/>
<path d="M227.998 93.9541C227.998 137.513 202.906 175.215 166.388 193.389C165.226 193.968 163.947 194.276 162.65 194.276H139.5C177.009 176.463 202.939 138.235 202.939 93.9546C202.939 76.7296 199.018 60.4248 192.015 45.8812C191.879 45.5985 191.805 45.2906 191.802 44.9767L191.578 27.6433H221.244C222.477 27.6433 223.477 28.6432 223.477 29.8768V43.2193C223.477 44.4529 222.477 45.4528 221.244 45.4528H216.871C224 60.1039 227.998 76.5601 227.998 93.9541Z" fill="#AEE1ED"/>
<path d="M139.509 188.627C138.266 187.207 138.078 186.086 138.98 185.471C139.362 185.211 139.129 184.846 138.462 184.656C137.794 184.465 136.943 184.522 136.561 184.782C134.864 185.937 135.809 187.667 136.903 188.916C138.24 190.444 137.525 192.024 135.037 193.038C134.821 193.125 134.636 193.193 134.507 193.239C133.992 193.055 130.657 191.71 132.545 188.341C133.693 186.328 134.613 184.507 134.234 182.598C134.143 182.153 133.913 181.654 133.667 181.127C132.8 179.258 132.365 177.891 134.69 177.312C135.317 177.156 135.464 176.801 135.016 176.519C134.57 176.237 133.7 176.135 133.074 176.292C129.103 177.28 130.117 179.465 130.932 181.222C131.161 181.716 131.379 182.183 131.454 182.563C131.802 184.304 130.923 186.034 129.827 187.954C128.194 190.867 130.039 192.614 131.544 193.484L133.844 193.615L133.961 193.621L137.341 193.812C140.345 192.504 141.177 190.533 139.509 188.627Z" fill="#94E061"/>
<path d="M216.871 45.4506H221.245C222.479 45.4506 223.479 44.4507 223.479 43.2172V29.8781C223.479 28.6445 222.479 27.6447 221.245 27.6447H12.7541C11.5205 27.6447 10.5206 28.6445 10.5206 29.8781V43.2172C10.5206 44.4507 11.5205 45.4506 12.7541 45.4506H17.1382C10.0029 60.1087 6 76.554 6 93.9524C6 137.585 31.1749 175.337 67.7914 193.476C68.9526 194.051 70.2282 194.358 71.5238 194.357L162.653 194.276C163.949 194.275 165.224 193.966 166.384 193.389C202.905 175.217 228 137.515 228 93.9524C228 76.5614 224 60.1039 216.871 45.4506Z" fill="#C9EDF7"/>
<path d="M216.871 45.4506H221.245C222.479 45.4506 223.479 44.4507 223.479 43.2172V29.8781C223.479 28.6445 222.479 27.6447 221.245 27.6447H12.7541C11.5205 27.6447 10.5206 28.6445 10.5206 29.8781V43.2172C10.5206 44.4507 11.5205 45.4506 12.7541 45.4506H17.1382C10.0029 60.1087 6 76.554 6 93.9524C6 137.585 31.1749 175.337 67.7914 193.476C68.9526 194.051 70.2282 194.358 71.5238 194.357L162.653 194.276C163.949 194.275 165.224 193.966 166.384 193.389C202.905 175.217 228 137.515 228 93.9524C228 76.5614 224 60.1039 216.871 45.4506Z" fill="#C9EDF7"/>
<path d="M227.998 93.9541C227.998 137.513 202.906 175.215 166.388 193.389C165.226 193.968 163.947 194.276 162.65 194.276H139.5C177.009 176.463 202.939 138.235 202.939 93.9545C202.939 76.7296 199.018 60.4247 192.015 45.8811C191.879 45.5984 191.805 45.2906 191.802 44.9767L191.578 27.6433H221.244C222.477 27.6433 223.477 28.6432 223.477 29.8768V43.2193C223.477 44.4529 222.477 45.4527 221.244 45.4527H216.871C224 60.1039 227.998 76.5601 227.998 93.9541Z" fill="#AEE1ED"/>
<path d="M139.509 188.627C138.266 187.207 138.078 186.086 138.98 185.471C139.362 185.211 139.129 184.846 138.462 184.656C137.794 184.465 136.943 184.522 136.561 184.782C134.864 185.937 135.809 187.667 136.903 188.916C138.24 190.444 137.525 192.024 135.037 193.038C134.821 193.125 134.636 193.193 134.507 193.239C133.992 193.055 130.657 191.71 132.545 188.341C133.693 186.328 134.613 184.507 134.234 182.598C134.143 182.153 133.913 181.654 133.667 181.127C132.8 179.258 132.365 177.891 134.69 177.312C135.317 177.156 135.464 176.801 135.016 176.519C134.57 176.237 133.7 176.135 133.074 176.292C129.103 177.28 130.117 179.465 130.932 181.222C131.161 181.716 131.379 182.183 131.454 182.563C131.802 184.304 130.923 186.034 129.827 187.954C128.194 190.867 130.039 192.614 131.544 193.484L133.844 193.615L133.961 193.621L137.341 193.812C140.345 192.504 141.177 190.533 139.509 188.627Z" fill="#94E061"/>
<path d="M72.1159 171.777L79.5278 173.283C79.5278 173.283 79.5278 173.283 90.013 175.426C85.2121 178.801 77.4987 178.281 73.7415 177.765C72.4218 177.586 71.2629 176.875 70.7637 175.942L68.8088 172.284L72.1159 171.777Z" fill="#42A7F9"/>
<path d="M101.627 170.962C99.1639 173.241 95.5332 174.723 91.3133 175.282C88.0334 175.717 84.5108 175.631 81.0342 175.188C80.2446 175.087 79.4557 174.967 78.6697 174.827C75.4321 174.251 72.1999 173.501 69.1245 172.4C64.8019 170.853 60.7787 168.659 57.9889 165.83C57.8926 165.732 56.8875 164.656 56.922 164.645C56.328 164.839 55.6005 164.882 54.8448 164.728C53.1645 164.384 51.9872 163.201 52.2152 162.085C52.3387 161.481 52.8509 161.023 53.5598 160.782C53.0023 160.282 52.7111 159.659 52.8347 159.055C53.0627 157.939 54.6099 157.313 56.2902 157.656C57.0458 157.811 57.6981 158.136 58.1683 158.547C66.9344 153.963 80.0836 157.293 80.0836 157.293C80.0836 157.293 97.1487 159.963 101.766 170.278C101.877 170.525 101.825 170.778 101.627 170.962Z" fill="#F5CA26"/>
<path d="M76.3701 166.238C77.1095 165.86 78.1464 165.609 78.652 165.454C79.508 165.191 80.4217 164.998 81.3695 164.877C83.696 164.58 86.1877 164.735 88.6184 165.231C89.3297 165.376 89.793 165.928 89.5147 166.348C89.1038 166.969 88.2238 167.46 87.4584 167.747C85.459 168.497 82.3555 168.762 79.9637 168.622C78.8147 168.555 76.3033 168.474 75.677 167.561C75.2964 167.005 75.7175 166.572 76.3701 166.238Z" fill="#42A7F9"/>
<path d="M98.9744 169.622C100.508 168.477 105.704 165.043 112.133 165.689C112.983 165.775 113.63 166.377 113.482 166.929C113.114 168.298 112.171 170.693 109.939 171.677C109.403 171.913 109.296 172.439 109.698 172.865C111.372 174.639 111.309 177.212 111.115 178.616C111.036 179.182 110.205 179.486 109.389 179.234C103.215 177.331 99.7642 172.148 98.7973 170.496C98.6102 170.178 98.678 169.843 98.9744 169.622Z" fill="#42A7F9"/>
<path d="M64.5588 164.422C63.5197 164.21 62.5629 164.597 62.4219 165.287C62.2808 165.977 63.0089 166.709 64.048 166.921C65.0872 167.134 66.0439 166.746 66.1849 166.056C66.326 165.366 65.5979 164.635 64.5588 164.422Z" fill="#6D5050"/>
</g>
<defs>
<filter id="filter0_d" x="0" y="0" width="234" height="234" filterUnits="userSpaceOnUse" color-interpolation-filters="sRGB">
<feFlood flood-opacity="0" result="BackgroundImageFix"/>
<feColorMatrix in="SourceAlpha" type="matrix" values="0 0 0 0 0 0 0 0 0 0 0 0 0 0 0 0 0 0 127 0"/>
<feOffset dy="6"/>
<feGaussianBlur stdDeviation="3"/>
<feColorMatrix type="matrix" values="0 0 0 0 0 0 0 0 0 0 0 0 0 0 0 0 0 0 0.25 0"/>
<feBlend mode="normal" in2="BackgroundImageFix" result="effect1_dropShadow"/>
<feBlend mode="normal" in="SourceGraphic" in2="effect1_dropShadow" result="shape"/>
</filter>
</defs>
</svg>
