<svg width="177" height="455" viewBox="0 0 177 455" fill="none" xmlns="http://www.w3.org/2000/svg">
<path d="M79.1 2.70001C76.1 4.30001 73.4 6.2 73 7C72.6 7.8 71.5 10 70.6 11.7C69.1 14.5 69 16 69.9 22.6C70.9 29.1 70.8 30.4 69.4 31.7C68.2 32.9 68 34.4 68.5 38.4C69.4 44.6 69.7 45.3 72 44.7C74.2 44.1 75 48 75 59.7C75 66.9 74.7 68.2 72.8 70C69.8 72.8 60.8 77.3 49.8 81.5C36.5 86.7 35.1 87.6 32.7 92.8C30.8 96.9 30.5 99.6 30.3 112.5C29.5 161.4 29.8 156.7 26.1 165C23.2 171.4 22.4 175.1 20.4 190.5C19.1 200.4 17.3 211.4 16.4 215C15.5 218.6 14.4 224.1 14 227.3C13.3 231.9 12.2 234.3 9.09999 238.4C5.39999 243.1 -0.400009 257.3 0.799992 258.5C1.09999 258.7 2.09999 258.5 3.09999 257.9C5.39999 256.7 5.49999 258.2 3.89999 267.9C3.19999 272.5 3.19999 274.6 3.99999 275.4C5.39999 276.8 7.99999 273.6 7.99999 270.4C7.99999 269.1 8.39999 267.8 8.99999 267.5C9.59999 267.1 9.69999 269.4 9.29999 273.6C8.69999 279.7 8.79999 280.2 10.6 279.8C12.1 279.6 12.8 277.8 14.1 272C16.4 261.1 16.9 260.6 16.8 269.4C16.6 282.9 20.3 280 21.7 265.7C22.2 260.4 22.6 259.1 23.1 261C23.5 262.4 23.8 265.2 23.9 267.2C24 269.8 24.5 271 25.4 271C27.3 271 28.3 266 27.6 260.2C27.3 257.6 27.3 253.2 27.8 250.5C28.2 247.7 28.2 242.9 27.8 239.6C27.1 234.4 27.3 232.8 30.5 224.1C32.5 218.8 36.1 209.8 38.6 204C44.8 189.3 46.1 184.3 47.1 170C48 156.6 50.2 142.9 51.2 144.5C52.4 146.4 54.8 157.5 55.4 163.6C55.7 167.6 55.4 171.6 54.5 175.1C49.7 192.4 46.8 208.6 43.5 236.5C40.7 259.7 40.4 275.7 42.5 292.5C44.4 307.8 44.4 324 42.6 331.1C38.3 347.4 38.2 362.6 42.1 388.5C43.7 399.1 44.1 405.3 43.7 414.1C43.2 425.6 43.2 425.7 39.3 431.3C37.2 434.4 33.3 438.5 30.7 440.5C24 445.6 23.3 447.4 26.5 450.6C28.3 452.4 29.8 453 31.3 452.6C32.4 452.3 33.9 452.5 34.6 453.1C36.2 454.4 43 453.2 43.7 451.4C44 450.6 44.8 450 45.5 450C46.1 450 47.5 448.3 48.4 446.1C49.6 443.7 51.3 441.8 53.3 440.9C56.4 439.5 56.5 439.3 57.3 431C58.1 422 58.2 420.1 57.9 410.5C57.9 407.2 58.7 400.2 59.8 395C61 389.8 62.8 381.2 64 376C65.8 367.7 66 364.5 65.4 350.5C64.8 335 64.9 334.3 67.4 327.7C68.8 324 70.7 316.3 71.5 310.7C72.4 305.1 74 297.1 75.1 293C78.6 280.1 87.1 253.8 87.6 254.3C87.9 254.5 89.1 258.1 90.5 262.1C91.8 266.2 94.5 274.2 96.5 279.9C100.4 291.2 103.2 302.3 104.9 313.9C105.6 317.9 107.7 325.1 109.6 329.9C112.3 336.3 113 339.3 112.6 342C112.3 343.9 112.5 351.4 112.9 358.5C113.7 369.6 114.4 373.2 117.8 383.5C122 396.1 124 407.9 123.9 419.5C123.8 423.3 124.1 429.8 124.5 433.8C125.1 440.3 125.5 441.2 127.6 442C129.2 442.7 130 443.7 130 445.4C130 446.8 131.4 449.5 133.2 451.5C136.2 455 136.4 455.1 141.9 454.5C149 453.7 155 451.2 155 449.1C155 448.2 152.7 445.2 150 442.5C137.6 430.3 136.8 425.3 138 370.5C138.4 351.3 138.2 348.8 136.2 340.7C135 335.9 133.5 326.6 132.9 319.9C131.9 309.2 131.9 306.7 133.6 297.7C136.4 282.1 135.9 261.7 132.1 235.2C130.4 223.5 128.6 212 128.1 209.7C123.7 190 122.1 160.2 124.9 151L126.3 146.5L127.6 152.5C128.3 155.8 128.9 162.8 128.9 168.1C129 179.7 132.2 193 138 206.5C140.2 211.4 142.4 217.7 143 220.4C143.6 223.1 144.6 226.2 145.2 227.4C145.9 228.7 146.4 235.5 146.6 244.5C146.8 263 147.7 271 149.6 271C150.6 271 151 269.6 151.1 266.2C151.2 257.7 152.6 257.4 152.8 265.9C153 274 154.2 278.6 156.1 277.5C156.6 277.1 157.1 275 157.1 272.7L157.2 268.5L158 273.2C159.1 279.3 159.8 280.4 161.6 278.9C162.5 278.1 163 275.3 163.2 270.1L163.3 262.5L163.9 268.7C164.6 275.4 165.4 277 167.3 275.1C168.1 274.2 168.4 270.4 168.2 261.9C168 255.4 168.2 250 168.5 250C168.9 250 170.3 251.3 171.7 253C173 254.6 175 256 176.1 256C179.3 256 171.3 241.3 166.1 237.7C163.2 235.7 161.8 233.9 161.1 231.2C158.8 221.6 155 197.2 154.1 185.5C153.4 175.9 152.3 170.1 150.1 163.3L147.1 154.2L148 129.8C149 104.7 148.3 94.9 145.4 90.2C143.9 87.8 131.3 81.2 119.1 76.4C115 74.8 110.2 72.1 108.4 70.4C105.2 67.5 105 66.8 105 60.9C105 54 107.5 46 109.6 46C110.4 46 111.1 45.2 111.1 44.2C111.7 38.1 111.6 14.3 111.1 13.5C110.8 12.9 110.5 11.6 110.5 10.5C110.6 8.2 108.8 6 106.9 6C106.2 6 105.9 5.69999 106.3 5.39999C107.8 3.89999 99.2 1 92.1 0.5C85.2 0 84 0.300012 79.1 2.70001Z" fill="white" fill-opacity="0.3"/>
</svg>
