<svg width="193" height="455" viewBox="0 0 193 455" fill="none" xmlns="http://www.w3.org/2000/svg">
<path d="M91.0875 0.690216C82.823 2.73413 78.2019 9.84338 78.2019 20.7739C78.2019 23.0844 77.9353 23.7065 76.8689 23.351C76.0692 22.9955 75.3582 23.4398 75.0028 24.2397C74.1141 26.4613 76.4246 33.5706 78.4685 34.9924C80.5124 36.4143 83.445 46.2784 83.5339 51.6992C83.5339 60.8524 76.5135 66.0955 62.6504 67.3396C53.675 68.2282 50.5647 70.0944 46.6546 77.2925C44.2552 81.7358 44.0775 82.98 43.4554 94.9769C42.6556 112.572 38.9232 129.19 33.3247 140.298C29.5035 147.852 27.1041 157.005 25.3268 170.068C23.7272 181.888 21.5055 191.752 18.8396 198.506C17.4177 202.238 16.4402 203.304 12.6189 205.437C9.50864 207.126 6.93153 209.614 4.08783 213.613C1.86618 216.723 0 219.478 0 219.744C0 220.011 0.977524 220.278 2.13278 220.278C3.55463 220.278 5.24308 219.122 7.10927 216.901L9.86411 213.613L9.33091 216.99C9.06431 218.945 7.37586 223.655 5.59855 227.565C3.55463 232.363 2.84371 235.029 3.3769 235.563C4.79875 236.984 6.04288 235.651 8.88658 230.053C11.6414 224.632 14.0408 221.966 12.8855 225.61C11.1971 231.03 8.88658 239.473 8.88658 240.45C8.88658 242.139 11.3748 241.872 12.2635 240.006C12.7078 239.206 14.0408 235.918 15.1072 232.719C17.6843 225.343 19.0173 223.832 18.3064 229.164C16.6179 242.228 16.6179 242.494 18.0398 242.494C18.8396 242.494 19.8171 241.25 20.3503 239.65C21.0612 237.162 23.1051 227.298 23.1051 225.699C23.1051 225.432 23.5494 225.787 23.9938 226.498C24.4381 227.209 24.8824 229.253 24.8824 230.942C24.8824 235.296 25.7711 238.14 27.0152 237.784C27.6373 237.607 28.2593 233.785 28.6148 228.187C30.1255 204.015 30.481 202.238 37.1459 184.198C40.5228 174.956 44.5218 164.559 46.0325 161.093C47.5432 157.716 49.4094 151.94 50.2092 148.296C52.4308 138.077 59.8067 117.549 60.6065 119.593C62.0284 123.236 65.0498 143.942 65.0498 150.518C65.1387 156.916 64.7832 158.338 61.9395 164.292C56.0743 176.556 52.7863 194.062 51.8976 218.056C51.3645 230.942 51.631 234.052 54.0304 250.936C58.5626 281.684 59.629 294.036 60.4288 323.362C61.1397 353.221 61.4063 355.354 68.871 390.9C71.2704 402.719 71.3593 417.738 69.0488 426.891C68.249 429.823 67.1826 435.422 66.5605 439.421C65.583 446.086 65.583 446.797 67.1826 448.929C69.2265 451.595 75.2694 455.15 75.9803 453.995C76.3357 453.462 77.2244 453.55 78.1131 454.173C80.3347 455.506 82.4675 454.528 83.6227 451.595C84.2448 450.174 84.778 442.887 84.9557 435.333C85.4889 414.005 85.4001 409.473 84.4225 404.497C83.3561 399.431 84.1559 386.634 86.7331 369.128C87.8883 361.397 88.066 356.509 87.444 345.578C86.6442 329.316 86.7331 323.54 87.8883 284.261C88.5992 259.556 89.0436 252.358 90.9097 242.05C92.065 235.207 93.4869 228.72 94.0201 227.654C94.6421 226.587 95.0864 223.743 95.0864 221.255C95.0864 217.789 95.4419 216.723 96.4194 216.723C97.3969 216.723 97.7524 217.789 97.7524 221.166C97.7524 223.566 98.3745 226.854 99.0854 228.453C102.285 235.563 104.24 253.514 104.862 283.372C105.306 300.257 105.928 313.853 106.55 316.164C107.439 319.363 107.35 322.651 106.195 332.782C104.417 347.8 104.684 357.131 107.528 380.503C109.394 396.232 109.483 398.72 108.416 405.385C107.172 413.65 107.172 414.983 108.239 435.777C108.683 444.575 109.394 451.684 110.016 452.928C111.171 454.972 115.526 455.772 115.526 453.817C115.526 453.017 115.792 453.017 116.503 453.728C117.214 454.439 118.369 454.261 120.769 452.928C125.745 450.174 127.078 448.574 127.078 445.641C127.078 442.442 124.945 430.09 123.524 424.58C121.657 417.826 121.746 402.008 123.701 393.122C126.278 381.214 131.255 353.843 131.966 348.244C132.232 345.578 132.588 332.782 132.854 319.807C133.21 295.547 134.543 280.44 139.075 249.603C143.874 217.878 140.497 184.109 130.455 162.959C128.411 158.516 127.967 156.472 127.967 150.429C127.967 144.386 131.61 119.415 132.677 118.349C133.388 117.727 141.208 140.743 142.63 147.674C143.429 151.496 145.118 156.916 146.362 159.671C147.606 162.426 151.783 173.357 155.693 183.843C162.091 201.349 162.713 203.66 163.069 210.947C163.335 215.301 163.869 220.367 164.402 222.055C164.846 223.743 165.113 227.565 164.846 230.497C164.313 236.274 165.379 239.65 167.068 237.162C167.512 236.451 167.956 234.23 168.045 232.275C168.045 230.32 168.401 227.92 168.845 226.943C169.467 225.254 169.556 225.343 170 227.387C170.267 228.631 170.8 231.208 171.067 233.163C171.867 237.962 173.822 242.494 175.155 242.494C176.132 242.494 175.777 233.074 174.444 227.387C173.377 222.766 175.865 227.031 178.354 234.052C180.042 238.851 181.375 241.25 182.442 241.428C184.485 241.872 184.397 239.917 181.731 231.386C180.575 227.565 179.776 224.188 179.953 224.01C180.131 223.832 181.464 225.61 182.975 227.92C187.507 235.296 188.484 236.54 189.462 235.563C189.995 235.029 189.373 232.541 187.596 228.542C185.108 222.855 182.797 214.946 183.419 214.235C183.597 214.146 184.752 215.39 186.085 217.167C187.685 219.211 189.195 220.278 190.706 220.278C193.372 220.278 193.372 219.3 190.795 216.101C189.64 214.768 188.04 212.457 187.151 211.124C186.352 209.703 183.775 207.481 181.464 206.059C179.154 204.637 176.843 203.038 176.221 202.505C174.532 201.083 170 185.975 168.845 178.066C165.468 154.517 163.691 147.763 158.359 137.188C154.004 128.568 148.584 102.442 149.561 94.3548C150.183 88.7563 148.05 79.6031 145.118 75.2486C141.119 69.3835 138.808 68.1394 130.366 67.4284C113.304 65.8289 107.261 58.8084 110.638 44.5899C112.86 35.5256 112.86 35.4367 114.193 35.4367C115.703 35.4367 118.458 28.4164 118.014 25.5726C117.836 24.1508 117.214 23.4398 116.148 23.5287C114.904 23.7065 114.637 22.9955 114.637 19.9741C114.637 5.66669 104.595 -2.50897 91.0875 0.690216Z" fill="white"/>
</svg>
