<svg width="177" height="455" viewBox="0 0 177 455" fill="none" xmlns="http://www.w3.org/2000/svg">
<path d="M78.4606 2.40491C75.4606 4.00491 72.7606 5.90491 72.3606 6.7049C71.9606 7.50488 70.8606 9.7049 69.9606 11.4049C68.4606 14.2049 68.3606 15.7049 69.2606 22.3049C70.2606 28.8049 70.1606 30.1049 68.7606 31.4049C67.5606 32.6049 67.3606 34.1049 67.8606 38.1049C68.7606 44.3049 69.0606 45.0049 71.3606 44.4049C73.5606 43.8049 74.3606 47.7049 74.3606 59.4049C74.3606 66.6049 74.0606 67.9049 72.1606 69.7049C69.1606 72.5049 60.1606 77.0049 49.1606 81.2049C35.8606 86.4049 34.4606 87.3049 32.0606 92.5049C30.1606 96.6049 29.8606 99.3049 29.6606 112.205C28.8606 161.105 29.1606 156.405 25.4606 164.705C22.5606 171.105 21.7606 174.805 19.7606 190.205C18.4606 200.105 16.6606 211.105 15.7606 214.705C14.8606 218.305 13.7606 223.805 13.3606 227.005C12.6606 231.605 11.5606 234.005 8.46056 238.105C4.76056 242.805 -1.03944 257.005 0.160557 258.205C0.460557 258.405 1.46056 258.205 2.46056 257.605C4.76056 256.405 4.86056 257.905 3.26056 267.605C2.56056 272.205 2.56056 274.305 3.36056 275.105C4.76056 276.505 7.36056 273.305 7.36056 270.105C7.36056 268.805 7.76056 267.505 8.36056 267.205C8.96056 266.805 9.06056 269.105 8.66056 273.305C8.06056 279.405 8.16056 279.905 9.96056 279.505C11.4606 279.305 12.1606 277.505 13.4606 271.705C15.7606 260.805 16.2606 260.305 16.1606 269.105C15.9606 282.605 19.6606 279.705 21.0606 265.405C21.5606 260.105 21.9606 258.805 22.4606 260.705C22.8606 262.105 23.1606 264.905 23.2606 266.905C23.3606 269.505 23.8606 270.705 24.7606 270.705C26.6606 270.705 27.6606 265.705 26.9606 259.905C26.6606 257.305 26.6606 252.905 27.1606 250.205C27.5606 247.405 27.5606 242.605 27.1606 239.305C26.4606 234.105 26.6606 232.505 29.8606 223.805C31.8606 218.505 35.4606 209.505 37.9606 203.705C44.1606 189.005 45.4606 184.005 46.4606 169.705C47.3606 156.305 49.5606 142.605 50.5606 144.205C51.7606 146.105 54.1606 157.205 54.7606 163.305C55.0606 167.305 54.7606 171.305 53.8606 174.805C49.0606 192.105 46.1606 208.305 42.8606 236.205C40.0606 259.405 39.7606 275.405 41.8606 292.205C43.7606 307.505 43.7606 323.705 41.9606 330.805C37.6606 347.105 37.5606 362.305 41.4606 388.205C43.0606 398.805 43.4606 405.005 43.0606 413.805C42.5606 425.305 42.5606 425.405 38.6606 431.005C36.5606 434.105 32.6606 438.205 30.0606 440.205C23.3606 445.305 22.6606 447.105 25.8606 450.305C27.6606 452.105 29.1606 452.705 30.6606 452.305C31.7606 452.005 33.2606 452.205 33.9606 452.805C35.5606 454.105 42.3606 452.905 43.0606 451.105C43.3606 450.305 44.1606 449.705 44.8606 449.705C45.4606 449.705 46.8606 448.005 47.7606 445.805C48.9606 443.405 50.6606 441.505 52.6606 440.605C55.7606 439.205 55.8606 439.005 56.6606 430.705C57.4606 421.705 57.5606 419.805 57.2606 410.205C57.2606 406.905 58.0606 399.905 59.1606 394.705C60.3606 389.505 62.1606 380.905 63.3606 375.705C65.1606 367.405 65.3606 364.205 64.7606 350.205C64.1606 334.705 64.2606 334.005 66.7606 327.405C68.1606 323.705 70.0606 316.005 70.8606 310.405C71.7606 304.805 73.3606 296.805 74.4606 292.705C77.9606 279.805 86.4606 253.505 86.9606 254.005C87.2606 254.205 88.4606 257.805 89.8606 261.805C91.1606 265.905 93.8606 273.905 95.8606 279.605C99.7606 290.905 102.561 302.005 104.261 313.605C104.961 317.605 107.061 324.805 108.961 329.605C111.661 336.005 112.361 339.005 111.961 341.705C111.661 343.605 111.861 351.105 112.261 358.205C113.061 369.305 113.761 372.905 117.161 383.205C121.361 395.805 123.361 407.605 123.261 419.205C123.161 423.005 123.461 429.505 123.861 433.505C124.461 440.005 124.861 440.905 126.961 441.705C128.561 442.405 129.361 443.405 129.361 445.105C129.361 446.505 130.761 449.205 132.561 451.205C135.561 454.705 135.761 454.805 141.261 454.205C148.361 453.405 154.361 450.905 154.361 448.805C154.361 447.905 152.061 444.905 149.361 442.205C136.961 430.005 136.161 425.005 137.361 370.205C137.761 351.005 137.561 348.505 135.561 340.405C134.361 335.605 132.861 326.305 132.261 319.605C131.261 308.905 131.261 306.405 132.961 297.405C135.761 281.805 135.261 261.405 131.461 234.905C129.761 223.205 127.961 211.705 127.461 209.405C123.061 189.705 121.461 159.905 124.261 150.705L125.661 146.205L126.961 152.205C127.661 155.505 128.261 162.505 128.261 167.805C128.361 179.405 131.561 192.705 137.361 206.205C139.561 211.105 141.761 217.405 142.361 220.105C142.961 222.805 143.961 225.905 144.561 227.105C145.261 228.405 145.761 235.205 145.961 244.205C146.161 262.705 147.061 270.705 148.961 270.705C149.961 270.705 150.361 269.305 150.461 265.905C150.561 257.405 151.961 257.105 152.161 265.605C152.361 273.705 153.561 278.305 155.461 277.205C155.961 276.805 156.461 274.705 156.461 272.405L156.561 268.205L157.361 272.905C158.461 279.005 159.161 280.105 160.961 278.605C161.861 277.805 162.361 275.005 162.561 269.805L162.661 262.205L163.261 268.405C163.961 275.105 164.761 276.705 166.661 274.805C167.461 273.905 167.761 270.105 167.561 261.605C167.361 255.105 167.561 249.705 167.861 249.705C168.261 249.705 169.661 251.005 171.061 252.705C172.361 254.305 174.361 255.705 175.461 255.705C178.661 255.705 170.661 241.005 165.461 237.405C162.561 235.405 161.161 233.605 160.461 230.905C158.161 221.305 154.361 196.905 153.461 185.205C152.761 175.605 151.661 169.805 149.461 163.005L146.461 153.905L147.361 129.505C148.361 104.405 147.661 94.6049 144.761 89.9049C143.261 87.5049 130.661 80.9049 118.461 76.1049C114.361 74.5049 109.561 71.8049 107.761 70.1049C104.561 67.2049 104.361 66.5049 104.361 60.6049C104.361 53.7049 106.861 45.7049 108.961 45.7049C109.761 45.7049 110.461 44.9049 110.461 43.9049C111.061 37.8049 110.961 14.0049 110.461 13.2049C110.161 12.6049 109.861 11.3049 109.861 10.2049C109.961 7.90491 108.161 5.7049 106.261 5.7049C105.561 5.7049 105.261 5.40488 105.661 5.10489C107.161 3.60489 98.5606 0.704895 91.4606 0.204895C84.5606 -0.295105 83.3606 0.00491333 78.4606 2.40491Z" fill="white"/>
</svg>
