<svg width="28" height="28" viewBox="0 0 28 28" fill="none" xmlns="http://www.w3.org/2000/svg">
<g clip-path="url(#clip0)">
<path d="M18.4674 18.3095C17.1629 19.614 17.326 22.2463 17.326 22.2463H10.7104C10.7104 22.2463 10.8501 19.614 9.56893 18.3095C8.14797 17.0516 7.23948 15.2346 7.23948 13.208C7.23948 9.48086 10.2678 6.45258 13.9949 6.45258C17.722 6.45258 20.7503 9.48086 20.7503 13.208C20.7503 15.2346 19.8651 17.0516 18.4674 18.3095Z" fill="#FFD517"/>
<path d="M17.5123 24.3195C17.5123 24.6689 17.2328 24.9484 16.8834 24.9484H11.1296C10.7802 24.9484 10.5007 24.6689 10.5007 24.3195C10.5007 23.97 10.7802 23.6905 11.1296 23.6905H16.8601C17.2095 23.6905 17.5123 23.97 17.5123 24.3195Z" fill="#E5E5E5"/>
<path d="M16.6504 26.9284C16.6504 27.2779 16.3709 27.5574 16.0215 27.5574H11.9915C11.6421 27.5574 11.3626 27.2779 11.3626 26.9284C11.3626 26.579 11.6421 26.2995 11.9915 26.2995H16.0215C16.3709 26.2995 16.6504 26.579 16.6504 26.9284Z" fill="#E5E5E5"/>
<path d="M18.8169 18.5424C20.331 17.1681 21.1929 15.2346 21.1929 13.208C21.1929 9.24793 17.955 6.00999 13.9949 6.00999C10.0348 6.00999 6.79689 9.24793 6.79689 13.208C6.79689 15.2812 7.70537 17.2612 9.24281 18.6123C10.3842 19.7538 10.2678 22.1764 10.2678 22.1997C10.2678 22.3161 10.3144 22.4326 10.3842 22.5258C10.4774 22.619 10.5939 22.6656 10.7104 22.6656H17.3027C17.4192 22.6656 17.5357 22.619 17.6288 22.5258C17.722 22.4326 17.7453 22.3161 17.7453 22.1997C17.7453 22.1764 17.6288 19.7538 18.7703 18.6123C18.7936 18.589 18.8169 18.5657 18.8169 18.5424ZM18.1646 17.9601C18.118 17.9834 18.0947 18.03 18.0714 18.0765C17.0465 19.1714 16.8834 20.9651 16.8601 21.8037H11.153C11.1297 20.9418 10.9433 19.0782 9.84847 17.9834C8.47409 16.7721 7.68208 15.0483 7.68208 13.2313C7.68208 9.73711 10.524 6.91847 13.9949 6.91847C17.4891 6.91847 20.3077 9.7604 20.3077 13.2313C20.3077 15.025 19.539 16.7721 18.1646 17.9601Z" fill="#210B20"/>
<path d="M13.9949 7.87354C13.7619 7.87354 13.5523 8.0599 13.5523 8.31614C13.5523 8.54908 13.7387 8.75873 13.9949 8.75873C16.6039 8.75873 18.7237 10.8785 18.7237 13.4875C18.7237 13.7205 18.91 13.9301 19.1663 13.9301C19.3992 13.9301 19.6089 13.7438 19.6089 13.4875C19.6089 10.3893 17.0931 7.87354 13.9949 7.87354Z" fill="#210B20"/>
<path d="M17.9549 24.3195C17.9549 23.7138 17.4658 23.2479 16.8834 23.2479H11.1297C10.524 23.2479 10.0581 23.7371 10.0581 24.3195C10.0581 24.9251 10.5473 25.391 11.1297 25.391H16.8601C17.4658 25.391 17.9549 24.9251 17.9549 24.3195ZM16.8601 24.5058H11.1297C11.0132 24.5058 10.9433 24.4126 10.9433 24.3195C10.9433 24.203 11.0365 24.1331 11.1297 24.1331H16.8601C16.9766 24.1331 17.0465 24.2263 17.0465 24.3195C17.0698 24.4359 16.9766 24.5058 16.8601 24.5058Z" fill="#210B20"/>
<path d="M16.0215 25.8569H11.9916C11.3859 25.8569 10.92 26.3461 10.92 26.9285C10.92 27.5341 11.4092 28 11.9916 28H16.0215C16.6272 28 17.0931 27.5108 17.0931 26.9285C17.0931 26.3461 16.6039 25.8569 16.0215 25.8569ZM16.0215 27.1148H11.9916C11.8751 27.1148 11.8052 27.0216 11.8052 26.9285C11.8052 26.812 11.8984 26.7421 11.9916 26.7421H16.0215C16.138 26.7421 16.2079 26.8353 16.2079 26.9285C16.2079 27.0449 16.138 27.1148 16.0215 27.1148Z" fill="#210B20"/>
<path d="M21.3327 2.21299C21.123 2.07322 20.8668 2.1431 20.727 2.32946L19.0731 4.82197C18.9333 5.03162 19.0032 5.28786 19.1896 5.42763C19.2594 5.47422 19.3526 5.49751 19.4225 5.49751C19.5623 5.49751 19.702 5.42763 19.7952 5.31116L21.4491 2.81864C21.5889 2.63229 21.519 2.35275 21.3327 2.21299Z" fill="#210B20"/>
<path d="M8.73033 5.40433C8.80021 5.40433 8.89339 5.38103 8.96327 5.33444C9.17292 5.19468 9.21951 4.93844 9.10304 4.72879L7.49572 2.21298C7.35595 2.00333 7.09971 1.95674 6.89006 2.07321C6.68041 2.21298 6.63382 2.46922 6.75029 2.67887L8.35761 5.19468C8.45079 5.33444 8.59056 5.40433 8.73033 5.40433Z" fill="#210B20"/>
<path d="M2.55728 7.50084L5.18956 8.9218C5.25945 8.96839 5.32933 8.96839 5.39921 8.96839C5.56227 8.96839 5.70204 8.87521 5.79522 8.73545C5.91169 8.5258 5.84181 8.24626 5.60886 8.12979L2.97658 6.70882C2.76693 6.59235 2.4874 6.66224 2.37093 6.89518C2.27775 7.12813 2.34763 7.38437 2.55728 7.50084Z" fill="#210B20"/>
<path d="M22.5906 8.99168C22.6604 8.99168 22.7303 8.96839 22.8002 8.94509L25.4325 7.52413C25.6421 7.40765 25.7353 7.15141 25.6188 6.91847C25.5024 6.70882 25.2461 6.61564 25.0132 6.73211L22.3809 8.15308C22.1713 8.26955 22.0781 8.52579 22.1946 8.75873C22.2644 8.8985 22.4275 8.99168 22.5906 8.99168Z" fill="#210B20"/>
</g>
<defs>
<clipPath id="clip0">
<rect width="28" height="28" fill="white"/>
</clipPath>
</defs>
</svg>
