<svg width="22" height="22" viewBox="0 0 22 22" fill="none" xmlns="http://www.w3.org/2000/svg">
<g clip-path="url(#clip0)">
<path d="M11.7347 10.2662C11.7347 12.9632 9.54837 15.1496 6.85133 15.1496C4.15428 15.1496 1.96791 17.336 1.96791 20.033C4.27029 22.3354 8.32307 22.0154 11.0201 19.3183C13.7172 16.6213 14.0371 12.5685 11.7347 10.2662Z" fill="#C68A65"/>
<path d="M6.85132 15.1496C9.54837 15.1496 11.7348 12.9633 11.7348 10.2662C9.43241 7.96383 5.37958 8.28379 2.68253 10.9808C-0.0145154 13.6779 -0.334471 17.7307 1.96786 20.033C1.96786 17.336 4.15428 15.1496 6.85132 15.1496Z" fill="#C68A65"/>
<path d="M18.8575 13.0825C16.2524 12.3844 14.7064 9.70668 15.4045 7.10153C16.1025 4.49639 14.5565 1.81863 11.9514 1.12054C9.13157 2.74855 8.39168 6.74609 10.2988 10.0493C12.2058 13.3525 16.0377 14.7105 18.8575 13.0825Z" fill="#D1A184"/>
<path d="M15.4045 7.10146C14.7064 9.70661 16.2524 12.3844 18.8576 13.0824C21.6773 11.4544 22.4172 7.45691 20.5101 4.15372C18.6031 0.850531 14.7712 -0.507487 11.9514 1.12052C14.5565 1.81856 16.1025 4.49632 15.4045 7.10146Z" fill="#D1A184"/>
<path d="M20.883 3.93893C19.9095 2.25288 18.4301 0.990024 16.7172 0.38298C14.9803 -0.23257 13.2116 -0.102818 11.7372 0.748478C10.2628 1.59973 9.26609 3.06649 8.93071 4.87852C8.71576 6.03984 8.79034 7.25419 9.13586 8.42501C8.15615 8.22617 7.10932 8.26123 6.06318 8.53448C4.69837 8.89105 3.42452 9.63192 2.37941 10.677C1.00275 12.0537 0.1658 13.8096 0.0228147 15.6212C-0.122233 17.4583 0.46088 19.133 1.66478 20.3369C2.66289 21.335 3.9791 21.9066 5.47117 21.9899C5.5919 21.9967 5.71302 22 5.83478 22C7.15138 21.9999 8.51859 21.6082 9.72271 20.8802C9.92581 20.7575 9.9909 20.4933 9.8681 20.2903C9.7454 20.0872 9.48125 20.0222 9.27816 20.1449C6.91993 21.5705 4.12226 21.4427 2.40218 19.8528C2.49713 17.4803 4.45661 15.5793 6.85205 15.5793C8.01806 15.5793 9.12486 15.2087 10.0527 14.5074C10.7699 13.9654 11.3419 13.2405 11.7069 12.424C12.0394 12.7104 12.3927 12.9665 12.7631 13.1897C13.0068 14.6148 12.6777 16.202 11.8473 17.5757C11.7246 17.7787 11.7897 18.0429 11.9928 18.1656C12.0623 18.2077 12.1389 18.2276 12.2146 18.2276C12.3601 18.2276 12.502 18.1537 12.5827 18.0202C13.4021 16.6648 13.7871 15.1163 13.6841 13.6603C13.8189 13.7176 13.9551 13.7712 14.0931 13.8201C14.8152 14.076 15.5427 14.2031 16.2523 14.2031C17.2496 14.2031 18.2116 13.952 19.0731 13.4546C20.5475 12.6033 21.5442 11.1366 21.8796 9.32456C22.2104 7.53762 21.8564 5.62498 20.883 3.93893ZM6.85205 14.72C4.2915 14.72 2.14835 16.5407 1.64889 18.9554C0.240859 16.7658 0.744445 13.5272 2.98706 11.2846C4.81863 9.45302 7.35147 8.72649 9.49247 9.40245C9.62011 9.69487 9.76495 9.98268 9.92739 10.2641C10.2471 10.818 10.6218 11.3258 11.0411 11.78C10.41 13.5226 8.72216 14.72 6.85205 14.72ZM14.3801 13.0101C12.8599 12.4714 11.5428 11.3435 10.6715 9.83446C8.9216 6.80341 9.53126 3.14898 12.0132 1.58577C14.2808 2.29129 15.6102 4.67624 14.9901 6.9903C14.6228 8.36112 14.8113 9.79291 15.5209 11.0219C16.0473 11.9337 16.8138 12.6526 17.734 13.1131C16.6898 13.4486 15.5297 13.4175 14.3801 13.0101ZM18.797 12.6173C17.7245 12.2841 16.8299 11.5706 16.2652 10.5923C15.6703 9.56206 15.5123 8.36181 15.8202 7.21273C16.4829 4.73944 15.279 2.19805 13.0758 1.09065C15.5552 0.297352 18.5531 1.62194 20.1389 4.36857C21.8888 7.39962 21.2791 11.0541 18.797 12.6173Z" fill="#222222"/>
<path d="M11.0202 18.8887C10.9072 18.8887 10.7964 18.9347 10.7165 19.0146C10.6361 19.0945 10.5906 19.2054 10.5906 19.3184C10.5906 19.4314 10.6361 19.5422 10.7165 19.6221C10.7964 19.7021 10.9068 19.748 11.0202 19.748C11.1332 19.748 11.2441 19.7021 11.324 19.6221C11.4039 19.5422 11.4499 19.4314 11.4499 19.3184C11.4499 19.2054 11.4039 19.0945 11.324 19.0146C11.2441 18.9347 11.1332 18.8887 11.0202 18.8887Z" fill="#222222"/>
</g>
<defs>
<clipPath id="clip0">
<rect width="22" height="22" fill="white"/>
</clipPath>
</defs>
</svg>
