<svg width="22" height="22" viewBox="0 0 22 22" fill="none" xmlns="http://www.w3.org/2000/svg">
<g clip-path="url(#clip0)">
<path fill-rule="evenodd" clip-rule="evenodd" d="M3.93997 2.47369V4.03019L1.33989 8.84802V20.1944C1.33989 20.9124 1.92194 21.4945 2.63995 21.4945H9.40027C10.1183 21.4945 10.7003 20.9124 10.7003 20.1944V8.84802L8.10016 4.03019V2.47369H3.93997Z" fill="#CCF5FC"/>
<path fill-rule="evenodd" clip-rule="evenodd" d="M3.13109 0.476685H8.90914V2.239H3.13109V0.476685Z" fill="#FFF2A0"/>
<path fill-rule="evenodd" clip-rule="evenodd" d="M1.35433 20.2598V10.3426C1.35433 10.3426 4.07 9.53372 6.1212 10.8627C8.1724 12.1916 10.2814 11.2671 10.7436 10.4871V20.2598C10.7436 20.9097 10.2168 21.4365 9.56695 21.4365H2.53099C1.88113 21.4365 1.35433 20.9097 1.35433 20.2598Z" fill="#FFA96B"/>
<path fill-rule="evenodd" clip-rule="evenodd" d="M18.9484 15.4418H20.7108C20.7108 15.4418 19.9524 21.5666 14.7594 21.5666C8.54737 21.5666 8.54797 15.4418 8.54797 15.4418H18.9484Z" fill="#FFA96B"/>
<path fill-rule="evenodd" clip-rule="evenodd" d="M18.8907 15.4418C18.8907 15.4418 18.3593 19.6959 14.7204 19.6959C10.3676 19.6959 10.3681 15.4418 10.3681 15.4418" fill="#FFF2A0"/>
<path d="M20.7035 14.994H11.0903V8.8434C11.0903 8.77194 11.0726 8.70156 11.0388 8.63857L8.49019 3.88747V2.629H8.86578C9.10511 2.629 9.29912 2.435 9.29912 2.19566V0.43334C9.29912 0.194004 9.10507 0 8.86578 0H3.08773C2.84839 0 2.65439 0.194004 2.65439 0.43334V2.19562C2.65439 2.43495 2.84844 2.62896 3.08773 2.62896H3.46332V3.88743L0.914628 8.63857C0.880855 8.70156 0.863152 8.77194 0.863152 8.8434V13.4665C0.863152 13.7058 1.0572 13.8998 1.29649 13.8998C1.53578 13.8998 1.72983 13.7058 1.72983 13.4665V10.6688C3.40656 10.2041 4.75045 10.3494 5.62379 11.0918C6.27837 11.6482 7.11953 11.9407 8.00052 11.9407C8.37748 11.9407 8.76184 11.8871 9.14194 11.7777C9.55362 11.6593 9.92148 11.4862 10.2236 11.2763V14.994H8.43966C8.20032 14.994 8.00632 15.188 8.00632 15.4274C8.00632 17.3794 8.8629 19.1348 10.2196 20.3384C10.1794 20.7834 9.80808 21.1333 9.35691 21.1333H2.5966C2.1187 21.1333 1.72987 20.7408 1.72987 20.2583V17.334C1.72987 17.0947 1.53583 16.9007 1.29653 16.9007C1.05724 16.9007 0.863195 17.0947 0.863195 17.334V20.2583C0.863195 21.2187 1.6408 22 2.5966 22H9.35691C10.0835 22 10.7067 21.5483 10.964 20.9098C12 21.5938 13.24 21.9927 14.5716 21.9927C18.1917 21.9927 21.1368 19.0475 21.1368 15.4274C21.1368 15.188 20.9427 14.994 20.7035 14.994ZM3.52107 0.866723H8.43244V1.76232H3.52107V0.866723ZM10.2003 10.0244C10.1089 10.3141 9.66362 10.7257 8.90222 10.9448C7.91363 11.2292 6.89803 11.0373 6.18513 10.4314C5.12617 9.53129 3.5918 9.30639 1.72987 9.77268V8.95224L4.27856 4.20123C4.31234 4.13823 4.33004 4.06785 4.33004 3.99639V2.629H7.62351V3.99635C7.62351 4.06781 7.64121 4.13819 7.67499 4.20118L10.2236 8.95228V9.96703C10.2148 9.98547 10.2067 10.0044 10.2003 10.0244ZM13.7906 15.8608L11.7223 18.0968C11.1579 17.4855 10.7692 16.7072 10.6079 15.8608H13.7906ZM14.1382 16.7614V19.3584C13.5107 19.2834 12.9053 19.0473 12.373 18.6697L14.1382 16.7614ZM15.0049 16.7616L16.77 18.6698C16.2377 19.0473 15.6323 19.2834 15.0049 19.3584V16.7616ZM17.4207 18.0969L15.3522 15.8607H18.5352C18.3739 16.7073 17.9852 17.4856 17.4207 18.0969ZM14.5716 21.1259C11.5751 21.1259 9.11143 18.8013 8.88933 15.8608H9.72808C9.92229 17.0732 10.5102 18.1821 11.3866 18.9855C12.2775 19.8022 13.4086 20.252 14.5716 20.252C15.7346 20.252 16.8657 19.8022 17.7567 18.9855C18.633 18.1821 19.2209 17.0732 19.4151 15.8608H20.2539C20.0317 18.8013 17.568 21.1259 14.5716 21.1259Z" fill="black"/>
<path d="M1.29654 15.8137C1.53385 15.8137 1.72623 15.6213 1.72623 15.384C1.72623 15.1467 1.53385 14.9543 1.29654 14.9543C1.05923 14.9543 0.866852 15.1467 0.866852 15.384C0.866852 15.6213 1.05923 15.8137 1.29654 15.8137Z" fill="black"/>
</g>
<defs>
<clipPath id="clip0">
<rect width="22" height="22" fill="white"/>
</clipPath>
</defs>
</svg>
