<svg width="35" height="43" viewBox="0 0 35 43" fill="none" xmlns="http://www.w3.org/2000/svg">
<g clip-path="url(#clip0)" filter="url(#filter0_d)">
<path d="M19.8467 33.8755C20.1215 34.1602 20.5605 34.1531 20.8274 33.8599C21.0877 33.5738 21.0889 33.1192 20.8301 32.8318L6.10533 17.0357L20.9145 1.31892C21.1907 1.0357 21.1996 0.567313 20.9343 0.272607C20.6689 -0.0220267 20.23 -0.0313002 19.9537 0.251852C19.9479 0.257803 19.9422 0.263822 19.9366 0.26998L4.63641 16.5094C4.36492 16.7976 4.36369 17.2661 4.63366 17.5558L19.8467 33.8755Z" fill="#009688"/>
<path d="M20.4268 0.0537043C20.8098 0.0539499 21.12 0.38554 21.1196 0.794217C21.1194 0.991238 21.0456 1.18009 20.9145 1.31891L6.10534 17.0357L20.8315 32.8302C21.0969 33.1249 21.088 33.5933 20.8117 33.8766C20.5422 34.1528 20.1162 34.1517 19.8482 33.874L4.63374 17.5542C4.36377 17.2646 4.365 16.7962 4.63649 16.5079L19.9366 0.268509C20.0669 0.130455 20.2432 0.0532209 20.4268 0.0537043Z" fill="black"/>
</g>
<defs>
<filter id="filter0_d" x="-1" y="0" width="39.9999" height="42.1324" filterUnits="userSpaceOnUse" color-interpolation-filters="sRGB">
<feFlood flood-opacity="0" result="BackgroundImageFix"/>
<feColorMatrix in="SourceAlpha" type="matrix" values="0 0 0 0 0 0 0 0 0 0 0 0 0 0 0 0 0 0 127 0"/>
<feOffset dy="4"/>
<feGaussianBlur stdDeviation="2"/>
<feColorMatrix type="matrix" values="0 0 0 0 0 0 0 0 0 0 0 0 0 0 0 0 0 0 0.25 0"/>
<feBlend mode="normal" in2="BackgroundImageFix" result="effect1_dropShadow"/>
<feBlend mode="normal" in="SourceGraphic" in2="effect1_dropShadow" result="shape"/>
</filter>
<clipPath id="clip0">
<rect width="31.9104" height="34.0485" fill="white" transform="translate(34.9103 34.1324) rotate(-179.849)"/>
</clipPath>
</defs>
</svg>
