<svg width="83" height="83" viewBox="0 0 83 83" fill="none" xmlns="http://www.w3.org/2000/svg">
<g clip-path="url(#clip0)">
<path d="M68.1264 73.4456V80.2336C68.1264 80.9978 67.5075 81.6168 66.7432 81.6168H16.2568C15.4926 81.6168 14.8737 80.9978 14.8737 80.2336V73.4456C14.8737 66.3239 20.6467 60.5543 27.7702 60.5526C30.2876 60.5509 32.5041 59.2558 33.7801 57.2917C35.062 55.3217 34.9299 53.6086 34.9299 52.224L34.9558 52.1601C28.7488 49.5908 24.3831 43.4754 24.3831 36.3399V35.7987C21.9184 35.7987 20.0606 33.851 20.0606 31.5557V24.3701C20.0053 21.8682 20.1194 13.0452 26.4924 6.90212C33.9029 -0.240326 45.6462 0.344072 54.1528 4.16513C54.4294 4.28962 54.4208 4.68556 54.1407 4.8014L51.9224 5.71431C51.5904 5.8509 51.6613 6.3402 52.0175 6.37824L53.0946 6.49408C58.8902 7.11306 63.7123 10.5728 66.1174 14.6722C66.1398 14.712 66.1329 14.7638 66.1001 14.7984C64.1843 16.7522 63.1124 19.3819 63.1124 22.1207V31.305C63.1124 33.7827 61.105 35.7987 58.617 35.7987V36.3399C58.617 43.4754 54.2513 49.5908 48.0443 52.1601L48.0702 52.224C48.0702 53.5694 47.9274 55.3053 49.22 57.2917C50.496 59.2558 52.7125 60.5509 55.2299 60.5526C62.3534 60.5543 68.1264 66.3239 68.1264 73.4456Z" fill="#FFD6A6"/>
<path d="M66.1166 14.672C66.1396 14.7113 66.1327 14.7638 66.0992 14.798C64.1847 16.7525 63.1123 19.3826 63.1123 22.1207V31.305C63.1123 33.7825 61.1055 35.7987 58.617 35.7987C58.617 30.5666 58.6199 27.8325 58.6189 26.3627C58.6182 25.4348 57.7217 24.7679 56.8349 25.0407C54.0474 25.8983 50.7959 26.3402 47.3787 25.5976C41.3653 24.2905 39.6623 21.9339 34.7571 20.7565C29.2763 19.4425 24.3054 23.6404 24.34 29.0107C24.3504 30.776 24.3798 32.9821 24.3832 35.7987C21.9186 35.7987 20.0608 33.851 20.0608 31.5557V24.3701C20.0054 21.8682 20.1195 13.0452 26.4926 6.90211C33.9023 -0.240506 45.6468 0.344238 54.152 4.16564C54.4289 4.28996 54.4214 4.68607 54.1408 4.80157L51.9223 5.71482C51.5907 5.85141 51.6606 6.34019 52.0171 6.3784L53.0946 6.49407C58.8907 7.11374 63.7125 10.5722 66.1166 14.672Z" fill="#42434D"/>
<path d="M56.8347 25.0407C57.7215 24.7679 58.618 25.4341 58.6187 26.3619C58.6199 27.8825 58.6168 30.7552 58.6168 36.3398C58.6168 43.4754 54.2511 49.5908 48.0441 52.1601C36.82 56.8192 24.3829 48.5423 24.3829 36.3398C24.3829 33.1843 24.3511 30.9423 24.3397 29.0107C24.3051 23.6404 29.2759 19.4424 34.7568 20.7565C39.6619 21.9339 41.365 24.2905 47.3784 25.5976C50.7957 26.3402 54.0474 25.8983 56.8347 25.0407Z" fill="#FFDFBA"/>
<path d="M68.1264 73.4456V80.2336C68.1264 80.9975 67.5071 81.6168 66.7432 81.6168H16.2568C15.493 81.6168 14.8737 80.9975 14.8737 80.2336V73.4456C14.8737 66.3239 20.6476 60.5552 27.7693 60.5526C30.2874 60.5517 32.5045 59.2551 33.7801 57.2917C38.233 61.0958 44.7645 61.0981 49.22 57.2917C50.4954 59.2551 52.7127 60.5517 55.2308 60.5526C62.3525 60.5552 68.1264 66.3239 68.1264 73.4456Z" fill="#42434D"/>
<path d="M34.7366 64.7293C34.0972 64.9304 33.4115 65.0412 32.6763 65.0476C25.5363 65.1105 19.7148 70.7562 19.7148 77.8966V79.1962C19.7148 80.5331 18.6311 81.6168 17.2942 81.6168H16.2568C15.493 81.6168 14.8737 80.9975 14.8737 80.2336V73.4456C14.8737 66.3237 20.6476 60.5552 27.7693 60.5526C30.2874 60.5517 32.5045 59.2551 33.7801 57.2917C34.2943 57.7308 34.8448 58.1256 35.4247 58.4712C37.9755 59.9912 37.569 63.8387 34.7366 64.7293Z" fill="#4D4E59"/>
<path d="M48.2634 64.7293C48.9028 64.9304 49.5885 65.0412 50.3237 65.0476C57.4637 65.1105 63.2852 70.7562 63.2852 77.8966V79.1962C63.2852 80.5331 64.369 81.6168 65.7058 81.6168H66.7432C67.5071 81.6168 68.1264 80.9975 68.1264 80.2336V73.4456C68.1264 66.3237 62.3524 60.5552 55.2307 60.5526C52.7126 60.5517 50.4956 59.2551 49.2199 57.2917C48.7057 57.7308 48.1552 58.1256 47.5753 58.4712C45.0247 59.9912 45.4312 63.8387 48.2634 64.7293Z" fill="#2C2C33"/>
<path d="M48.2655 55.063C44.0058 56.8461 39.3246 56.9845 34.7345 55.063C34.9689 54.0903 34.9299 53.4603 34.9299 52.224L34.9558 52.1601C39.1196 53.8884 43.8724 53.8918 48.0442 52.1601L48.0702 52.224C48.0702 53.4608 48.0313 54.0907 48.2655 55.063Z" fill="#F7C388"/>
<path d="M54.1406 4.8014C52.5105 5.47173 52.1496 5.70791 51.401 5.58463C37.682 3.32623 26.8793 10.4994 25.4013 24.5169C25.3754 24.7629 25.3123 25.0044 25.2032 25.2264C24.1511 27.3683 24.3382 28.9534 24.3605 31.5888C24.3838 34.3612 20.2059 34.5388 20.0659 31.7698C20.0571 31.5969 20.0605 32.0526 20.0605 24.3701C20.0052 21.8682 20.1193 13.0452 26.4923 6.90212C33.9028 -0.240325 45.6461 0.344073 54.1527 4.16513C54.4293 4.28962 54.4207 4.68556 54.1406 4.8014Z" fill="#4D4E59"/>
<path d="M37.6266 47.3948C40.4398 49.154 38.2196 53.4712 35.1403 52.2354C28.8162 49.6975 24.3832 43.5317 24.3832 36.34C24.3832 33.1806 24.3514 30.9501 24.34 29.0108C24.3291 27.2748 24.8407 25.6614 25.7235 24.3173C26.8332 22.6279 29.5123 23.3641 29.527 25.5529C29.5384 27.4987 29.5702 29.7194 29.5702 32.882C29.57 39.1923 32.8876 44.4311 37.6266 47.3948Z" fill="#FFEBD2"/>
<path d="M69.5096 73.4461V81.6168C69.5096 82.3807 68.8903 83 68.1264 83C67.3625 83 66.7432 82.3807 66.7432 81.6168V73.4461C66.7432 67.0843 61.5951 61.9361 55.2328 61.9361C52.2225 61.9361 49.491 60.4025 47.9265 57.8334C47.529 57.181 47.7358 56.33 48.3883 55.9327C49.0403 55.5349 49.8915 55.7418 50.289 56.3945C51.3475 58.1323 53.1957 59.1697 55.2328 59.1697C63.1236 59.1694 69.5096 65.5549 69.5096 73.4461ZM43.7261 58.5239C40.8305 59.155 37.8916 58.5146 35.5601 56.9137C35.96 56.0288 36.2057 55.0767 36.2837 54.0901C48.1398 57.5801 60.0002 48.6317 60.0002 36.3398C60.0002 24.6087 60.0145 24.7954 59.967 24.3144C59.7849 22.4078 57.0301 22.6672 57.2139 24.5857C57.2449 24.8993 57.2338 25.1737 57.2338 36.3397C57.2338 45.0154 50.1757 52.0734 41.5 52.0734C32.8243 52.0734 25.7662 45.0154 25.7662 36.3397C25.7662 33.2237 25.733 30.8107 25.7221 29.0013C25.6941 24.4619 29.8919 21.0125 34.4345 22.1015C40.8411 23.6377 43.4232 27.6337 51.6348 27.2512C52.3978 27.2155 52.9874 26.568 52.9516 25.8048C52.9158 25.0418 52.2723 24.4562 51.5051 24.488C44.1023 24.836 42.0503 21.0833 35.0796 19.4115C28.7771 17.8997 22.9172 22.6948 22.9558 29.0184C22.9651 30.4891 22.9845 32.0998 22.9941 34.0837C22.0733 33.6035 21.4436 32.6512 21.4436 31.5557C21.4436 31.5241 21.4438 24.3711 21.4432 24.3396C21.3739 21.2045 21.8205 13.3267 27.4522 7.89801C33.7441 1.83307 43.5884 1.83082 51.2427 4.49882L50.137 4.95389C48.8169 5.49697 49.0928 7.45574 50.5162 7.60823L52.9475 7.86862C57.6268 8.36968 61.7649 10.8098 64.4162 14.6015C62.6761 16.7158 61.729 19.3477 61.729 22.1205V31.5556C61.729 32.3194 62.3483 32.9387 63.1122 32.9387C63.876 32.9387 64.4953 32.3194 64.4953 31.5556V22.1205C64.4953 19.7167 65.4236 17.451 67.1092 15.7412C67.5785 15.2657 67.6361 14.4984 67.3088 13.9702C64.551 9.54764 60.4474 6.7 55.7641 5.55783C56.5218 4.91153 56.3727 3.71075 55.4958 3.26727C51.4747 1.23623 45.7386 -0.189496 40.2799 0.0205759C26.4701 0.55587 18.3862 10.8693 18.6776 24.3855V31.5559C18.6776 34.2021 20.529 36.4259 23.014 37.0231C23.2718 44.0879 27.5092 50.1543 33.5468 53.0412V53.4051C33.5468 56.5941 30.9629 59.1699 27.7674 59.1699C19.8602 59.1699 13.4906 65.5708 13.4906 73.4463V81.617C13.4906 82.3808 14.1099 83.0002 14.8738 83.0002C15.6377 83.0002 16.257 82.3808 16.257 81.617V73.4463C16.257 67.0848 21.405 61.9363 27.7674 61.9363C30.1228 61.9363 32.3658 60.9922 34.0249 59.2142C36.9737 61.2269 40.6761 62.0201 44.3151 61.227C45.0615 61.0645 45.5348 60.3274 45.3721 59.581C45.2094 58.8345 44.472 58.3607 43.7261 58.5239ZM55.5048 75.9111H51.3552C50.5914 75.9111 49.972 76.5305 49.972 77.2943C49.972 78.0582 50.5914 78.6775 51.3552 78.6775H55.5048C56.2687 78.6775 56.888 78.0582 56.888 77.2943C56.888 76.5305 56.2687 75.9111 55.5048 75.9111Z" fill="black"/>
</g>
<defs>
<clipPath id="clip0">
<rect width="83" height="83" fill="white"/>
</clipPath>
</defs>
</svg>
