<svg width="24" height="24" viewBox="0 0 24 24" fill="none" xmlns="http://www.w3.org/2000/svg">
<path d="M14.5336 3.06262L16.6496 7.46169C16.6496 7.46169 17.6241 9.38281 17.6241 10.9698C17.6241 12.5568 17.6241 21.2436 17.6241 21.2436C17.6241 21.2436 17.7912 23.6102 15.8701 23.6102C13.949 23.6102 12 23.6102 12 23.6102C12 23.6102 10.0789 23.6102 8.12993 23.6102C6.18097 23.6102 6.37587 21.2436 6.37587 21.2436C6.37587 21.2436 6.37587 12.5568 6.37587 10.9698C6.37587 9.38281 7.35034 7.46169 7.35034 7.46169L9.46635 3.06262H14.5336Z" fill="#F4F5F7"/>
<path d="M8.12992 21.2436C8.12992 21.2436 8.12992 12.5568 8.12992 10.9698C8.12992 9.38281 9.1044 7.46169 9.1044 7.46169L11.2204 3.06262H9.46635L7.35034 7.46169C7.35034 7.46169 6.37586 9.38281 6.37586 10.9698C6.37586 12.5568 6.37586 21.2436 6.37586 21.2436C6.37586 21.2436 6.20881 23.6102 8.12992 23.6102C8.74245 23.6102 9.35498 23.6102 9.88398 23.6102C7.96287 23.6102 8.12992 21.2436 8.12992 21.2436Z" fill="white"/>
<path d="M17.5963 11.7216H6.51508V16.9281H17.5963V11.7216Z" fill="#50C1E9"/>
<path d="M8.0464 11.7216H6.51508V16.9281H8.0464V11.7216Z" fill="#87D3E8"/>
<path d="M15.8701 1.75408C15.8701 2.47798 15.2854 3.06266 14.5615 3.06266H9.46636C8.74246 3.06266 8.15778 2.47798 8.15778 1.75408C8.15778 1.03018 8.74246 0.445496 9.46636 0.445496H14.5615C15.2854 0.445496 15.8701 1.03018 15.8701 1.75408Z" fill="#FFCE55"/>
<path d="M10.0789 1.75408C10.0789 1.03018 10.6636 0.445496 11.3875 0.445496H9.43853C8.71463 0.445496 8.12994 1.03018 8.12994 1.75408C8.12994 2.47798 8.71463 3.06266 9.43853 3.06266H11.3875C10.6636 3.06266 10.0789 2.47798 10.0789 1.75408Z" fill="#FFDE94"/>
<path d="M18.0418 10.9698C18.0418 9.2993 17.0673 7.35035 17.0394 7.26682L15.174 3.36891C15.8422 3.11833 16.2877 2.47796 16.2877 1.75406C16.2877 0.807425 15.5081 0 14.5336 0H9.46636C8.51972 0 7.7123 0.779583 7.7123 1.75406C7.7123 2.5058 8.18561 3.11833 8.82599 3.36891L6.96056 7.26682C6.93271 7.35035 5.95824 9.2993 5.95824 10.9698V11.7494V16.9281V21.1879C5.95824 21.2436 5.87471 22.58 6.62645 23.3875C7.01624 23.8051 7.5174 24 8.12993 24H15.8701C16.4826 24 17.0116 23.8051 17.3735 23.3875C18.1253 22.58 18.0418 21.2436 18.0418 21.2158V10.9698ZM8.54756 1.75406C8.54756 1.2529 8.93735 0.863109 9.43851 0.863109H14.5336C15.0348 0.863109 15.4246 1.2529 15.4246 1.75406C15.4246 2.25522 15.0348 2.64501 14.5336 2.64501H9.46636C8.9652 2.64501 8.54756 2.25522 8.54756 1.75406ZM6.7935 10.9698C6.7935 9.52204 7.7123 7.65661 7.7123 7.62877L9.71694 3.48028H14.2831L16.2877 7.62877C16.2877 7.65661 17.2065 9.4942 17.2065 10.942V11.3039H6.7935V10.9698ZM6.7935 12.1949H17.1787V16.5383H6.7935V12.1949ZM16.761 22.8585C16.5383 23.0812 16.2599 23.1926 15.8701 23.1926H8.12993C7.74014 23.1926 7.46172 23.0812 7.23898 22.8585C6.73782 22.3016 6.7935 21.2993 6.7935 21.2436V17.3736H17.1787V21.2715C17.2065 21.2993 17.2622 22.3016 16.761 22.8585Z" fill="#222222"/>
<path d="M9.52204 13.0023L9.21577 13.9211C9.13224 14.2274 9.02087 14.5893 8.93735 14.9234C8.88166 14.5893 8.79814 14.2552 8.71461 13.9211L8.43619 13.0023H7.60092L7.43387 15.7866H8.01855L8.07424 14.7285C8.10208 14.3944 8.10208 13.949 8.12992 13.587C8.18561 13.949 8.29698 14.3388 8.3805 14.6729L8.68677 15.7587H9.18793L9.52204 14.6729C9.6334 14.3388 9.74477 13.949 9.8283 13.587C9.8283 14.0046 9.8283 14.3944 9.85614 14.7285L9.88398 15.7866H10.4965L10.3573 13.0023H9.52204Z" fill="#222222"/>
<path d="M11.6381 13.0023H10.9977V15.7866H11.6381V13.0023Z" fill="#222222"/>
<path d="M12.8074 13.0023H12.1671V15.7866H13.9211V15.2575H12.8074V13.0023Z" fill="#222222"/>
<path d="M16.5104 13.0023H15.7308L15.0905 13.9211C15.0348 14.0325 14.9513 14.116 14.8956 14.2274V13.0023H14.2831V15.7866H14.8956V14.8678L15.1462 14.5615L15.8144 15.7587H16.5383L15.5638 14.1717L16.5104 13.0023Z" fill="#222222"/>
</svg>
