<svg width="97" height="97" viewBox="0 0 97 97" fill="none" xmlns="http://www.w3.org/2000/svg">
<g clip-path="url(#clip0)">
<path d="M93.3231 48.8253C93.3231 69.9283 76.2162 87.0352 55.1132 87.0352C34.0102 87.0352 16.9023 69.9283 16.9023 48.8253C16.9023 27.7223 34.0102 10.6144 55.1132 10.6144C76.2162 10.6144 93.3231 27.7223 93.3231 48.8253Z" fill="#76B7EB"/>
<path d="M55.1133 88.6102C33.1751 88.6102 15.3284 70.7626 15.3284 48.8253C15.3284 26.8879 33.1751 9.04033 55.1133 9.04033C77.0507 9.04033 94.8983 26.887 94.8983 48.8244C94.8983 70.7626 77.0507 88.6102 55.1133 88.6102ZM55.1133 12.1894C34.9131 12.1894 18.4784 28.6242 18.4784 48.8244C18.4784 69.0254 34.9131 85.4602 55.1133 85.4602C75.3135 85.4602 91.7483 69.0254 91.7483 48.8244C91.7483 28.6242 75.3135 12.1894 55.1133 12.1894V12.1894Z" fill="#4C241D"/>
<path d="M83.8857 48.8253C83.8857 64.7158 71.0037 77.5978 55.1131 77.5978C39.2226 77.5978 26.3406 64.7158 26.3406 48.8253C26.3406 32.9347 39.2226 20.0527 55.1131 20.0527C71.0037 20.0527 83.8857 32.9347 83.8857 48.8253Z" fill="white"/>
<path d="M80.7356 41.1656C80.7356 52.5898 71.4749 61.8505 60.0507 61.8505C48.6275 61.8505 39.3667 52.5898 39.3667 41.1656C39.3667 29.7424 48.6275 20.4816 60.0507 20.4816C71.4749 20.4816 80.7356 29.7424 80.7356 41.1656Z" fill="#7FDBD5"/>
<path d="M29.8827 35.7C29.6133 35.7 29.3403 35.6306 29.0907 35.4846C28.3392 35.0467 28.0851 34.0826 28.5239 33.3312C29.4736 31.7039 30.5819 30.1532 31.8181 28.7215C32.3848 28.0629 33.3805 27.9899 34.0391 28.5593C34.6978 29.1288 34.769 30.1226 34.2013 30.7813C33.0912 32.0661 32.0956 33.4573 31.2441 34.9188C30.9513 35.4198 30.4242 35.7 29.8827 35.7Z" fill="#4C241D"/>
<path d="M55.1737 79.5963C53.9682 79.5963 52.7536 79.5251 51.5363 79.3837C43.3739 78.4277 36.0719 74.3514 30.9757 67.9037C25.8795 61.4559 23.599 53.4106 24.555 45.2482C24.6559 44.3841 25.4452 43.7588 26.3021 43.8669C27.1661 43.9678 27.7842 44.7508 27.6824 45.614C26.8256 52.9412 28.8718 60.1629 33.4463 65.9511C38.0208 71.7385 44.5758 75.3975 51.903 76.2562C59.2311 77.1095 66.451 75.0651 72.2392 70.4923C78.0265 65.9169 81.6856 59.3628 82.5443 52.0356C83.4012 44.7094 81.3549 37.4876 76.7804 31.6994C72.2059 25.9121 65.6509 22.253 58.3237 21.3943C52.1643 20.6717 46.1112 21.9881 40.8203 25.1922C40.0743 25.6436 39.1084 25.4039 38.6579 24.6606C38.2074 23.9163 38.4443 22.9477 39.1895 22.4972C45.084 18.9273 51.8309 17.464 58.6904 18.2669C66.852 19.222 74.1548 23.2991 79.251 29.7469C84.3473 36.1937 86.6278 44.239 85.6718 52.4015C84.7167 60.5639 80.6395 67.8658 74.1918 72.9621C68.7054 77.2987 62.0612 79.5963 55.1737 79.5963V79.5963Z" fill="#4C241D"/>
<path d="M43.4837 62.029C43.081 62.029 42.6782 61.8749 42.371 61.5676C41.7556 60.9531 41.7556 59.9557 42.371 59.3412L53.5383 48.1729V32.2121C53.5383 31.3426 54.2438 30.6371 55.1133 30.6371C55.9828 30.6371 56.6883 31.3426 56.6883 32.2121V48.8253C56.6883 49.2425 56.5216 49.6434 56.227 49.938L44.5974 61.5676C44.2902 61.8749 43.8865 62.029 43.4837 62.029Z" fill="#4C241D"/>
<path d="M95.4252 77.1689C95.4252 84.6484 89.3622 90.7123 81.8827 90.7123C74.4024 90.7123 68.3394 84.6484 68.3394 77.1689C68.3394 69.6895 74.4024 63.6265 81.8827 63.6265C89.3622 63.6265 95.4252 69.6895 95.4252 77.1689Z" fill="white"/>
<path d="M81.8828 92.2864C73.5464 92.2864 66.7644 85.5053 66.7644 77.169C66.7644 68.8335 73.5464 62.0515 81.8828 62.0515C90.2182 62.0515 97.0002 68.8335 97.0002 77.169C97.0002 85.5053 90.2191 92.2864 81.8828 92.2864ZM81.8828 65.2006C75.2827 65.2006 69.9144 70.5698 69.9144 77.169C69.9144 83.7681 75.2836 89.1373 81.8828 89.1373C88.481 89.1373 93.8502 83.7681 93.8502 77.169C93.8502 70.5698 88.481 65.2006 81.8828 65.2006Z" fill="#4C241D"/>
<path d="M89.4092 80.8947L88.3541 79.663C87.2395 78.3619 86.6259 76.7049 86.6259 74.9902V74.1342C86.6259 71.7114 84.8545 69.5471 82.4424 69.3173C79.6753 69.0533 77.3471 71.2221 77.3471 73.9351V75.3452C77.3471 76.8418 76.8794 78.3015 76.01 79.5188L75.0278 80.8938H89.4092V80.8947Z" fill="#EB423F"/>
<path d="M89.4092 82.4688H75.027C74.4377 82.4688 73.8971 82.139 73.6268 81.6146C73.3565 81.0902 73.4034 80.4586 73.7467 79.9793L74.7288 78.6043C75.4118 77.6483 75.7722 76.522 75.7722 75.3462V73.9352C75.7722 72.1881 76.5137 70.5131 77.8067 69.3363C79.0997 68.1623 80.845 67.5892 82.5911 67.7496C85.7366 68.0505 88.2001 70.8554 88.2001 74.1343V74.9912C88.2001 76.3283 88.6794 77.624 89.5498 78.6394L90.6049 79.8702C91.005 80.3379 91.0969 80.9938 90.8401 81.5534C90.5824 82.1111 90.0237 82.4688 89.4092 82.4688ZM77.9698 79.3197H86.1962C85.4501 78.0087 85.051 76.5175 85.051 74.9912V74.1343C85.051 72.4602 83.8391 71.0329 82.292 70.8852C81.409 70.7978 80.5728 71.078 79.925 71.6664C79.2871 72.2466 78.9213 73.0729 78.9213 73.9352V75.3462C78.9213 76.7428 78.5951 78.0943 77.9698 79.3197Z" fill="#4C241D"/>
<path d="M81.982 85.0421C81.1125 85.0421 80.407 84.3375 80.407 83.468V81.0497C80.407 80.1802 81.1125 79.4747 81.982 79.4747C82.8515 79.4747 83.5561 80.1802 83.5561 81.0497V83.468C83.5561 84.3375 82.8515 85.0421 81.982 85.0421Z" fill="#4C241D"/>
</g>
<defs>
<clipPath id="clip0">
<rect width="97" height="97" fill="white"/>
</clipPath>
</defs>
</svg>
