<svg width="97" height="97" viewBox="0 0 97 97" fill="none" xmlns="http://www.w3.org/2000/svg">
<path fill-rule="evenodd" clip-rule="evenodd" d="M13.2062 43.5202C-9.62882 83.2846 74.2368 81.5033 60.8729 46.1333C59.7836 45.8277 58.9406 43.2464 57.7862 43.0909C47.515 41.69 37.6893 42.7098 24.1701 42.0763C22.0757 42.0334 17.1307 41.9209 13.2062 43.5202Z" fill="#E6E6E6"/>
<path fill-rule="evenodd" clip-rule="evenodd" d="M1.43188 62.4633V84.9002C1.43188 87.3312 3.41818 89.3168 5.85073 89.3168H91.1498C93.5764 89.3168 95.5686 87.3312 95.5686 84.9002V62.4633H15.1014C14.0601 62.4633 13.2061 61.61 13.2061 60.5688V24.9582C13.2061 21.722 10.5589 19.0763 7.32121 19.0763C4.07831 19.0763 1.43188 21.722 1.43188 24.9582V62.4633Z" fill="#B5722F"/>
<path fill-rule="evenodd" clip-rule="evenodd" d="M21.6626 42.066C21.915 51.6933 28.7493 59.7747 38.0814 62.4633H55.6221L60.3843 54.564L57.0829 46.1341C56.8358 48.5111 56.0409 50.1207 54.2796 51.8917C54.2367 51.9346 54.1886 51.9834 54.1405 52.0256C52.6315 53.5013 50.7252 54.655 48.6959 55.4498C44.9372 56.9092 40.75 57.1186 37.8342 55.7932L31.0043 52.6865C26.2901 50.5448 24.2557 46.4293 24.1699 42.0771C23.5468 42.066 22.6772 42.0445 21.6626 42.066Z" fill="#C2C7CC"/>
<path fill-rule="evenodd" clip-rule="evenodd" d="M48.4968 67.5238C47.8634 74.532 55.1869 81.8845 62.4083 82.4158H84.2606C92.9747 82.4158 95.5678 80.6019 95.5678 72.3319V62.4633H49.7372C49.211 63.993 48.6848 65.4635 48.4968 67.5238Z" fill="#91561A"/>
<path fill-rule="evenodd" clip-rule="evenodd" d="M45.1202 26.0313L44.073 28.3225L49.26 30.684C49.818 30.9356 50.3657 31.2634 50.897 31.6497C51.7888 29.7552 50.7793 26.761 48.8515 25.8862L47.3374 25.1995C46.4996 24.8183 45.5013 25.1884 45.1202 26.0313Z" fill="#EDA93B"/>
<path fill-rule="evenodd" clip-rule="evenodd" d="M42.43 27.5765C41.3081 45.2157 33.0395 40.3809 31.0044 52.6857L37.8343 55.7932C40.7501 57.1186 44.9373 56.9092 48.6961 55.4498C50.7904 54.6343 52.7501 53.4317 54.2797 51.8917C56.0411 50.1207 56.8359 48.5111 57.0831 46.1333C57.1038 45.9676 57.1149 45.7951 57.1312 45.6131C57.1741 44.9848 57.1741 44.3461 57.1312 43.7023C57.029 42.1837 56.6908 40.6488 56.175 39.1894C55.0746 36.0879 53.1467 33.3075 50.8977 31.6498C50.3656 31.2635 49.8187 30.9356 49.26 30.684L44.0737 28.3225L42.43 27.5765Z" fill="#FFDDA6"/>
<path fill-rule="evenodd" clip-rule="evenodd" d="M42.4285 27.5713C32.44 23.0304 24.2773 32.6703 24.164 41.5975C24.1589 41.7581 24.1589 41.9194 24.164 42.0749C24.2499 46.4286 26.285 50.5455 31.0006 52.6872C33.0358 40.3787 41.3066 45.2149 42.4285 27.5713Z" fill="#808080"/>
<path fill-rule="evenodd" clip-rule="evenodd" d="M42.4286 27.5714C35.4151 24.3825 29.3038 28.1834 26.2422 33.8248C29.5991 30.1105 34.6092 28.2263 40.184 30.7654L41.8269 31.5114L41.9994 31.5921C42.1925 30.3947 42.3376 29.0633 42.4286 27.5714Z" fill="#666666"/>
<path fill-rule="evenodd" clip-rule="evenodd" d="M42.43 27.5765C42.339 29.0307 42.1991 30.3347 42.0171 31.5047L47.0102 33.7752C47.5741 34.0327 48.1218 34.3598 48.6479 34.7462C50.9029 36.3994 52.8248 39.1791 53.9253 42.2858C54.4463 43.7459 54.7793 45.2749 54.8814 46.7994C54.9243 47.438 54.9243 48.0819 54.8814 48.7094C54.8703 48.8863 54.854 49.0639 54.8385 49.2304C54.7253 50.2872 54.5055 51.1945 54.1406 52.0264C54.1887 51.9834 54.2368 51.9346 54.2797 51.8917C56.0411 50.1215 56.8359 48.5111 57.0831 46.1341C57.1038 45.9676 57.1149 45.7959 57.1312 45.6131C57.1741 44.9855 57.1741 44.3468 57.1312 43.703C57.029 42.1844 56.6908 40.6495 56.175 39.1894C55.0746 36.0879 53.1467 33.3082 50.8977 31.6498C50.3656 31.2635 49.8187 30.9364 49.26 30.684L44.0737 28.3225L42.43 27.5765Z" fill="#FFE0B2"/>
<path fill-rule="evenodd" clip-rule="evenodd" d="M55.6221 62.4633C55.0848 68.2216 58.6178 73.3731 64.2985 74.6986H85.9738C93.3669 74.6986 95.5679 73.2066 95.5679 66.4129V36.614C95.5679 34.8431 94.1181 33.3941 92.3464 33.3941H69.598C57.8933 33.3941 57.786 37.5635 57.1303 43.703C57.1733 44.3468 57.1733 44.9855 57.1303 45.6131C57.1148 45.7959 57.1037 45.9675 57.0822 46.1341C59.1277 56.6731 56.0943 57.4243 55.6221 62.4633Z" fill="#F78411"/>
<path fill-rule="evenodd" clip-rule="evenodd" d="M69.6572 60.3704L68.9911 62.4633L68.089 65.3073C67.7241 66.4669 66.9293 67.0619 66.4194 66.7459C63.423 64.8677 60.932 68.8758 64.4058 70.8399C65.2598 71.318 64.5293 72.5894 64.4169 73.0675C64.3577 73.3354 64.3199 73.5929 64.2984 73.8504C64.2718 74.1405 64.2718 74.4247 64.2984 74.6985C64.6796 79.0611 70.956 80.8054 73.9036 74.6985C74.1345 74.2212 74.3439 73.695 74.5319 73.1207L77.9687 62.4633C78.7953 59.9034 78.6022 58.0148 77.8125 55.4868L75.9927 49.6537H69.0718L69.0503 54.467L69.8614 57.408C70.076 58.8141 70.0812 59.0287 69.6572 60.3704Z" fill="#FFE0B2"/>
<path fill-rule="evenodd" clip-rule="evenodd" d="M74.355 55.4875C75.1387 58.0148 75.337 59.9034 74.5104 62.4633L72.0297 70.1591L71.0692 73.1215C70.8864 73.695 70.6769 74.2212 70.446 74.6985C69.5062 76.6412 68.234 77.7897 66.9189 78.3107C69.0984 79.2173 72.1104 78.4018 73.9036 74.6985C74.1345 74.2212 74.3439 73.695 74.5319 73.1215L75.4288 70.3411L77.9687 62.4633C77.9687 62.4581 77.9687 62.4529 77.9738 62.447C77.9738 62.447 77.9738 62.4418 77.9738 62.4366C78.0434 62.2272 78.1026 62.0237 78.1559 61.8246C78.7576 59.5815 78.5318 57.8054 77.8125 55.4979C77.8125 55.4927 77.8125 55.4927 77.8125 55.4868L75.9927 49.6537L75.9283 49.7344C75.9283 49.7396 75.9283 49.7396 75.9224 49.7396C75.9172 49.7507 75.9121 49.7558 75.9069 49.7662C75.5413 50.228 75.0906 50.6358 74.6125 51.0117C74.1722 51.3499 73.7104 51.6667 73.2545 51.9775L74.355 55.4875Z" fill="#FCC368"/>
<path fill-rule="evenodd" clip-rule="evenodd" d="M57.1312 43.703L62.6823 51.4306C64.0944 53.3999 66.6128 54.9828 69.0505 54.4677C69.3939 54.3982 69.738 54.285 70.0762 54.1244C70.9132 53.7218 71.896 52.927 72.6745 52.3801C73.7964 51.586 75.0856 50.8237 75.9285 49.7344L75.9929 49.6537C77.6625 47.438 77.8023 44.2928 76.1165 41.9106L71.8153 35.814C71.1174 34.8534 70.3715 34.0534 69.5981 33.3941C63.3536 28.113 55.2411 32.2721 56.1758 39.1894C56.6909 40.6495 57.0291 42.1836 57.1312 43.703Z" fill="#64B0D9"/>
<path fill-rule="evenodd" clip-rule="evenodd" d="M68.4976 38.5352L72.7981 44.631C73.5551 45.7041 73.9415 46.9281 73.9903 48.1566C74.011 48.6561 73.9688 49.1601 73.8771 49.6545C73.6891 50.6306 73.2813 51.5645 72.6745 52.3801C72.6797 52.3749 72.6856 52.3697 72.6959 52.3638C73.3191 51.9242 73.9903 51.495 74.6127 51.0117C75.1011 50.6306 75.5525 50.2177 75.9226 49.7403C75.9278 49.7403 75.9278 49.7403 75.9278 49.7344L75.9921 49.6545C76.3414 49.1927 76.6204 48.6828 76.8351 48.1566C77.641 46.1496 77.4478 43.794 76.1157 41.9106L71.8153 35.814C71.1174 34.8534 70.3707 34.0542 69.5981 33.3941C65.0505 29.5465 59.5038 30.7106 57.1948 34.3058C59.8472 33.2224 63.278 33.582 66.2797 36.1197C67.0531 36.7746 67.799 37.5739 68.4976 38.5352Z" fill="#4A83C9"/>
<path d="M92.3466 31.9628H84.3792C83.5881 31.9628 82.9472 32.6037 82.9472 33.3941C82.9472 34.1852 83.5881 34.8261 84.3792 34.8261H92.3466C93.3338 34.8261 94.1367 35.6283 94.1367 36.614V66.4129C94.1367 69.4546 93.6861 71.1256 92.63 72.0018C91.5591 72.8884 89.5691 73.2673 85.974 73.2673H75.9892L79.3365 62.8873C80.3015 59.8998 79.9921 57.6781 79.1796 55.0613L77.5648 49.8869C78.088 49.0328 78.4506 48.0774 78.626 47.0569C78.9901 44.9455 78.5143 42.8253 77.2858 41.0854L72.9742 34.9741C72.9372 34.923 72.8995 34.8757 72.8625 34.8261H78.8865C79.6776 34.8261 80.3185 34.1852 80.3185 33.3941C80.3185 32.6037 79.6776 31.9628 78.8865 31.9628H70.1125C66.5735 29.198 62.6801 29.1721 60.0256 30.2348C57.8994 31.0859 56.3149 32.6096 55.4409 34.5093C54.6002 33.2246 53.6249 32.079 52.5533 31.148C52.7612 30.1023 52.6598 28.9345 52.2447 27.806C51.697 26.317 50.6758 25.1418 49.4428 24.583L47.9302 23.8963C47.1746 23.5529 46.3302 23.5248 45.5509 23.8178C44.7731 24.1101 44.1566 24.6866 43.8177 25.4363L43.364 26.4295L43.0229 26.274C43.0221 26.2733 43.0207 26.2726 43.0192 26.2726C38.775 24.344 34.3576 24.6023 30.5804 27C26.2171 29.7715 23.1636 35.1569 22.7795 40.6259C20.697 40.6185 17.5866 40.7309 14.6375 41.5339V24.9582C14.6375 20.9257 11.3553 17.6451 7.32133 17.6451C3.28435 17.6451 0 20.925 0 24.9582V84.9002C0 88.1246 2.62422 90.748 5.85085 90.748H91.1499C94.3758 90.748 97 88.1246 97 84.9002V36.614C97 34.049 94.9123 31.9628 92.3466 31.9628ZM76.6108 62.0082L73.1696 72.6812C71.9611 76.4251 69.6129 77.6033 67.8205 77.1104C66.8037 76.8299 65.8616 75.9574 65.7269 74.6061C65.7254 74.5794 65.7217 74.5528 65.7188 74.5261C65.6929 74.1813 65.7173 73.8083 65.8083 73.4057C65.8202 73.365 65.8564 73.268 65.8831 73.197C66.017 72.8366 66.1998 72.343 66.239 71.7953C66.3071 70.8362 65.8934 70.0325 65.1105 69.5944C64.4962 69.2473 64.1447 68.8092 64.1476 68.3918C64.1491 68.1343 64.2875 67.8982 64.508 67.7769C64.8041 67.6148 65.2126 67.6799 65.664 67.9626C66.1961 68.2934 66.854 68.3519 67.4683 68.1247C68.3563 67.7954 69.0808 66.9258 69.4531 65.741L71.0212 60.8026C71.5215 59.2219 71.5171 58.7741 71.2758 57.1926C71.2669 57.1371 71.2558 57.0824 71.2403 57.0284L70.7837 55.3706C71.0716 55.2271 71.3557 55.0576 71.6347 54.86L75.3091 52.2728L76.4451 55.9116C77.2369 58.4633 77.2776 59.9442 76.6108 62.0082ZM57.0476 62.5972C57.1838 61.1467 57.5493 60.1181 57.9734 58.9266C58.7727 56.6813 59.6622 54.1732 58.9503 48.6887L61.5197 52.2646C63.0294 54.3701 65.4694 55.9486 67.987 55.9982L68.4584 57.7077C68.6338 58.8578 68.6264 58.8822 68.2927 59.9375L66.7238 64.8773C66.6808 65.0128 66.6327 65.1238 66.5869 65.2126C65.4109 64.6768 64.1802 64.6901 63.1308 65.2673C62 65.8875 61.2933 67.0783 61.2851 68.3741C61.2762 69.7313 62.0111 70.9783 63.321 71.8523C63.281 71.9789 63.2307 72.1143 63.1989 72.1994C63.1308 72.3829 63.0664 72.5561 63.0213 72.7478C63.0183 72.7611 63.0161 72.7744 63.0131 72.7877C59.022 71.1419 56.6221 67.1656 57.0476 62.5972ZM61.089 32.8931C63.5341 31.9147 67.506 32.3129 70.6453 36.6392L74.9465 42.7357C75.7339 43.851 76.038 45.2134 75.8042 46.5707C75.5711 47.9279 74.8281 49.1091 73.7135 49.8943L69.9852 52.52C67.6851 54.1459 64.9987 52.2025 63.845 50.5951L58.5225 43.1857C58.3871 41.7463 58.0644 40.2988 57.5849 38.903C57.2644 36.23 58.6306 33.8773 61.089 32.8931ZM54.8038 39.5964C54.8186 39.646 54.8356 39.6949 54.8556 39.7422C55.5098 41.6294 55.8346 43.6319 55.7029 45.5124C55.6926 45.6523 55.6807 45.7885 55.6674 45.9224C55.663 45.9557 55.6585 45.989 55.6563 46.0231C55.4358 48.0449 54.7771 49.3622 53.2645 50.8822C49.4887 54.6794 42.5552 56.3653 38.4272 54.49L32.6207 51.8487C33.5184 47.6763 35.2324 45.9727 37.1942 44.0257C39.8133 41.4273 42.7565 38.5034 43.6852 29.7212L48.668 31.988C49.1313 32.1982 49.5827 32.4668 50.0201 32.7813C50.0437 32.7991 50.0682 32.8161 50.0926 32.8331C52.1122 34.3132 53.8143 36.822 54.8038 39.5964ZM46.4249 26.6211C46.4575 26.5486 46.5152 26.5138 46.5588 26.4975C46.6018 26.4813 46.6706 26.4687 46.7461 26.5035L48.2595 27.1902C48.7908 27.4315 49.2763 28.0309 49.5568 28.7947C49.6204 28.9664 49.6678 29.141 49.7063 29.3142L45.9705 27.6143L46.4249 26.6211ZM25.6013 41.6175C25.6628 36.7554 28.2811 31.8526 32.116 29.417C33.3978 28.603 35.1746 27.8481 37.3533 27.8481C38.4471 27.8481 39.6416 28.0383 40.9263 28.5068C40.2181 36.9929 37.767 39.424 35.1783 41.9927C33.1795 43.9753 31.1214 46.0171 29.9943 50.5004C26.1475 47.9509 25.571 43.9428 25.6013 41.6175ZM91.1492 87.8848H5.85085C4.20349 87.8848 2.86326 86.546 2.86326 84.9002V24.9582C2.86326 22.5042 4.86362 20.5083 7.32133 20.5083C9.77682 20.5083 11.7742 22.5042 11.7742 24.9582V43.4973V43.5106V60.5695C11.7742 62.4033 13.2669 63.8953 15.1015 63.8953H23.8637C24.6548 63.8953 25.2957 63.2544 25.2957 62.4633C25.2957 61.6729 24.6548 61.032 23.8637 61.032H15.1015C14.8499 61.032 14.6375 60.8196 14.6375 60.5688V44.5215C17.4571 43.5994 20.7111 43.481 22.8284 43.4899C23.342 48.2343 26.0335 52.0019 30.4102 53.9882C30.4109 53.989 30.4117 53.989 30.4117 53.989L37.2416 57.0964C38.7498 57.781 40.5178 58.1044 42.3813 58.1044C46.9244 58.1044 52.0315 56.1832 55.2944 52.9011C55.6815 52.5126 56.0271 52.1277 56.3371 51.7407C56.4274 54.7261 55.845 56.366 55.2752 57.9675C54.9429 58.9014 54.6025 59.8598 54.3797 61.032H29.2809C28.4905 61.032 27.8496 61.6729 27.8496 62.4633C27.8496 63.2544 28.4905 63.8953 29.2809 63.8953H54.1429C54.1991 66.4929 54.9947 68.995 56.4511 71.0701C58.0378 73.3309 60.3497 74.9961 63.0316 75.8338C63.5778 77.9148 65.2192 79.3638 67.0605 79.8708C67.5726 80.0114 68.1077 80.0854 68.6516 80.0854C70.8266 80.0854 73.1489 78.9043 74.7659 76.1306H85.974C90.0753 76.1306 92.4916 75.6406 94.1367 74.4536V84.9002C94.1367 86.546 92.7965 87.8848 91.1492 87.8848Z" fill="black"/>
<path d="M58.806 15.8127H62.0423L58.0164 19.8163C57.6057 20.2248 57.4813 20.8413 57.7026 21.3771C57.9239 21.9129 58.4464 22.2629 59.0266 22.2629H65.8454C66.6358 22.2629 67.2766 21.6221 67.2766 20.8309C67.2766 20.0406 66.6358 19.3997 65.8454 19.3997H62.4959L66.5218 15.396C66.9333 14.9868 67.0568 14.3703 66.8356 13.8345C66.6143 13.2987 66.0918 12.9494 65.5124 12.9494H58.806C58.0156 12.9494 57.3748 13.5903 57.3748 14.3807C57.3748 15.1718 58.0156 15.8127 58.806 15.8127Z" fill="black"/>
<path d="M72.8678 9.11521H76.1018L72.0789 13.113C71.6674 13.5215 71.5431 14.1387 71.7644 14.6745C71.9856 15.2103 72.5081 15.5603 73.0883 15.5603H79.9072C80.6975 15.5603 81.3384 14.9194 81.3384 14.1283C81.3384 13.3379 80.6975 12.6971 79.9072 12.6971H76.5599L80.5828 8.6993C80.9943 8.29079 81.1186 7.67433 80.8973 7.13779C80.6768 6.602 80.1536 6.25195 79.5741 6.25195H72.8678C72.0767 6.25195 71.4358 6.89284 71.4358 7.68395C71.4358 8.47433 72.0767 9.11521 72.8678 9.11521Z" fill="black"/>
</svg>
