<svg width="105" height="100" viewBox="0 0 105 100" fill="none" xmlns="http://www.w3.org/2000/svg">
<g clip-path="url(#clip0)" filter="url(#filter0_d)">
<path d="M52.5 26.0667C59.6429 26.0667 65.4333 20.5747 65.4333 13.8C65.4333 7.0253 59.6429 1.53333 52.5 1.53333C45.3571 1.53333 39.5667 7.0253 39.5667 13.8C39.5667 20.5747 45.3571 26.0667 52.5 26.0667Z" fill="#FFE0B2"/>
<path d="M52.5 1.53335C51.6861 1.53543 50.8742 1.60987 50.075 1.75568C56.1604 2.86979 60.557 7.92176 60.557 13.8C60.557 19.6783 56.1604 24.7302 50.075 25.8444C54.9045 26.7285 59.8449 24.9378 62.8218 21.224C65.7987 17.5102 66.2968 12.5164 64.107 8.33899C61.9173 4.16161 57.4187 1.52393 52.5 1.53335Z" fill="#DFC49C"/>
<path d="M78.3666 38.3333V50.6C78.3666 53.9874 75.4714 56.7334 71.9 56.7334C68.3285 56.7334 65.4333 53.9874 65.4333 50.6V84.3334C65.4333 87.7207 62.5381 90.4667 58.9666 90.4667C55.3952 90.4667 52.5 87.7207 52.5 84.3334C52.5 87.7207 49.6047 90.4667 46.0333 90.4667C42.4619 90.4667 39.5666 87.7207 39.5666 84.3334V50.6C39.5666 53.9874 36.6714 56.7334 33.1 56.7334C29.5285 56.7334 26.6333 53.9874 26.6333 50.6V38.3333C26.6333 31.5587 32.4238 26.0667 39.5666 26.0667H65.4333C72.5762 26.0667 78.3666 31.5587 78.3666 38.3333Z" fill="#FFE0B2"/>
<path d="M65.4333 26.0667H60.5833C67.7261 26.0667 73.5166 31.5587 73.5166 38.3333V50.6C73.5113 53.0947 71.9133 55.3378 69.4749 56.2733C71.466 57.0479 73.7332 56.829 75.5188 55.6897C77.3044 54.5504 78.3727 52.6411 78.3666 50.6V38.3333C78.3666 31.5587 72.5761 26.0667 65.4333 26.0667Z" fill="#DFC49C"/>
<path d="M65.4334 55.2V84.0098C65.4924 87.1296 63.1626 89.8317 59.9271 90.3961C58.7823 90.5633 57.6111 90.4286 56.5417 90.0067C58.9866 89.0787 60.5879 86.8309 60.5834 84.3333V58.2667C60.5834 56.573 62.031 55.2 63.8168 55.2H65.4334Z" fill="#DFC49C"/>
<path d="M18.55 1.53333H7.23337C6.34051 1.53333 5.6167 2.21982 5.6167 3.06666V88.9333C5.6167 89.7802 6.34051 90.4667 7.23337 90.4667H18.55C19.4429 90.4667 20.1667 89.7802 20.1667 88.9333V3.06666C20.1667 2.21982 19.4429 1.53333 18.55 1.53333Z" fill="#FFDC00"/>
<path d="M18.55 1.53333H13.7C14.5928 1.53333 15.3166 2.21982 15.3166 3.06666V88.9333C15.3166 89.7802 14.5928 90.4667 13.7 90.4667H18.55C19.4428 90.4667 20.1666 89.7802 20.1666 88.9333V3.06666C20.1666 2.21982 19.4428 1.53333 18.55 1.53333Z" fill="#FEC108"/>
<path d="M97.4434 78.2H94.5334V13.8H97.4434C98.1386 13.8598 98.8053 13.5236 99.1418 12.9435C99.4783 12.3633 99.4208 11.6493 98.9954 11.1243L91.2354 2.20186C90.844 1.7771 90.2782 1.53342 89.6834 1.53342C89.0886 1.53342 88.5228 1.7771 88.1314 2.20186L80.3714 11.1243C79.9459 11.6493 79.8885 12.3633 80.225 12.9435C80.5615 13.5236 81.2281 13.8598 81.9234 13.8H84.8334V78.2H81.9234C81.2281 78.1402 80.5615 78.4764 80.225 79.0565C79.8885 79.6367 79.9459 80.3507 80.3714 80.8757L88.1314 89.7981C88.5228 90.2229 89.0886 90.4666 89.6834 90.4666C90.2782 90.4666 90.844 90.2229 91.2354 89.7981L98.9954 80.8757C99.4208 80.3507 99.4783 79.6367 99.1418 79.0565C98.8053 78.4764 98.1386 78.1402 97.4434 78.2Z" fill="#F44335"/>
<path d="M97.4433 78.2H94.5333V13.8H97.4433C98.1385 13.8598 98.8052 13.5236 99.1417 12.9435C99.4782 12.3633 99.4207 11.6493 98.9953 11.1243L91.2353 2.20186C90.8439 1.7771 90.2781 1.53342 89.6833 1.53342C89.0885 1.53342 88.5227 1.7771 88.1313 2.20186L87.2583 3.20772L94.1421 11.1243C94.567 11.6488 94.6246 12.362 94.289 12.9419C93.9534 13.5217 93.288 13.8584 92.5933 13.8H89.6833V78.2H92.5933C93.2886 78.1402 93.9552 78.4764 94.2917 79.0565C94.6282 79.6367 94.5707 80.3507 94.1453 80.8757L87.2583 88.7923L88.1313 89.7981C88.5227 90.2229 89.0885 90.4666 89.6833 90.4666C90.2781 90.4666 90.8439 90.2229 91.2353 89.7981L98.9953 80.8757C99.4207 80.3507 99.4782 79.6367 99.1417 79.0565C98.8052 78.4764 98.1385 78.1402 97.4433 78.2Z" fill="#C81E1E"/>
<path d="M25.0166 38.3332V50.5998C25.0145 52.6338 25.8654 54.585 27.3818 56.0232C28.8982 57.4615 30.9554 58.2685 33.0999 58.2665C34.8548 58.2609 36.559 57.7081 37.9499 56.6933V84.3332C37.9399 87.6401 40.1731 90.5781 43.4842 91.6141C46.7953 92.6501 50.4334 91.5491 52.4999 88.8856C52.7297 89.1952 52.9826 89.4888 53.2565 89.7642C55.5702 91.9543 59.0469 92.6071 62.0659 91.4184C65.0849 90.2297 67.0519 87.4335 67.0499 84.3332V56.6948C69.486 58.4644 72.7714 58.7652 75.5193 57.4702C78.2673 56.1752 79.9989 53.5101 79.9833 50.5998V38.3332C79.9744 30.7151 73.4653 24.5416 65.4333 24.5332H61.6244C66.4311 20.8628 68.2739 14.7158 66.2223 9.19586C64.1706 3.67595 58.6709 -0.0160828 52.4999 -0.0160828C46.329 -0.0160828 40.8293 3.67595 38.7776 9.19586C36.726 14.7158 38.5687 20.8628 43.3755 24.5332H39.5666C31.5346 24.5416 25.0255 30.7151 25.0166 38.3332ZM41.1833 13.7998C41.1833 7.87196 46.2499 3.06648 52.4999 3.06648C58.75 3.06648 63.8166 7.87196 63.8166 13.7998C63.8166 19.7277 58.75 24.5332 52.4999 24.5332C46.2529 24.5264 41.1904 19.7249 41.1833 13.7998ZM65.4333 27.5998C71.6803 27.6066 76.7428 32.4081 76.7499 38.3332V50.5998C76.7499 53.1403 74.5785 55.1998 71.8999 55.1998C69.2214 55.1998 67.0499 53.1403 67.0499 50.5998V38.3332C67.0499 37.4863 66.3261 36.7998 65.4333 36.7998C64.5404 36.7998 63.8166 37.4863 63.8166 38.3332V84.3332C63.8166 86.8737 61.6452 88.9332 58.9666 88.9332C56.288 88.9332 54.1166 86.8737 54.1166 84.3332V64.3998C54.1166 63.553 53.3928 62.8665 52.4999 62.8665C51.6071 62.8665 50.8833 63.553 50.8833 64.3998V84.3332C50.8833 85.9766 49.9589 87.4952 48.4583 88.3169C46.9577 89.1386 45.1089 89.1386 43.6083 88.3169C42.1077 87.4952 41.1833 85.9766 41.1833 84.3332V38.3332C41.1833 37.4863 40.4595 36.7998 39.5666 36.7998C38.6737 36.7998 37.9499 37.4863 37.9499 38.3332V50.5998C37.9499 53.1403 35.7785 55.1998 33.0999 55.1998C30.4214 55.1998 28.2499 53.1403 28.2499 50.5998V38.3332C28.2571 32.4081 33.3195 27.6066 39.5666 27.5998H65.4333Z" fill="black"/>
<path d="M7.23333 92H18.55C20.3357 92 21.7833 90.627 21.7833 88.9333V3.06667C21.7833 1.37299 20.3357 0 18.55 0H7.23333C5.44761 0 4 1.37299 4 3.06667V88.9333C4 90.627 5.44761 92 7.23333 92ZM18.55 3.06667V88.9333H7.23333V84.3333H12.0833C12.9762 84.3333 13.7 83.6468 13.7 82.8C13.7 81.9532 12.9762 81.2667 12.0833 81.2667H7.23333V78.2H10.4667C11.3595 78.2 12.0833 77.5135 12.0833 76.6667C12.0833 75.8198 11.3595 75.1333 10.4667 75.1333H7.23333V72.0667H12.0833C12.9762 72.0667 13.7 71.3802 13.7 70.5333C13.7 69.6865 12.9762 69 12.0833 69H7.23333V65.9333H10.4667C11.3595 65.9333 12.0833 65.2468 12.0833 64.4C12.0833 63.5532 11.3595 62.8667 10.4667 62.8667H7.23333V59.8H12.0833C12.9762 59.8 13.7 59.1135 13.7 58.2667C13.7 57.4198 12.9762 56.7333 12.0833 56.7333H7.23333V53.6667H10.4667C11.3595 53.6667 12.0833 52.9802 12.0833 52.1333C12.0833 51.2865 11.3595 50.6 10.4667 50.6H7.23333V47.5333H12.0833C12.9762 47.5333 13.7 46.8468 13.7 46C13.7 45.1532 12.9762 44.4667 12.0833 44.4667H7.23333V41.4H10.4667C11.3595 41.4 12.0833 40.7135 12.0833 39.8667C12.0833 39.0198 11.3595 38.3333 10.4667 38.3333H7.23333V35.2667H12.0833C12.9762 35.2667 13.7 34.5802 13.7 33.7333C13.7 32.8865 12.9762 32.2 12.0833 32.2H7.23333V29.1333H10.4667C11.3595 29.1333 12.0833 28.4468 12.0833 27.6C12.0833 26.7532 11.3595 26.0667 10.4667 26.0667H7.23333V23H12.0833C12.9762 23 13.7 22.3135 13.7 21.4667C13.7 20.6198 12.9762 19.9333 12.0833 19.9333H7.23333V16.8667H10.4667C11.3595 16.8667 12.0833 16.1802 12.0833 15.3333C12.0833 14.4865 11.3595 13.8 10.4667 13.8H7.23333V10.7333H12.0833C12.9762 10.7333 13.7 10.0468 13.7 9.2C13.7 8.35316 12.9762 7.66667 12.0833 7.66667H7.23333V3.06667H18.55Z" fill="black"/>
<path d="M97.4434 15.3334C98.8229 15.3571 100.091 14.617 100.69 13.4382C101.233 12.3528 101.058 11.0666 100.242 10.1476L92.4819 1.22669C91.7634 0.481745 90.7479 0.0574646 89.6834 0.0574646C88.619 0.0574646 87.6035 0.481745 86.885 1.22669L79.125 10.1476C78.309 11.0666 78.134 12.3528 78.6772 13.4382C79.2762 14.617 80.544 15.3571 81.9234 15.3334H83.2168V76.6667H81.9234C80.544 76.6429 79.2762 77.3831 78.6772 78.5619C78.134 79.6472 78.309 80.9335 79.125 81.8524L86.885 90.7734C87.5832 91.5515 88.6062 91.9998 89.6834 91.9998C90.7607 91.9998 91.7837 91.5515 92.4819 90.7734L100.242 81.8524C101.058 80.9335 101.233 79.6472 100.69 78.5619C100.091 77.3831 98.8229 76.6429 97.4434 76.6667H96.1501V15.3334H97.4434ZM94.5334 79.7334H97.4434C97.6924 79.7334 97.7668 79.8591 97.7474 79.9005L89.9874 88.8214C89.9083 88.9006 89.7984 88.9454 89.6834 88.9454C89.5685 88.9454 89.4586 88.9006 89.3795 88.8214L81.6001 79.8867C81.6001 79.8622 81.6777 79.7334 81.9234 79.7334H84.8334C85.7263 79.7334 86.4501 79.0469 86.4501 78.2V13.8C86.4501 12.9532 85.7263 12.2667 84.8334 12.2667H81.9234C81.6745 12.2667 81.6001 12.141 81.6195 12.0996L89.3795 3.17862C89.4586 3.09948 89.5685 3.05465 89.6834 3.05465C89.7984 3.05465 89.9083 3.09948 89.9874 3.17862L97.7668 12.1134C97.7668 12.1379 97.6892 12.2667 97.4434 12.2667H94.5334C93.6406 12.2667 92.9168 12.9532 92.9168 13.8V78.2C92.9168 79.0469 93.6406 79.7334 94.5334 79.7334Z" fill="black"/>
</g>
<defs>
<filter id="filter0_d" x="0" y="0" width="105" height="100" filterUnits="userSpaceOnUse" color-interpolation-filters="sRGB">
<feFlood flood-opacity="0" result="BackgroundImageFix"/>
<feColorMatrix in="SourceAlpha" type="matrix" values="0 0 0 0 0 0 0 0 0 0 0 0 0 0 0 0 0 0 127 0"/>
<feOffset dy="4"/>
<feGaussianBlur stdDeviation="2"/>
<feColorMatrix type="matrix" values="0 0 0 0 0 0 0 0 0 0 0 0 0 0 0 0 0 0 0.25 0"/>
<feBlend mode="normal" in2="BackgroundImageFix" result="effect1_dropShadow"/>
<feBlend mode="normal" in="SourceGraphic" in2="effect1_dropShadow" result="shape"/>
</filter>
<clipPath id="clip0">
<rect width="97" height="92" fill="white" transform="translate(4)"/>
</clipPath>
</defs>
</svg>
