<svg width="22" height="22" viewBox="0 0 22 22" fill="none" xmlns="http://www.w3.org/2000/svg">
<g clip-path="url(#clip0)">
<path d="M9.38399 6.02329C5.64222 9.76471 4.18214 14.3705 6.12198 16.3105C8.062 18.2504 12.6682 16.7907 16.4099 13.0491C20.1517 9.30764 19.6716 2.76163 19.6716 2.76163C19.6716 2.76163 13.1259 2.28186 9.38399 6.02329Z" fill="#64C37D"/>
<path d="M2.25182 9.891C2.25182 15.1824 4.47599 19.4717 7.21959 19.4717C9.9632 19.4717 12.1874 15.1824 12.1874 9.891C12.1874 4.59958 7.21959 0.310303 7.21959 0.310303C7.21959 0.310303 2.25182 4.59958 2.25182 9.891Z" fill="#C2FB3B"/>
<path d="M1.89698 9.89104C1.89698 4.49999 6.77986 0.221282 6.98777 0.041782C7.12101 -0.0730907 7.31818 -0.0730907 7.45125 0.041782C8.82695 1.29793 9.99993 2.7594 10.9286 4.37437C14.7109 2.07536 19.4892 2.39295 19.6969 2.40854C19.8722 2.42154 20.0117 2.56101 20.0247 2.73635C20.045 3.01028 20.4721 9.48907 16.6608 13.3C15.049 14.9706 13.084 16.2596 10.9099 17.0731C10.0093 18.6976 8.83908 19.6525 7.57444 19.8028V21.6008C7.57444 21.7967 7.41556 21.9556 7.2196 21.9556C7.02364 21.9556 6.86476 21.7967 6.86476 21.6008V19.8032C4.05185 19.4717 1.89698 15.2396 1.89698 9.89104ZM16.1591 12.7984C19.2799 9.6781 19.3628 4.43536 19.3299 3.10332C18.2103 3.07422 14.3294 3.12498 11.2689 4.99812C12.0749 6.50532 12.5114 8.18233 12.5422 9.89104C12.5743 12.0324 12.1761 14.1585 11.3711 16.143C13.164 15.3403 14.7886 14.2054 16.1591 12.7984ZM6.86476 19.0854V13.9277L4.46854 11.1895C4.33929 11.0418 4.35419 10.8176 4.50181 10.6884C4.64943 10.5593 4.87363 10.5742 5.00288 10.7218L6.86476 12.8509V7.76199C6.86476 7.56603 7.02364 7.40715 7.2196 7.40715C7.41556 7.40715 7.57444 7.56603 7.57444 7.76199V12.8497L9.43631 10.7206C9.56539 10.5732 9.78977 10.5583 9.93721 10.6874C10.0848 10.8164 10.0997 11.0408 9.97065 11.1884L7.57444 13.9277V19.0868C8.60344 18.9246 9.57856 18.0642 10.352 16.6181C11.3074 14.8493 11.8325 12.4609 11.8325 9.89104C11.7946 8.18822 11.3335 6.52161 10.4908 5.04143C9.62205 3.46752 8.51889 2.03482 7.2196 0.79218C6.25435 1.7096 2.60667 5.47008 2.60667 9.89104C2.60667 14.6533 4.52277 18.7089 6.86476 19.0854Z" fill="#222222"/>
</g>
<defs>
<clipPath id="clip0">
<rect width="22" height="22" fill="white" transform="matrix(-1 0 0 1 22 0)"/>
</clipPath>
</defs>
</svg>
