<svg width="105" height="103" viewBox="0 0 105 103" fill="none" xmlns="http://www.w3.org/2000/svg">
<g filter="url(#filter0_d)">
<path d="M88.6791 93.2689H16.3209C10.301 93.2689 5.4209 88.3888 5.4209 82.3689V14.6313C5.4209 8.61142 10.301 3.73129 16.3209 3.73129H88.6791C94.699 3.73129 99.5791 8.61142 99.5791 14.6313V82.3689C99.5791 88.3888 94.699 93.2689 88.6791 93.2689Z" fill="#76B7EB"/>
<path d="M5.4209 54.1052V82.3687C5.4209 88.3886 10.301 93.2687 16.3209 93.2687H88.6791C94.699 93.2687 99.5791 88.3886 99.5791 82.3687V54.1052H5.4209Z" fill="#B3E7FF"/>
<path d="M65.7624 27.5328H39.2378C37.7245 27.5328 36.4976 26.3059 36.4976 24.7926V14.3581C36.4976 12.8447 37.7245 11.6178 39.2378 11.6178H65.7624C67.2757 11.6178 68.5026 12.8447 68.5026 14.3581V24.7926C68.5026 26.3059 67.2757 27.5328 65.7624 27.5328Z" fill="white"/>
<path d="M62.7322 27.5328C62.7322 21.8818 58.151 17.3007 52.5 17.3007C46.849 17.3007 42.2678 21.8818 42.2678 27.5328H62.7322Z" fill="#7FDBD5"/>
<path d="M29.4758 81.8871C23.1803 75.4188 16.7266 64.1088 18.9869 47.1759C19.7628 41.3638 23.9929 35.9949 30.1679 35.9949C36.3429 35.9949 40.5462 40.5248 41.3489 47.1759C41.9847 52.4453 40.6414 55.9775 39.5549 60.5431C38.0541 66.8491 41.9083 71.0972 41.9083 76.7376C41.9083 80.7597 38.6478 84.0202 34.6257 84.0202C32.6145 84.0202 30.7939 83.205 29.4758 81.8871Z" fill="#38648C"/>
<path opacity="0.1" d="M34.6257 81.2616C33.4229 81.2616 32.2919 80.7953 31.4387 79.9485C27.9735 76.3839 25.3399 72.1964 23.6121 67.5027C21.3938 61.4774 20.7578 54.7613 21.7217 47.5408C22.3046 43.1743 25.3931 38.7536 30.1683 38.7536C34.7932 38.7536 37.9493 42.0256 38.6105 47.5063C39.0712 51.3246 38.3665 54.0523 37.4743 57.5059C37.2758 58.2743 37.0704 59.0689 36.8717 59.9043C35.8193 64.3258 36.9444 67.8682 37.937 70.9938C38.5609 72.9582 39.1501 74.8136 39.1501 76.7376C39.1497 79.2324 37.1203 81.2616 34.6257 81.2616Z" fill="black"/>
<path d="M75.5241 81.8871C81.8196 75.4188 88.2733 64.1088 86.013 47.1759C85.2372 41.3638 81.0071 35.9949 74.8322 35.9949C68.6572 35.9949 64.454 40.5248 63.6512 47.1759C63.0154 52.4453 64.3587 55.9775 65.4452 60.5431C66.946 66.8491 63.0918 71.0972 63.0918 76.7376C63.0918 80.7597 66.3523 84.0202 70.3744 84.0202C72.3854 84.0202 74.2061 83.205 75.5241 81.8871Z" fill="#38648C"/>
<path opacity="0.1" d="M70.3743 81.2616C67.8798 81.2616 65.8503 79.2322 65.8503 76.7376C65.8503 74.8136 66.4395 72.958 67.0634 70.9938C68.056 67.8682 69.1811 64.3256 68.1287 59.9045C67.9298 59.0689 67.7246 58.2743 67.5261 57.5059C66.6339 54.0523 65.9292 51.3244 66.3899 47.5063C67.0511 42.0255 70.2072 38.7536 74.8321 38.7536C79.6073 38.7536 82.6958 43.1743 83.2787 47.5408C84.2426 54.7611 83.6065 61.4774 81.3883 67.5027C79.6603 72.1964 77.0269 76.3839 73.5617 79.9485C72.7082 80.7953 71.5771 81.2616 70.3743 81.2616Z" fill="black"/>
<path d="M5.4209 77.7267V82.3687C5.4209 88.3886 10.301 93.2687 16.3209 93.2687H20.9629C20.9629 84.685 14.0045 77.7267 5.4209 77.7267Z" fill="#38648C"/>
<path d="M99.5791 77.7267V82.3687C99.5791 88.3886 94.699 93.2687 88.6791 93.2687H84.0371C84.0371 84.685 90.9955 77.7267 99.5791 77.7267Z" fill="#38648C"/>
<path d="M26.4428 17.6188C28.0068 17.6188 29.2747 16.3509 29.2747 14.7868C29.2747 13.2228 28.0068 11.9549 26.4428 11.9549C24.8787 11.9549 23.6108 13.2228 23.6108 14.7868C23.6108 16.3509 24.8787 17.6188 26.4428 17.6188Z" fill="#B3E7FF"/>
<path d="M15.8769 17.6188C17.4409 17.6188 18.7088 16.3509 18.7088 14.7868C18.7088 13.2228 17.4409 11.9549 15.8769 11.9549C14.3128 11.9549 13.0449 13.2228 13.0449 14.7868C13.0449 16.3509 14.3128 17.6188 15.8769 17.6188Z" fill="#B3E7FF"/>
<path d="M26.4428 27.3017C28.0068 27.3017 29.2747 26.0338 29.2747 24.4698C29.2747 22.9057 28.0068 21.6378 26.4428 21.6378C24.8787 21.6378 23.6108 22.9057 23.6108 24.4698C23.6108 26.0338 24.8787 27.3017 26.4428 27.3017Z" fill="#B3E7FF"/>
<path d="M15.8769 27.3017C17.4409 27.3017 18.7088 26.0338 18.7088 24.4698C18.7088 22.9057 17.4409 21.6378 15.8769 21.6378C14.3128 21.6378 13.0449 22.9057 13.0449 24.4698C13.0449 26.0338 14.3128 27.3017 15.8769 27.3017Z" fill="#B3E7FF"/>
<path d="M78.5575 17.6188C80.1216 17.6188 81.3895 16.3509 81.3895 14.7868C81.3895 13.2228 80.1216 11.9549 78.5575 11.9549C76.9935 11.9549 75.7256 13.2228 75.7256 14.7868C75.7256 16.3509 76.9935 17.6188 78.5575 17.6188Z" fill="#B3E7FF"/>
<path d="M89.1232 17.6188C90.6872 17.6188 91.9552 16.3509 91.9552 14.7868C91.9552 13.2228 90.6872 11.9549 89.1232 11.9549C87.5592 11.9549 86.2913 13.2228 86.2913 14.7868C86.2913 16.3509 87.5592 17.6188 89.1232 17.6188Z" fill="#B3E7FF"/>
<path d="M78.5575 27.3017C80.1216 27.3017 81.3895 26.0338 81.3895 24.4698C81.3895 22.9057 80.1216 21.6378 78.5575 21.6378C76.9935 21.6378 75.7256 22.9057 75.7256 24.4698C75.7256 26.0338 76.9935 27.3017 78.5575 27.3017Z" fill="#B3E7FF"/>
<path d="M89.1232 27.3017C90.6872 27.3017 91.9552 26.0338 91.9552 24.4698C91.9552 22.9057 90.6872 21.6378 89.1232 21.6378C87.5592 21.6378 86.2913 22.9057 86.2913 24.4698C86.2913 26.0338 87.5592 27.3017 89.1232 27.3017Z" fill="#B3E7FF"/>
<path opacity="0.1" d="M61.6277 93.2689C28.2316 74.5648 19.092 22.1031 28.9222 3.73108H16.3209C10.301 3.73108 5.4209 8.61101 5.4209 14.6313V82.3689C5.4209 88.3888 10.301 93.2689 16.3209 93.2689H61.6277Z" fill="black"/>
<path d="M39.2377 10.1969C36.9432 10.1969 35.0766 12.0636 35.0766 14.3581V24.7926C35.0766 27.0871 36.9432 28.9537 39.2377 28.9537H52.4958C52.4968 28.9537 52.4977 28.9539 52.4987 28.9539C52.4996 28.9539 52.5006 28.9537 52.5015 28.9537H65.7623C68.0568 28.9537 69.9234 27.0872 69.9234 24.7926V14.3581C69.9234 12.0636 68.0568 10.1969 65.7623 10.1969H39.2377ZM67.0816 14.3581V24.7926C67.0816 25.5201 66.4898 26.1119 65.7623 26.1119H54.9989L59.5634 18.4415C59.9646 17.7673 59.7434 16.8952 59.0689 16.494C58.3945 16.0925 57.5224 16.3142 57.1211 16.9884L51.692 26.1119H39.2375C38.51 26.1119 37.9182 25.5201 37.9182 24.7926V14.3581C37.9182 13.6306 38.51 13.0387 39.2375 13.0387H65.7621C66.4898 13.0387 67.0816 13.6306 67.0816 14.3581ZM99.5791 30.2685C100.364 30.2685 101 29.6325 101 28.8476V14.6311C101 7.83729 95.4729 2.31018 88.6791 2.31018H16.3209C9.5271 2.31018 4 7.83729 4 14.6313V82.3689C4 89.1627 9.5271 94.6898 16.3209 94.6898H88.6791C95.4729 94.6898 101 89.1627 101 82.3689V35.5128C101 34.7279 100.364 34.0919 99.5791 34.0919C98.7944 34.0919 98.1582 34.7279 98.1582 35.5128V52.6841H87.877C87.8298 50.8178 87.6792 48.9183 87.4213 46.9878C86.5978 40.8188 82.009 34.5739 74.832 34.5739C68.0941 34.5739 63.1516 39.4536 62.2405 47.0054C61.9865 49.1102 62.0331 50.9566 62.2445 52.6841H42.7555C42.9669 50.9566 43.0135 49.1102 42.7595 47.0054C41.8482 39.4536 36.9059 34.5739 30.168 34.5739C22.991 34.5739 18.4022 40.8188 17.5787 46.9878C17.321 48.9183 17.1704 50.8178 17.123 52.6841H6.8418V14.6313C6.8418 9.40444 11.0941 5.15217 16.3209 5.15217H88.6791C93.9059 5.15198 98.1582 9.40425 98.1582 14.6313V28.8478C98.1582 29.6324 98.7944 30.2685 99.5791 30.2685ZM98.1582 82.3689C98.1582 87.5957 93.9059 91.848 88.6791 91.848H85.5294C86.1975 85.1937 91.504 79.8873 98.1582 79.2193V82.3689ZM66.8274 60.2143C66.6315 59.3911 66.4278 58.6026 66.2308 57.8402C65.34 54.3926 64.5708 51.4147 65.0617 47.346C65.8007 41.2208 69.5445 37.4158 74.832 37.4158C80.3759 37.4158 83.9445 42.4203 84.6045 47.3638C85.5975 54.8022 84.9376 61.7333 82.6435 67.9648C80.849 72.8394 78.1135 77.1876 74.5126 80.8891C73.4062 81.9921 71.9369 82.5993 70.3743 82.5993C67.1423 82.5993 64.5128 79.9697 64.5128 76.7376C64.5128 74.6063 65.1325 72.6549 65.7886 70.5891C66.7745 67.4845 67.794 64.2746 66.8274 60.2143ZM20.3955 47.3638C21.0553 42.4203 24.6241 37.4158 30.168 37.4158C35.4555 37.4158 39.1993 41.2208 39.9383 47.346C40.4292 51.4147 39.66 54.3924 38.7692 57.8402C38.5722 58.6026 38.3685 59.3911 38.1726 60.2143C37.2062 64.2746 38.2257 67.4845 39.2116 70.5891C39.8676 72.6549 40.4873 74.6063 40.4873 76.7376C40.4873 79.9697 37.8579 82.5993 34.6259 82.5993C33.0634 82.5993 31.594 81.9921 30.4876 80.8891C26.8867 77.1876 24.1512 72.8394 22.3567 67.9648C20.0624 61.7333 19.4025 54.8022 20.3955 47.3638ZM17.1331 55.5261C17.2888 60.2506 18.1415 64.7416 19.6898 68.9467C21.6239 74.2003 24.5739 78.8877 28.4578 82.8783C28.4622 82.8827 28.4667 82.8874 28.4713 82.892C30.1152 84.5359 32.3007 85.4411 34.6255 85.4411C39.4245 85.4411 43.3288 81.5368 43.3288 76.7376C43.3288 74.166 42.6124 71.9103 41.9196 69.729C41.011 66.8679 40.153 64.1659 40.9367 60.8722C41.1264 60.0756 41.3266 59.3005 41.5202 58.5511C41.7821 57.5379 42.0384 56.54 42.2604 55.5261H62.7388C62.9608 56.54 63.2174 57.5379 63.479 58.5511C63.6726 59.3005 63.8729 60.0756 64.0625 60.8722C64.8465 64.1659 63.9882 66.8679 63.0796 69.729C62.387 71.9103 61.6705 74.166 61.6705 76.7376C61.6705 81.5368 65.5747 85.4411 70.3738 85.4411C72.6985 85.4411 74.8843 84.5359 76.528 82.892C76.5325 82.8874 76.5371 82.8827 76.5414 82.8783C80.4254 78.8877 83.3754 74.2003 85.3095 68.9467C86.8575 64.7416 87.7102 60.2506 87.8662 55.5261H98.1582V76.3659C89.9359 77.0511 83.3613 83.6255 82.6761 91.8478H22.323C22.2231 90.6457 21.9984 89.4605 21.6474 88.3103C21.4183 87.5595 20.6241 87.1373 19.8735 87.3663C19.1229 87.5954 18.7002 88.3894 18.9293 89.14C19.1983 90.0213 19.3775 90.9278 19.4694 91.8478H16.3209C11.0941 91.848 6.8418 87.5954 6.8418 82.3689V79.2215C10.315 79.5745 13.5657 81.2085 15.9227 83.8285C16.2032 84.1403 16.5905 84.2989 16.9794 84.2989C17.318 84.2989 17.6577 84.1786 17.9294 83.9344C18.5129 83.4094 18.5602 82.511 18.0354 81.9275C15.1398 78.7091 11.1214 76.7279 6.8418 76.3667V55.5261H17.1331Z" fill="black"/>
</g>
<defs>
<filter id="filter0_d" x="0" y="0" width="105" height="105" filterUnits="userSpaceOnUse" color-interpolation-filters="sRGB">
<feFlood flood-opacity="0" result="BackgroundImageFix"/>
<feColorMatrix in="SourceAlpha" type="matrix" values="0 0 0 0 0 0 0 0 0 0 0 0 0 0 0 0 0 0 127 0"/>
<feOffset dy="4"/>
<feGaussianBlur stdDeviation="2"/>
<feColorMatrix type="matrix" values="0 0 0 0 0 0 0 0 0 0 0 0 0 0 0 0 0 0 0.25 0"/>
<feBlend mode="normal" in2="BackgroundImageFix" result="effect1_dropShadow"/>
<feBlend mode="normal" in="SourceGraphic" in2="effect1_dropShadow" result="shape"/>
</filter>
</defs>
</svg>
