<svg width="105" height="105" viewBox="0 0 105 105" fill="none" xmlns="http://www.w3.org/2000/svg">
<g filter="url(#filter0_d)">
<path d="M51.6167 10.4029C57.6957 14.3907 63.1108 14.5159 66.3569 12.8449C65.7185 6.68031 60.5104 1.88032 54.1914 1.89453C47.4516 1.90969 42.0001 7.39644 42.0154 14.1493C42.0156 14.2694 42.0177 14.3892 42.0213 14.5083C44.7646 14.55 49.4765 13.1066 51.6167 10.4029Z" fill="#808080"/>
<path d="M66.3567 12.8449C63.1106 14.5159 57.6953 14.3907 51.6165 10.4029C49.4762 13.1065 44.7643 14.55 42.0212 14.5081C42.2257 21.0947 47.6264 26.3635 54.2463 26.3486C60.9861 26.3334 66.4376 20.8468 66.4224 14.0938C66.4215 13.6723 66.3993 13.2556 66.3567 12.8449Z" fill="#FFE0B2"/>
<path d="M63.4768 31.7361L43.751 31.709L34.9787 24.2621C27.6092 18.0062 19.0961 27.6244 27.0979 34.4998L37.7487 43.6513L37.6264 54.9664C37.6264 54.9679 37.6264 54.9694 37.6264 54.9708V57.3922C37.6264 57.5812 37.6154 57.7677 37.5941 57.9511L37.5843 58.8438H68.9644L68.9411 43.618L79.7262 34.5941C87.0598 28.4583 79.7687 18.4469 72.2906 24.5467L63.4768 31.7361Z" fill="#64B0D9"/>
<path d="M68.9643 58.8439H37.5842V62.2319V82.7323V87.9199C37.5842 91.7322 40.4524 94.8514 43.9578 94.8514C47.6779 94.8514 50.3316 91.492 50.3316 87.9199V82.7323V69.8495H56.3626V82.7323V87.9199C56.3626 91.7322 59.2308 94.8514 62.7362 94.8514C66.4563 94.8514 69.1098 91.492 69.1098 87.9199C69.1096 78.2202 68.9789 68.5286 68.9643 58.8439Z" fill="#E63A3B"/>
<path d="M37.5843 82.7323V62.2319H32.7961H27.7449H15.226H14.3884H10.1941C7.88733 62.2319 6 64.1229 6 66.4342V70.1191V78.53C6 80.8414 7.88733 82.7323 10.1941 82.7323H14.8806H37.5843Z" fill="#B5722F"/>
<path d="M27.7449 62.2319H32.7961C35.2641 62.2319 37.3153 60.3522 37.5942 57.9511L37.6264 54.9708C37.6264 54.9695 37.6264 54.9679 37.6264 54.9664C37.6239 52.3069 35.4492 50.2386 32.7961 50.131H14.3884V62.2319H15.226H27.7449Z" fill="white"/>
<path d="M14.3884 62.2319V50.131V38.0303C14.3884 36.9339 13.4932 36.037 12.3992 36.037H7.98926C6.89517 36.037 6 36.9337 6 38.0303V66.4342C6 64.1229 7.88733 62.2319 10.1941 62.2319H14.3884Z" fill="#FF984A"/>
<path d="M14.8806 82.7323H10.1941C7.88733 82.7323 6 80.8412 6 78.53V93.619C6 94.4365 6.66744 95.1055 7.48342 95.1055H13.397C14.2132 95.1055 14.8806 94.4365 14.8806 93.619V82.7323Z" fill="#FF984A"/>
<path d="M56.3631 69.8495H50.332V82.7323H56.3631V69.8495Z" fill="#B5722F"/>
<path d="M68.9739 62.2319C69.001 69.0617 69.0714 75.8951 69.0987 82.7323H90.3302H95.0167C97.3234 82.7323 99.2108 80.8411 99.2108 78.53V66.4342C99.2108 64.1229 97.3234 62.2319 95.0167 62.2319H68.9739Z" fill="#B5722F"/>
<path d="M90.3301 82.7323V93.5396C90.3301 94.3573 90.9975 95.0263 91.8137 95.0263H97.7271C98.5433 95.0263 99.2107 94.3573 99.2107 93.5396V78.53C99.2107 80.8412 97.3234 82.7323 95.0166 82.7323H90.3301Z" fill="#FF984A"/>
<path d="M52.9498 68.2243H52.8945C51.8484 68.2243 51 69.0725 51 70.1189C51 71.1652 51.8484 72.0134 52.8945 72.0134H52.9498C53.996 72.0134 54.8444 71.1652 54.8444 70.1189C54.8444 69.0725 53.996 68.2243 52.9498 68.2243Z" fill="black"/>
<path d="M94.9114 60.3374H70.7566C70.7551 59.838 70.754 59.3388 70.7534 58.8411L70.7315 44.5021L80.8365 36.0474C84.7487 32.7741 85.0689 28.651 84.064 25.884C82.9319 22.7671 80.1283 20.7531 76.9211 20.7531C74.9047 20.7531 72.853 21.5573 70.9878 23.079L62.6977 29.8409L44.3421 29.8157L36.0992 22.8181C34.1922 21.1994 32.0406 20.3437 29.8766 20.3437C26.5461 20.3437 23.53 22.4441 22.3715 25.5703C21.0587 29.1119 22.3249 32.9874 25.7577 35.937L35.7393 44.5133L35.6908 48.9929C34.8128 48.5489 33.8228 48.281 32.7673 48.2382C32.7417 48.2372 32.716 48.2367 32.6906 48.2367H16.1775V38.0302C16.1775 35.8866 14.4353 34.1427 12.2937 34.1427H7.88379C5.74221 34.1427 4 35.8866 4 38.0302V93.619C4 95.4832 5.51525 97 7.37795 97H13.2915C15.1542 97 16.6697 95.4832 16.6697 93.619V84.6268H35.5843V87.9199C35.5843 92.7865 39.2932 96.7459 43.8524 96.7459C48.4114 96.7459 52.1207 92.7865 52.1207 87.9199V84.6268H54.3627V87.9199C54.3627 92.7865 58.0716 96.7459 62.6308 96.7459C67.1898 96.7459 70.8989 92.7865 70.8989 87.9199C70.8989 86.825 70.8968 85.7262 70.894 84.6268H88.3303V93.5396C88.3303 95.404 89.8458 96.9208 91.7085 96.9208H97.6219C99.4846 96.9208 101 95.404 101 93.5396V66.4342C101 63.0723 98.2685 60.3374 94.9114 60.3374ZM28.2269 33.0628C26.0137 31.1612 25.1746 28.9102 25.9245 26.8868C26.5351 25.2393 28.1233 24.1325 29.8766 24.1325C31.1303 24.1325 32.4341 24.6766 33.647 25.7065L42.4192 33.1533C42.761 33.4434 43.1944 33.6029 43.6427 33.6035L63.3685 33.6306H63.3712C63.8075 33.6306 64.2306 33.48 64.5685 33.2041L73.3825 26.0147C74.5637 25.0512 75.7872 24.5417 76.9209 24.5417C78.5151 24.5417 79.9209 25.5764 80.5023 27.177C81.2364 29.1983 80.4523 31.428 78.4049 33.141L67.6197 42.1649C67.1887 42.5254 66.9399 43.0589 66.9409 43.6208L66.9611 56.9492H39.4154C39.4154 56.9498 39.4154 56.9487 39.4154 56.9492L39.5376 43.6718C39.5437 43.1123 39.3023 42.5788 38.8779 42.2143L28.2269 33.0628ZM32.648 52.0255C34.3199 52.11 35.6247 53.396 35.6262 54.9679L35.5957 57.7946C35.399 59.2283 34.1731 60.3374 32.6906 60.3374H16.1775V52.0255H32.648ZM7.88379 37.9315H12.2935C12.3412 37.9315 12.3882 37.9804 12.3882 38.0301V60.3374H10.0886C9.27513 60.3374 8.49913 60.4992 7.78906 60.7904V38.0301C7.78906 37.9804 7.83605 37.9315 7.88379 37.9315ZM12.8806 93.2109H7.78906V84.174C8.49913 84.4652 9.27513 84.627 10.0886 84.627H12.8806V93.2109ZM10.0886 80.8377C8.82082 80.8377 7.78906 79.8026 7.78906 78.53V72.0136H19.7083C20.7545 72.0136 21.6028 71.1654 21.6028 70.1191C21.6028 69.0727 20.7545 68.2245 19.7083 68.2245H7.78906V66.4344C7.78906 65.1618 8.82063 64.1267 10.0886 64.1267H35.5843V80.8379L10.0886 80.8377ZM52.1205 80.8377V71.744H54.3625V80.8377H52.1205ZM62.6306 92.9571C60.1609 92.9571 58.1516 90.6974 58.1516 87.9201V69.8495C58.1516 68.8031 57.3032 67.9549 56.257 67.9549H50.226C49.1798 67.9549 48.3315 68.8031 48.3315 69.8495V87.9199C48.3315 90.3424 46.619 92.9569 43.8522 92.9569C41.3825 92.9569 39.3732 90.6973 39.3732 87.9199V60.7385H66.9685C66.97 61.2358 66.9716 61.7331 66.9735 62.2312C66.9735 62.231 66.9735 62.2314 66.9735 62.2312C66.9735 62.2316 66.9735 62.2325 66.9735 62.2329C66.9871 65.6845 67.0119 69.1472 67.036 72.5234C67.072 77.5697 67.1095 82.7878 67.1095 87.9201C67.1097 90.3424 65.3972 92.9571 62.6306 92.9571ZM70.8254 72.4963C70.8057 69.7458 70.7856 66.9378 70.7716 64.1265H94.9114C96.1792 64.1265 97.2109 65.1616 97.2109 66.4342V78.53C97.2109 79.8026 96.1794 80.8377 94.9114 80.8377H70.8789C70.8648 78.0335 70.8449 75.2394 70.8254 72.4963ZM92.1192 93.1317V84.6268H94.9112C95.7247 84.6268 96.5009 84.465 97.2107 84.1738V93.1315L92.1192 93.1317Z" fill="black"/>
<path d="M37.8857 15.7526C38.157 15.9233 38.4787 16.0573 38.8391 16.1588C39.8295 22.9812 45.7111 28.2433 52.787 28.2433H52.8196C60.5932 28.2259 66.9035 21.8765 66.8859 14.0898C66.8857 14.0157 66.8812 13.9428 66.8799 13.8689C67.1563 13.674 67.4181 13.4678 67.6602 13.249C68.4368 12.5477 68.4976 11.3498 67.7962 10.5732C67.3902 10.1238 66.8181 9.91579 66.2575 9.95481C64.4765 4.19733 59.1083 0 52.7883 0H52.7559C48.9894 0.00852539 45.4519 1.48588 42.795 4.16001C40.59 6.37946 39.2142 9.20344 38.8143 12.2563C38.2137 12.2822 37.6355 12.5929 37.2912 13.1401C36.7341 14.0258 37.0002 15.1953 37.8857 15.7526ZM52.8111 24.4542H52.787C47.829 24.4542 43.6716 20.9196 42.6956 16.2323C45.3673 15.8171 48.3996 14.6051 50.4787 12.8104C55.2387 15.5721 59.6124 16.1874 63.0033 15.4929C62.3332 20.5344 58.0235 24.4425 52.8111 24.4542ZM45.483 6.83054C47.4255 4.87539 50.0113 3.79531 52.7645 3.78906H52.7883C57.6203 3.78906 61.69 7.14712 62.7973 11.6565C60.027 12.4338 55.8781 11.8715 51.2248 8.81866C50.4042 8.28062 49.309 8.45794 48.7001 9.22694C47.3402 10.9445 44.6994 11.9702 42.624 12.3963C42.9735 10.3002 43.9564 8.3672 45.483 6.83054Z" fill="black"/>
</g>
<defs>
<filter id="filter0_d" x="0" y="0" width="105" height="105" filterUnits="userSpaceOnUse" color-interpolation-filters="sRGB">
<feFlood flood-opacity="0" result="BackgroundImageFix"/>
<feColorMatrix in="SourceAlpha" type="matrix" values="0 0 0 0 0 0 0 0 0 0 0 0 0 0 0 0 0 0 127 0"/>
<feOffset dy="4"/>
<feGaussianBlur stdDeviation="2"/>
<feColorMatrix type="matrix" values="0 0 0 0 0 0 0 0 0 0 0 0 0 0 0 0 0 0 0.25 0"/>
<feBlend mode="normal" in2="BackgroundImageFix" result="effect1_dropShadow"/>
<feBlend mode="normal" in="SourceGraphic" in2="effect1_dropShadow" result="shape"/>
</filter>
</defs>
</svg>
