<svg width="21" height="21" viewBox="0 0 21 21" fill="none" xmlns="http://www.w3.org/2000/svg">
<path d="M17.4812 13.5188C17.4812 17.3969 14.3383 20.5 10.5 20.5C6.66171 20.5 3.51874 17.3969 3.51874 13.5188C3.51874 12.5994 3.94187 11.3216 4.6385 9.86928C5.32655 8.43484 6.24867 6.89535 7.17783 5.47443C8.10586 4.05526 9.03479 2.76364 9.73219 1.8263C10.04 1.41263 10.3023 1.06842 10.4991 0.813215C10.6961 1.06965 10.9589 1.41578 11.2673 1.83175C11.9647 2.77259 12.8938 4.06841 13.8219 5.49046C14.7512 6.91426 15.6734 8.45531 16.3616 9.88797C17.0586 11.339 17.4812 12.6109 17.4812 13.5188Z" fill="#42D8F9" stroke="#222222"/>
<path d="M10.5 19.0312C7.48124 19.0312 4.98749 16.5813 4.98749 13.5187C4.98749 13.1688 5.29375 12.8625 5.64374 12.8625C5.99372 12.8625 6.29999 13.1688 6.29999 13.5187C6.29999 15.8375 8.18125 17.7187 10.5 17.7187C10.85 17.7187 11.1562 18.025 11.1562 18.375C11.1562 18.725 10.85 19.0312 10.5 19.0312Z" fill="#222222"/>
</svg>
