<svg width="83" height="83" viewBox="0 0 83 83" fill="none" xmlns="http://www.w3.org/2000/svg">
<g clip-path="url(#clip0)">
<path d="M70.4668 62.8515C70.4267 62.8916 66.417 66.9079 66.3687 66.9375C67.4875 68.8482 68.129 71.0719 68.129 73.4443V80.233C68.129 80.9973 67.51 81.6163 66.7457 81.6163H16.2542C15.4899 81.6163 14.8709 80.9973 14.8709 80.233V73.4443C14.8709 71.0719 15.5124 68.8482 16.6312 66.9375C16.5847 66.9091 16.9127 67.2311 12.5331 62.8515C10.9077 61.2261 10.7572 58.6427 12.1803 56.8392C13.9161 54.6184 13.4118 52.0558 11.8501 50.5831C10.1365 48.9663 9.94625 46.3069 11.4126 44.4636L13.4046 41.9598C14.3228 40.8047 14.6219 39.2727 14.2034 37.8565L12.9169 33.4938C12.2581 31.2649 13.3942 28.8977 15.5453 28.0176L17.245 27.3207C18.9465 26.6239 20.0584 24.9673 20.0584 23.1275V18.6749C20.0584 9.12478 27.7998 1.38333 37.35 1.38333H45.6499C55.1996 1.38333 62.9415 9.1227 62.9415 18.6749V23.1275C62.9415 24.9673 64.0534 26.6239 65.7549 27.3207L67.4546 28.0176C69.6057 28.8977 70.7418 31.2649 70.083 33.4938L68.7965 37.8565C68.378 39.2727 68.6772 40.8047 69.5953 41.9598L71.5873 44.4636C73.0549 46.3114 72.8628 48.9646 71.1499 50.5831C69.4397 52.1947 69.246 54.8455 70.702 56.6888C72.3561 58.8051 72.0046 61.3138 70.4668 62.8515Z" fill="#FFDFBA"/>
<path d="M12.5331 62.8515C12.5732 62.8916 16.583 66.9079 16.6312 66.9375C15.5124 68.8482 14.8709 71.0719 14.8709 73.4443V80.233C14.8709 80.9973 15.49 81.6163 16.2542 81.6163H66.7457C67.51 81.6163 68.129 80.9973 68.129 80.233V73.4443C68.129 71.0719 67.4875 68.8482 66.3687 66.9375C66.4153 66.9091 66.0872 67.2311 70.4669 62.8515C72.0923 61.2261 72.2427 58.6427 70.8196 56.8392C69.0839 54.6184 69.5881 52.0558 71.1499 50.5831C72.8635 48.9663 73.0537 46.3069 71.5873 44.4636L69.5954 41.9598C68.6772 40.8047 68.378 39.2727 68.7965 37.8565L70.083 33.4938C70.7418 31.2649 69.6057 28.8977 67.4547 28.0176L65.7549 27.3207C64.0534 26.6239 62.9416 24.9673 62.9416 23.1275V18.6749C62.9416 9.12478 55.2001 1.38333 45.65 1.38333H37.35C27.8004 1.38333 20.0584 9.1227 20.0584 18.6749V23.1275C20.0584 24.9673 18.9465 26.6239 17.2451 27.3207L15.5453 28.0176C13.3942 28.8977 12.2582 31.2649 12.917 33.4938L14.2035 37.8565C14.6219 39.2727 14.3228 40.8047 13.4046 41.9598L11.4126 44.4636C9.94506 46.3114 10.1372 48.9646 11.8501 50.5831C13.5602 52.1947 13.7539 54.8455 12.2979 56.6888C10.6438 58.8051 10.9954 61.3138 12.5331 62.8515Z" fill="#FFDFBA"/>
<path d="M25.6078 32.3069C24.9085 32.3868 24.3813 32.9771 24.3813 33.6809V36.335C24.3813 43.4695 28.7474 49.5873 34.9551 52.1568L34.9291 52.2208V53.4018C34.9291 57.3343 31.7593 60.5042 27.8482 60.5502C22.9941 60.5502 18.8713 63.1119 16.6312 66.9377C16.5829 66.9081 12.5732 62.8918 12.5331 62.8517C10.9077 61.2263 10.7572 58.6429 12.1803 56.8394C13.9161 54.6186 13.4118 52.056 11.8501 50.5833C10.1365 48.9665 9.94625 46.3071 11.4126 44.4638L13.4046 41.96C14.3228 40.8049 14.6219 39.2728 14.2034 37.8567L12.9169 33.494C12.2581 31.2651 13.3942 28.8979 15.5453 28.0177L17.245 27.3209C18.9465 26.624 20.0584 24.9675 20.0584 23.1277V18.6749C20.0584 9.12512 27.8002 1.38333 37.35 1.38333H45.6499C55.1996 1.38333 62.9415 9.12288 62.9415 18.6749V23.1275C62.9415 24.9673 64.0534 26.6239 65.7549 27.3207L67.4546 28.0176C69.6057 28.8977 70.7418 31.2649 70.083 33.4938L68.7965 37.8565C68.378 39.2727 68.6771 40.8047 69.5953 41.9598L71.5873 44.4636C73.0547 46.3112 72.8631 48.9644 71.1498 50.5831C69.5528 52.088 69.1126 54.6553 70.8196 56.8392C72.2427 58.6427 72.0922 61.2261 70.4668 62.8515C70.4267 62.8916 66.417 66.9079 66.3687 66.9375C64.1471 63.1434 60.0412 60.55 55.1517 60.55C51.2422 60.504 48.0708 57.336 48.0708 53.4016V52.2206L48.0448 52.1549C54.2525 49.5854 58.6186 43.4711 58.6186 36.3348V27.8078C58.6186 27.2265 58.2565 26.7065 57.7098 26.5087C54.701 25.4207 52.1607 23.3243 50.5275 20.5234C50.0505 19.7053 48.9049 19.6097 48.2862 20.3268C42.4972 27.0368 34.4619 31.2959 25.6078 32.3069Z" fill="#FE4F60"/>
<path d="M57.7099 26.5089C58.2566 26.7065 58.6187 27.2265 58.6187 27.808V36.335C58.6187 43.4712 54.2526 49.5855 48.0449 52.1551C36.8163 56.816 24.3813 48.5359 24.3813 36.335V33.6809C24.3813 32.9771 24.9086 32.3868 25.6078 32.3069C34.447 31.2976 42.4874 27.0484 48.2863 20.3271C48.905 19.61 50.0506 19.7055 50.5276 20.5237C52.1593 23.322 54.6978 25.4197 57.7099 26.5089Z" fill="#FFEBD2"/>
<path d="M68.1291 73.4443V80.233C68.1291 80.9973 67.51 81.6163 66.7458 81.6163H16.2543C15.49 81.6163 14.871 80.9973 14.871 80.233V73.4443C14.871 66.3286 20.6391 60.55 27.7653 60.55C28.7646 60.55 29.7753 60.3454 30.736 59.9084L30.7792 60.0018L40.6527 67.6464C41.1525 68.032 41.8476 68.032 42.3473 67.6464L52.2208 60.0018L52.264 59.9084C53.1459 60.3096 54.1229 60.5379 55.1517 60.55C62.5556 60.55 68.1291 66.4888 68.1291 73.4443Z" fill="#42434D"/>
<path d="M51.7245 2.48169C53.9343 3.31031 53.3009 6.58499 50.9408 6.57116C50.8549 6.57064 42.6236 6.57081 42.5374 6.57081C32.9876 6.57081 25.2459 14.3126 25.2459 23.8624V28.315C25.2459 30.1548 24.134 31.8113 22.4325 32.5082L20.7327 33.2051C18.5817 34.0852 17.4456 36.4524 18.1044 38.6813L19.3909 43.044C19.8094 44.4601 19.5102 45.9922 18.592 47.1473L16.6001 49.6511C15.1337 51.4944 15.3239 54.1538 17.0375 55.7706C18.7447 57.3806 18.9429 60.0292 17.4854 61.8762C16.2646 63.4382 16.1316 65.1416 16.7521 66.6019C16.8224 66.7677 16.6108 66.9204 16.478 66.7898C15.7372 66.0612 12.5687 62.8871 12.5331 62.8517C11.0258 61.3443 10.6163 58.8404 12.2979 56.6889C13.757 54.8401 13.5557 52.1916 11.8501 50.5833C10.1365 48.9665 9.94625 46.3071 11.4126 44.4638L13.4046 41.96C14.3228 40.8049 14.6219 39.2728 14.2034 37.8567L12.9169 33.494C12.2581 31.2651 13.3942 28.8979 15.5453 28.0177L17.245 27.3209C18.9465 26.624 20.0584 24.9675 20.0584 23.1277V18.6749C20.0584 9.12512 27.8002 1.38333 37.35 1.38333H45.6499C47.7697 1.38333 49.8203 1.76772 51.7245 2.48169Z" fill="#FF6D7A"/>
<path d="M37.6042 47.3999C40.4044 49.1728 38.2162 53.4639 35.1395 52.2317C28.8204 49.7007 24.3813 43.5271 24.3813 36.3348V33.6806C24.3813 32.9768 24.9087 32.3872 25.6073 32.3076C26.2497 32.2336 26.9422 32.1366 27.6766 32.0085C28.6501 31.8387 29.5647 32.5386 29.6449 33.5236C30.1662 39.9284 33.3173 44.6856 37.6042 47.3999Z" fill="#FFF3E4"/>
<path d="M32.9916 61.7154C33.8744 62.399 33.4071 63.8309 32.2906 63.8354C24.9353 63.8649 19.3665 69.7697 19.3665 76.7297V81.6163H16.2541C15.4901 81.6163 14.8707 80.9969 14.8707 80.233V73.4443C14.8707 66.4481 20.4838 60.55 27.8481 60.55C28.8769 60.5379 29.8539 60.3096 30.7358 59.9084L30.779 60.0018L32.9916 61.7154Z" fill="#4D4E59"/>
<path d="M50.0083 61.7154C49.1256 62.399 49.5928 63.8309 50.7093 63.8354C58.0646 63.8649 63.6334 69.7697 63.6334 76.7297V81.6163H66.7459C67.5098 81.6163 68.1292 80.9969 68.1292 80.233V73.4443C68.1292 66.4481 62.5162 60.55 55.1519 60.55C54.123 60.5379 53.146 60.3096 52.2642 59.9084L52.2209 60.0018L50.0083 61.7154Z" fill="#2C2C33"/>
<path d="M40.6532 67.6461C41.1517 68.032 41.8482 68.032 42.3469 67.6461L52.2208 60.0018L52.264 59.9084C53.1459 60.3096 54.1228 60.5379 55.1517 60.55L49.1083 81.6163H33.8917L27.8483 60.55C28.8771 60.5379 29.8541 60.3096 30.736 59.9084L30.7792 60.0018L40.6532 67.6461Z" fill="#D6F4FC"/>
<path d="M30.7129 63.9287C30.1967 63.9863 29.6129 64.0866 28.9171 64.2729L27.8485 60.55C28.8774 60.5379 29.8543 60.3096 30.7362 59.9084L30.7794 60.0018L31.6283 60.6593C32.9286 61.6665 32.3474 63.7463 30.7129 63.9287Z" fill="#E8F8FC"/>
<path d="M52.2874 63.9287C52.8036 63.9863 53.3873 64.0866 54.0831 64.2729L55.1518 60.55C54.1229 60.5379 53.1459 60.3096 52.2641 59.9084L52.2208 60.0018L51.372 60.6593C50.0715 61.6665 50.6526 63.7463 52.2874 63.9287Z" fill="#BDEFFC"/>
<path d="M48.2662 55.0599C44.006 56.8432 39.3243 56.9815 34.7338 55.0599C34.9682 54.0871 34.9292 53.457 34.9292 52.2206L34.9551 52.1566C39.1193 53.8851 43.8726 53.8886 48.0448 52.1566L48.0708 52.2206C48.0708 53.4575 48.0317 54.0874 48.2662 55.0599Z" fill="#FFD6A6"/>
<path d="M71.4447 63.8298L68.0775 67.197C69.0145 69.1193 69.5122 71.2434 69.5122 73.4448V81.6163C69.5122 82.3803 68.8928 82.9996 68.1288 82.9996C67.3649 82.9996 66.7455 82.3803 66.7455 81.6163V73.4448C66.7455 67.3902 62.0906 62.4536 56.1821 61.975L50.4378 81.9978C50.2637 82.6047 49.7102 83 49.1088 83C48.189 83 47.525 82.1181 47.7784 81.2349L53.3743 61.7294C51.1234 61.2361 49.1613 59.8576 47.9269 57.8309C47.5294 57.1785 47.7362 56.3274 48.3886 55.9298C49.0408 55.5321 49.8921 55.7391 50.2896 56.3915C51.2958 58.0434 53.016 59.0606 54.9331 59.1573C55.1048 59.1286 55.284 59.1322 55.4629 59.1725C59.782 59.2401 63.8512 61.2204 66.5812 64.7807L69.4883 61.8736C70.6171 60.7449 70.7224 58.9486 69.7332 57.6956C67.5395 54.919 68.0972 51.5597 70.2004 49.5767C71.3816 48.4631 71.5152 46.5957 70.5045 45.3252L68.5132 42.8219C67.3144 41.3148 66.924 39.3123 67.469 37.465L68.7563 33.1023C69.2151 31.5476 68.4299 29.9117 66.93 29.2971L65.2309 28.601C62.9998 27.6866 61.558 25.5385 61.558 23.128V18.6756C61.558 9.90307 54.4216 2.76665 45.6498 2.76665H37.3498C28.5779 2.76665 21.4415 9.90341 21.4415 18.6756V23.128C21.4415 25.5385 19.9999 27.6866 17.7688 28.601L16.0696 29.2971C14.5697 29.9117 13.7846 31.5476 14.2432 33.1023L15.5306 37.465C16.0756 39.3123 15.6853 41.3148 14.4863 42.8219L12.495 45.3252C11.4845 46.5957 11.6182 48.463 12.7992 49.5767C14.906 51.563 15.4574 54.9216 13.2661 57.696C12.277 58.9488 12.3823 60.7449 13.5111 61.8736L16.4182 64.7807C19.0945 61.2904 23.1977 59.167 27.7651 59.167C30.9576 59.167 33.5455 56.5945 33.5455 53.4018V53.0383C27.8277 50.3158 24.0038 44.9222 23.1716 38.8805C23.0673 38.1236 23.5964 37.4256 24.3531 37.3213C25.1096 37.2169 25.808 37.7462 25.9123 38.5028C26.9776 46.237 33.6786 52.0693 41.4996 52.0693C50.1762 52.0693 57.235 45.0105 57.235 36.334V27.8063C54.0009 26.6341 51.18 24.3794 49.3372 21.2279C42.6663 28.9779 33.141 33.4866 23.0529 33.8903C22.2912 33.9211 21.6461 33.328 21.6155 32.5634C21.5849 31.7999 22.179 31.1563 22.9424 31.1259C32.9043 30.7275 42.2905 26.0104 48.5269 17.8358C49.1785 16.9814 50.5163 17.1662 50.9125 18.1645C52.3646 21.8229 55.4142 24.4533 58.9965 25.4712C59.5235 25.6189 59.951 26.0942 59.9964 26.6968C60.0051 26.8103 60.003 36.4199 60.0011 36.4789C59.9067 48.6694 48.1354 57.5632 36.2831 54.0821C36.1032 56.3741 35.0121 58.5319 33.1118 60.0584L41.4996 66.5522L46.4329 62.733C47.0374 62.2653 47.906 62.3761 48.3735 62.98C48.8413 63.5841 48.7306 64.453 48.1266 64.9206L42.8829 68.9801V78.8497C42.8829 79.6136 42.2635 80.233 41.4996 80.233C40.7357 80.233 40.1163 79.6136 40.1163 78.8497V68.9803L30.4565 61.5019C28.9561 61.9968 27.6337 61.9338 27.7654 61.9338C21.4031 61.9336 16.2539 67.082 16.2539 73.445V81.6163C16.2539 82.3803 15.6345 82.9996 14.8706 82.9996C14.1066 82.9996 13.4872 82.3803 13.4872 81.6163V73.4448C13.4872 71.2434 13.9849 69.1193 14.9219 67.197L11.5547 63.8298C9.58434 61.8595 9.06404 58.5521 11.2125 55.8318C12.2312 54.5415 12.0973 52.7176 10.9009 51.5896C8.68207 49.4975 8.43117 45.9894 10.3296 43.6028L12.3209 41.0994C12.9591 40.2972 13.1668 39.2312 12.8767 38.2478L11.5893 33.8851C10.7275 30.9644 12.2025 27.8913 15.0201 26.7368L16.7194 26.0406C17.907 25.554 18.6744 24.4105 18.6744 23.1279V18.6754C18.6751 8.37795 27.0527 0 37.35 0H45.6499C55.9473 0 64.3249 8.3776 64.3249 18.6749V23.128C64.3249 24.4107 65.0923 25.5542 66.28 26.041L67.9791 26.737C70.7969 27.8915 72.2719 30.9646 71.4101 33.8853L70.1227 38.248C69.8326 39.2313 70.0402 40.2974 70.6785 41.0995L72.6698 43.6028C74.5682 45.9894 74.3172 49.4977 72.0985 51.5896C70.9021 52.7176 70.7682 54.5415 71.787 55.8321C73.8999 58.5066 73.4522 61.8225 71.4447 63.8298ZM31.073 66.5425C30.8653 65.8073 30.101 65.3792 29.3658 65.5872C28.6305 65.7949 28.2027 66.5592 28.4104 67.2944L32.5604 81.9922C32.768 82.7277 33.5325 83.1551 34.2676 82.9476C35.0028 82.7399 35.4306 81.9756 35.2229 81.2404L31.073 66.5425Z" fill="black"/>
</g>
<defs>
<clipPath id="clip0">
<rect width="83" height="83" fill="white"/>
</clipPath>
</defs>
</svg>
