<svg xmlns="http://www.w3.org/2000/svg" width="105" height="105" fill="none" viewBox="0 0 105 105">
    <g filter="url(#filter0_d)">
        <path fill="#C3C6C7" d="M11.578 13.64h84.875v78.813H11.578V13.641z"/>
        <path fill="#E9EEF2" d="M8.547 10.61H90.39v75.78H8.547V10.61z"/>
        <path fill="#EB423F" d="M8.547 10.61H90.39v18.187H8.547V10.609z"/>
        <path fill="#000" d="M96.453 12.125h-4.547v-1.516c0-.402-.16-.787-.444-1.071-.284-.285-.67-.444-1.071-.444H79.78V7.578c0-1.206-.479-2.362-1.332-3.215-.852-.853-2.009-1.332-3.215-1.332s-2.362.48-3.215 1.332c-.853.853-1.332 2.01-1.332 3.215v1.516h-3.03V7.578c0-1.206-.48-2.362-1.332-3.215-.853-.853-2.01-1.332-3.216-1.332-1.206 0-2.362.48-3.215 1.332-.852.853-1.331 2.01-1.331 3.215v1.516H40.374V7.578c0-1.206-.479-2.362-1.332-3.215-.852-.853-2.009-1.332-3.215-1.332s-2.362.48-3.215 1.332c-.853.853-1.332 2.01-1.332 3.215v1.516H28.25V7.578c0-1.206-.479-2.362-1.332-3.215-.852-.853-2.009-1.332-3.215-1.332s-2.362.48-3.215 1.332c-.853.853-1.332 2.01-1.332 3.215v1.516H8.546c-.401 0-.787.16-1.07.444-.285.284-.445.67-.445 1.071v75.782c0 .402.16.787.444 1.071.284.285.67.444 1.072.444h1.515v4.547c0 .402.16.788.444 1.072.285.284.67.444 1.072.444h84.875c.402 0 .788-.16 1.072-.444.284-.284.444-.67.444-1.072V13.641c0-.402-.16-.788-.444-1.072-.284-.284-.67-.444-1.072-.444zm-86.39 72.75V30.312h78.812v54.563H10.062zM73.719 7.578c0-.402.16-.787.444-1.072.284-.284.67-.444 1.071-.444.402 0 .788.16 1.072.444.284.285.444.67.444 1.072v1.516h-3.031V7.578zm-12.125 0c0-.402.16-.787.444-1.072.284-.284.67-.444 1.071-.444.402 0 .788.16 1.072.444.284.285.444.67.444 1.072v1.516h-3.031V7.578zm-27.282 0c0-.402.16-.787.444-1.072.285-.284.67-.444 1.072-.444s.788.16 1.072.444c.284.285.444.67.444 1.072v1.516h-3.032V7.578zm-12.124 0c0-.402.16-.787.443-1.072.285-.284.67-.444 1.072-.444s.788.16 1.072.444c.284.285.444.67.444 1.072v1.516h-3.032V7.578zm-3.032 4.547v1.516c.002 1.205.481 2.36 1.334 3.213.852.853 2.008 1.332 3.213 1.334.402 0 .788-.16 1.072-.444.284-.285.444-.67.444-1.072s-.16-.788-.444-1.072c-.284-.284-.67-.444-1.072-.444s-.787-.16-1.071-.444c-.284-.284-.444-.67-.445-1.071v-1.516h9.094v1.516c.002 1.205.481 2.36 1.334 3.213.852.853 2.008 1.332 3.213 1.334.402 0 .788-.16 1.072-.444.284-.285.444-.67.444-1.072s-.16-.788-.444-1.072c-.284-.284-.67-.444-1.072-.444s-.787-.16-1.071-.444c-.284-.284-.444-.67-.444-1.071v-1.516h24.25v1.516c0 1.205.48 2.36 1.333 3.213.852.853 2.008 1.332 3.213 1.334.402 0 .788-.16 1.072-.444.284-.285.444-.67.444-1.072s-.16-.788-.444-1.072c-.284-.284-.67-.444-1.072-.444-.401 0-.787-.16-1.07-.444-.285-.284-.445-.67-.445-1.071v-1.516h9.093v1.516c.002 1.205.481 2.36 1.334 3.213.852.853 2.008 1.332 3.213 1.334.402 0 .788-.16 1.072-.444.284-.285.444-.67.444-1.072s-.16-.788-.444-1.072c-.284-.284-.67-.444-1.072-.444-.401 0-.787-.16-1.07-.444-.285-.284-.445-.67-.445-1.071v-1.516h15.156v15.156H10.062V12.125h9.094zm75.781 78.813H13.094v-3.032H90.39c.402 0 .787-.16 1.071-.444.285-.284.444-.67.444-1.071V15.156h3.031v75.781z"/>
        <path fill="#000" d="M37.344 65.172c0-1.501-.373-2.979-1.083-4.301-.71-1.323-1.738-2.448-2.99-3.277 1.312-.869 2.374-2.063 3.086-3.465.712-1.402 1.047-2.965.975-4.535-.073-1.57-.552-3.096-1.39-4.426-.838-1.33-2.007-2.42-3.392-3.165-1.386-.743-2.94-1.115-4.512-1.079-1.572.037-3.108.48-4.457 1.288-1.35.807-2.466 1.95-3.242 3.318-.775 1.368-1.183 2.913-1.183 4.486 0 .402.16.787.444 1.071.284.285.67.444 1.072.444s.787-.16 1.072-.444c.284-.284.444-.67.444-1.071 0-1.2.355-2.371 1.021-3.368.666-.998 1.613-1.775 2.721-2.233 1.108-.46 2.327-.58 3.503-.345 1.176.233 2.256.81 3.104 1.659.848.848 1.425 1.928 1.659 3.104.234 1.176.114 2.395-.345 3.503-.459 1.107-1.236 2.054-2.233 2.72-.997.667-2.169 1.022-3.368 1.022-.402 0-.788.16-1.072.444-.284.284-.444.67-.444 1.072s.16.787.444 1.072c.284.284.67.443 1.072.443 1.199 0 2.371.356 3.368 1.022.997.666 1.774 1.613 2.233 2.72.459 1.109.579 2.328.345 3.504-.234 1.176-.811 2.256-1.66 3.104-.847.848-1.927 1.425-3.103 1.659-1.176.234-2.395.114-3.503-.345-1.108-.459-2.055-1.236-2.72-2.233-.667-.997-1.023-2.17-1.023-3.368 0-.402-.16-.788-.443-1.072-.285-.284-.67-.444-1.072-.444s-.788.16-1.072.444c-.284.284-.444.67-.444 1.072 0 2.412.958 4.725 2.664 6.43 1.705 1.706 4.018 2.664 6.43 2.664s4.725-.959 6.43-2.664c1.706-1.705 2.664-4.018 2.664-6.43zM70.688 56.078H66.14V43.953H76.75c.402 0 .787-.16 1.072-.444.284-.284.444-.67.444-1.072 0-.401-.16-.787-.444-1.071-.285-.284-.67-.444-1.072-.444H64.625c-.402 0-.788.16-1.072.444-.284.284-.444.67-.444 1.072v15.156c0 .402.16.787.444 1.072.285.284.67.443 1.072.443h6.063c1.198 0 2.37.356 3.368 1.022.997.666 1.774 1.613 2.233 2.72.458 1.109.578 2.328.344 3.504-.233 1.176-.81 2.256-1.659 3.104-.848.848-1.928 1.425-3.104 1.659-1.176.234-2.395.114-3.502-.345-1.108-.459-2.055-1.236-2.721-2.233-.666-.997-1.022-2.17-1.022-3.368 0-.402-.16-.788-.444-1.072-.284-.284-.67-.444-1.072-.444s-.787.16-1.071.444c-.285.284-.444.67-.444 1.072 0 1.799.533 3.557 1.532 5.052 1 1.496 2.42 2.661 4.081 3.35 1.662.688 3.49.868 5.255.517 1.764-.351 3.384-1.217 4.656-2.489 1.272-1.272 2.138-2.892 2.489-4.656.35-1.764.17-3.593-.518-5.254-.688-1.662-1.854-3.082-3.35-4.081-1.495-1-3.253-1.533-5.052-1.533zM49.469 43.953c1.607.002 3.148.641 4.285 1.778 1.136 1.136 1.776 2.677 1.777 4.285 0 .402.16.787.444 1.071.284.285.67.444 1.072.444s.787-.16 1.072-.444c.284-.284.444-.67.444-1.071 0-2.412-.959-4.725-2.664-6.43-1.705-1.706-4.018-2.664-6.43-2.664s-4.725.958-6.43 2.663c-1.706 1.706-2.664 4.019-2.664 6.43v15.157c-.003 2.086.71 4.11 2.02 5.733 1.31 1.623 3.138 2.747 5.178 3.184 2.04.438 4.167.162 6.028-.782 1.86-.944 3.34-2.497 4.193-4.4.852-1.905 1.025-4.044.49-6.06-.536-2.016-1.747-3.787-3.432-5.017-1.685-1.23-3.74-1.844-5.824-1.74-2.083.103-4.068.92-5.622 2.311v-8.385c.002-1.608.641-3.149 1.778-4.285 1.137-1.137 2.677-1.776 4.285-1.778zm0 15.156c1.199 0 2.37.356 3.368 1.022.997.666 1.774 1.613 2.233 2.72.459 1.109.579 2.328.345 3.504-.234 1.176-.812 2.256-1.66 3.104-.847.848-1.928 1.425-3.104 1.659-1.176.234-2.395.114-3.502-.345-1.108-.459-2.055-1.236-2.721-2.233-.666-.997-1.022-2.17-1.022-3.368.002-1.607.641-3.148 1.778-4.285 1.137-1.136 2.677-1.776 4.285-1.778z"/>
    </g>
    <defs>
        <filter id="filter0_d" width="105" height="105" x="0" y="0" color-interpolation-filters="sRGB" filterUnits="userSpaceOnUse">
            <feFlood flood-opacity="0" result="BackgroundImageFix"/>
            <feColorMatrix in="SourceAlpha" values="0 0 0 0 0 0 0 0 0 0 0 0 0 0 0 0 0 0 127 0"/>
            <feOffset dy="4"/>
            <feGaussianBlur stdDeviation="2"/>
            <feColorMatrix values="0 0 0 0 0 0 0 0 0 0 0 0 0 0 0 0 0 0 0.25 0"/>
            <feBlend in2="BackgroundImageFix" result="effect1_dropShadow"/>
            <feBlend in="SourceGraphic" in2="effect1_dropShadow" result="shape"/>
        </filter>
    </defs>
</svg>
